<?xml version="1.0" encoding="UTF-8" standalone="no"?>
<!DOCTYPE svg PUBLIC "-//W3C//DTD SVG 1.1//EN" "http://www.w3.org/Graphics/SVG/1.1/DTD/svg11.dtd">
<svg width="100%" height="100%" viewBox="0 0 63 19" version="1.1" xmlns="http://www.w3.org/2000/svg" xmlns:xlink="http://www.w3.org/1999/xlink" xml:space="preserve" xmlns:serif="http://www.serif.com/" style="fill-rule:evenodd;clip-rule:evenodd;stroke-linejoin:round;stroke-miterlimit:2;">
    <g transform="matrix(1,0,0,1,-723.916,-416.791)">
        <g>
            <g transform="matrix(1,0,0,1,733.468,427.366)">
                <path d="M0,7.898L6.432,7.898L6.432,6.127L2.002,6.127L2.002,4.785L6.323,4.785L6.323,3.06L2.002,3.06L2.002,1.775L6.432,1.775L6.432,0.005L0,0.005L0,7.898ZM15.292,7.898L12.12,3.918L15.27,0.006L12.82,0.006L10.96,2.43L9.101,0.006L6.585,0.006L9.746,3.964L6.596,7.899L9.046,7.899L10.906,5.452L12.776,7.899L15.292,7.898ZM20.63,2.677C20.649,3.146 20.285,3.541 19.816,3.56C19.778,3.562 19.739,3.561 19.7,3.557L17.464,3.557L17.464,1.775L19.696,1.775C20.169,1.736 20.585,2.087 20.624,2.561C20.627,2.599 20.628,2.637 20.626,2.675L20.63,2.677ZM22.643,2.666C22.716,1.267 21.642,0.074 20.244,0.001C20.132,-0.006 20.02,-0.004 19.908,0.005L15.464,0.005L15.464,7.898L17.464,7.898L17.464,5.327L19.838,5.327C21.27,5.438 22.52,4.367 22.631,2.936C22.638,2.846 22.64,2.756 22.638,2.666L22.643,2.666ZM27.685,3.388L25.508,3.388L25.508,1.776L27.685,1.776C28.137,1.718 28.55,2.037 28.608,2.489C28.612,2.522 28.615,2.555 28.615,2.588C28.615,3.039 28.298,3.388 27.685,3.388M31.12,7.898L28.561,5.023C29.769,4.83 30.65,3.777 30.628,2.554C30.668,1.181 29.588,0.035 28.215,-0.005C28.108,-0.009 28,-0.005 27.893,0.006L23.506,0.006L23.506,7.899L25.506,7.899L25.506,5.099L26.283,5.099L28.646,7.899L31.12,7.898ZM31.432,7.898L37.864,7.898L37.864,6.127L33.433,6.127L33.433,4.785L37.764,4.785L37.764,3.06L33.443,3.06L33.443,1.775L37.864,1.775L37.864,0.005L31.432,0.005L31.432,7.898ZM40.527,2.418C40.524,2.064 40.81,1.774 41.164,1.771C41.189,1.771 41.213,1.773 41.238,1.775L44.638,1.775L45.426,0.005L41.264,0.005C39.913,-0.146 38.695,0.827 38.544,2.178C38.533,2.28 38.527,2.383 38.529,2.486C38.452,3.71 39.382,4.764 40.606,4.84C40.734,4.848 40.862,4.845 40.99,4.831L42.861,4.831C43.219,4.798 43.536,5.061 43.569,5.419C43.571,5.441 43.572,5.463 43.572,5.485C43.575,5.839 43.289,6.129 42.935,6.131C42.91,6.132 42.885,6.13 42.861,6.128L38.764,6.128L38.764,7.899L42.834,7.899C44.192,8.044 45.411,7.061 45.556,5.703C45.569,5.582 45.573,5.46 45.568,5.339C45.638,4.148 44.73,3.126 43.539,3.055C43.395,3.046 43.25,3.052 43.107,3.073L41.236,3.073C40.878,3.106 40.561,2.843 40.528,2.485C40.526,2.463 40.525,2.441 40.525,2.419L40.527,2.418ZM51.87,1.775L52.658,0.005L48.49,0.005C47.139,-0.146 45.921,0.827 45.77,2.178C45.758,2.28 45.753,2.383 45.755,2.486C45.678,3.71 46.608,4.764 47.832,4.84C47.96,4.848 48.088,4.845 48.216,4.831L50.087,4.831C50.445,4.798 50.762,5.061 50.795,5.419C50.797,5.441 50.798,5.463 50.798,5.485C50.8,5.84 50.514,6.129 50.159,6.131C50.135,6.131 50.111,6.13 50.087,6.128L45.996,6.128L45.996,7.899L50.064,7.899C51.422,8.044 52.641,7.062 52.787,5.704C52.8,5.583 52.804,5.461 52.799,5.339C52.869,4.148 51.959,3.125 50.768,3.055C50.624,3.046 50.479,3.053 50.337,3.073L48.464,3.073C48.106,3.106 47.789,2.843 47.756,2.485C47.753,2.463 47.753,2.441 47.753,2.419C47.75,2.065 48.036,1.775 48.39,1.772C48.415,1.772 48.439,1.773 48.464,1.776L51.87,1.775Z" style="fill:rgb(1,111,208);fill-rule:nonzero;"/>
            </g>
            <g transform="matrix(1,0,0,1,729.656,419.997)">
                <path d="M0,1.372L-2.188,1.372L-1.094,-1.334L0,1.372ZM1.356,4.699L3.62,4.699L0.24,-3.194L-2.36,-3.194L-5.74,4.699L-3.53,4.699L-2.885,3.087L0.703,3.087L1.359,4.699L1.356,4.699ZM11.714,4.699L13.694,4.699L13.694,-3.193L10.544,-3.193L8.783,1.847L7.011,-3.193L3.828,-3.193L3.828,4.7L5.808,4.7L5.808,-1.143L7.886,4.698L9.636,4.698L11.714,-1.143L11.714,4.699ZM15.028,4.699L21.46,4.699L21.46,2.929L17.03,2.929L17.03,1.587L21.351,1.587L21.351,-0.138L17.03,-0.138L17.03,-1.423L21.46,-1.423L21.46,-3.193L15.028,-3.193L15.028,4.7L15.028,4.699ZM26.776,0.189L24.599,0.189L24.599,-1.423L26.776,-1.423C27.227,-1.482 27.641,-1.163 27.699,-0.712C27.703,-0.679 27.706,-0.646 27.706,-0.612C27.706,-0.161 27.389,0.188 26.776,0.188L26.776,0.189ZM30.211,4.699L27.651,1.824C28.859,1.631 29.741,0.578 29.718,-0.645C29.758,-2.018 28.678,-3.164 27.306,-3.205C27.198,-3.208 27.09,-3.204 26.983,-3.193L22.596,-3.193L22.596,4.7L24.596,4.7L24.596,1.9L25.373,1.9L27.736,4.7L30.211,4.699ZM30.528,4.699L32.528,4.699L32.528,-3.193L30.528,-3.193L30.528,4.7L30.528,4.699ZM37.472,-1.367L39.594,-1.367L39.594,-3.193L37.319,-3.193C35.342,-3.328 33.631,-1.835 33.497,0.142C33.484,0.327 33.486,0.513 33.502,0.697L33.502,0.81C33.502,3.234 34.902,4.7 37.166,4.7L37.33,4.7L38.15,2.93L37.505,2.93C36.468,3.004 35.568,2.223 35.494,1.186C35.485,1.061 35.489,0.935 35.505,0.81L35.505,0.697C35.394,-0.328 36.135,-1.248 37.16,-1.358C37.264,-1.37 37.369,-1.373 37.474,-1.366L37.472,-1.367ZM43.928,1.373L41.74,1.373L42.834,-1.333L43.928,1.373ZM45.284,4.7L47.549,4.7L44.168,-3.193L41.568,-3.193L38.188,4.7L40.398,4.7L41.043,3.088L44.631,3.088L45.287,4.7L45.284,4.7ZM55.435,4.7L55.435,-3.193L53.444,-3.193L53.444,1.7L50.293,-3.193L47.755,-3.193L47.755,4.7L49.755,4.7L49.755,-0.374L53.004,4.7L55.435,4.7Z" style="fill:rgb(1,111,208);fill-rule:nonzero;"/>
            </g>
        </g>
    </g>
</svg>
