<?xml version="1.0" encoding="UTF-8" standalone="no"?>
<!DOCTYPE svg PUBLIC "-//W3C//DTD SVG 1.1//EN" "http://www.w3.org/Graphics/SVG/1.1/DTD/svg11.dtd">
<svg width="100%" height="100%" viewBox="0 0 38 38" version="1.1" xmlns="http://www.w3.org/2000/svg" xmlns:xlink="http://www.w3.org/1999/xlink" xml:space="preserve" xmlns:serif="http://www.serif.com/" style="fill-rule:evenodd;clip-rule:evenodd;stroke-linejoin:round;stroke-miterlimit:2;">
    <g transform="matrix(1,0,0,1,-735.091,-853.332)">
        <g>
            <g transform="matrix(1,0,0,1,772.903,872.234)">
                <path d="M0,0.012C-0.004,10.454 -8.473,18.915 -18.914,18.91C-29.355,18.906 -37.816,10.438 -37.812,-0.004C-37.808,-10.442 -29.346,-18.901 -18.908,-18.902C-8.466,-18.903 -0.001,-10.438 0,0.004L0,0.012Z" style="fill:rgb(247,147,26);fill-rule:nonzero;"/>
            </g>
            <g transform="matrix(1,0,0,1,757.45,875.577)">
                <path d="M0,-7.006C0,-4.59 -3.793,-4.872 -5,-4.872L-5,-9.142C-3.793,-9.144 -0.005,-9.528 -0.005,-7.008L0,-7.006ZM0.994,-0.364C0.994,2.291 -3.551,1.989 -5.001,1.99L-5.001,-2.718C-3.551,-2.719 0.995,-3.136 0.995,-0.366L0.994,-0.364ZM3.986,-7.964C3.743,-10.497 1.556,-11.346 -1.204,-11.588L-1.204,-15.101L-3.342,-15.101L-3.342,-11.68C-3.904,-11.68 -4.479,-11.669 -5.05,-11.657L-5.05,-15.1L-7.187,-15.1L-7.187,-11.588C-7.65,-11.579 -8.105,-11.57 -8.548,-11.57L-8.548,-11.581L-11.498,-11.581L-11.498,-9.294C-11.498,-9.294 -9.919,-9.324 -9.945,-9.294C-9.348,-9.371 -8.799,-8.953 -8.715,-8.357L-8.715,-4.357C-8.64,-4.357 -8.564,-4.352 -8.489,-4.342L-8.715,-4.342L-8.715,1.265C-8.74,1.682 -9.097,1.999 -9.513,1.974L-9.515,1.974C-9.488,1.998 -11.069,1.974 -11.069,1.974L-11.494,4.528L-8.711,4.528C-8.193,4.528 -7.684,4.537 -7.184,4.541L-7.184,8.094L-5.048,8.094L-5.048,4.578C-4.462,4.59 -3.894,4.595 -3.34,4.595L-3.34,8.095L-1.205,8.095L-1.205,4.548C2.395,4.342 4.907,3.436 5.219,0.06C5.471,-2.659 4.192,-3.872 2.152,-4.362C3.511,-5.006 4.264,-6.486 3.986,-7.964" style="fill:white;fill-rule:nonzero;"/>
            </g>
        </g>
    </g>
</svg>
