<?xml version="1.0" encoding="UTF-8" standalone="no"?>
<!DOCTYPE svg PUBLIC "-//W3C//DTD SVG 1.1//EN" "http://www.w3.org/Graphics/SVG/1.1/DTD/svg11.dtd">
<svg width="100%" height="100%" viewBox="0 0 67 46" version="1.1" xmlns="http://www.w3.org/2000/svg" xmlns:xlink="http://www.w3.org/1999/xlink" xml:space="preserve" xmlns:serif="http://www.serif.com/" style="fill-rule:evenodd;clip-rule:evenodd;stroke-linejoin:round;stroke-miterlimit:2;">
    <g transform="matrix(1,0,0,1,-926.473,-849.553)">
        <g>
            <g opacity="0.6">
                <g transform="matrix(-0.911394,0.411536,0.411536,0.911394,961.845,868.461)">
                    <path d="M-1.848,-8.571L7.628,-8.571L1.843,-0.397L-8.112,-1.463L-1.848,-8.571Z" style="fill:rgb(1,1,1);fill-rule:nonzero;"/>
                </g>
            </g>
            <g opacity="0.45">
                <g transform="matrix(1,0,0,1,951.366,854.623)">
                    <path d="M0,9.169L8.637,14.238L8.637,-5.069L0,9.169Z" style="fill:rgb(1,1,1);fill-rule:nonzero;"/>
                </g>
            </g>
            <g opacity="0.8">
                <g transform="matrix(1,0,0,1,960.002,868.861)">
                    <path d="M0,-19.307L0,0L8.634,-5.069L0,-19.307Z" style="fill:rgb(1,1,1);fill-rule:nonzero;"/>
                </g>
            </g>
            <g opacity="0.45">
                <g transform="matrix(1,0,0,1,951.366,877.506)">
                    <path d="M0,-12.089L8.637,0L8.637,-7.019L0,-12.089Z" style="fill:rgb(1,1,1);fill-rule:nonzero;"/>
                </g>
            </g>
            <g opacity="0.8">
                <g transform="matrix(1,0,0,1,960.002,872.435)">
                    <path d="M0,-1.949L0,5.07L8.641,-7.019L0,-1.949Z" style="fill:rgb(1,1,1);fill-rule:nonzero;"/>
                </g>
            </g>
            <g transform="matrix(1,0,0,1,993.117,886.999)">
                <path d="M0,4.026L0,7.335C-0.003,7.477 -0.117,7.591 -0.26,7.593C-0.398,7.597 -0.516,7.488 -0.52,7.349L-0.52,4.025C-0.52,2.914 -1.151,1.824 -2.397,1.824C-3.963,1.824 -4.558,3.488 -4.558,4.782L-4.558,7.336C-4.561,7.478 -4.676,7.592 -4.817,7.593C-4.957,7.598 -5.073,7.488 -5.077,7.349L-5.077,4.025C-5.077,2.914 -5.71,1.824 -6.957,1.824C-8.54,1.824 -9.192,3.064 -9.134,4.711C-9.134,4.748 -9.117,4.823 -9.134,4.84L-9.134,7.328C-9.131,7.456 -9.221,7.567 -9.346,7.59C-9.485,7.619 -9.622,7.531 -9.651,7.392C-9.655,7.373 -9.657,7.354 -9.657,7.335L-9.657,1.685C-9.66,1.559 -9.572,1.449 -9.448,1.424C-9.31,1.394 -9.173,1.483 -9.143,1.622C-9.139,1.64 -9.137,1.659 -9.137,1.678L-9.137,2.622C-8.706,1.819 -7.871,1.316 -6.96,1.308C-5.939,1.308 -5.039,1.977 -4.746,2.955C-4.37,1.982 -3.444,1.332 -2.401,1.308C-0.873,1.308 0.002,2.619 0.002,4.025M-13.156,1.72L-13.156,7.366C-13.159,7.508 -13.274,7.623 -13.416,7.625C-13.556,7.629 -13.672,7.519 -13.676,7.38C-13.677,7.375 -13.677,7.371 -13.677,7.366L-13.677,6.296C-14.053,7.16 -14.895,7.729 -15.837,7.756C-17.382,7.756 -18.239,6.425 -18.239,5.02L-18.239,1.709C-18.234,1.566 -18.113,1.453 -17.97,1.459C-17.834,1.463 -17.725,1.573 -17.72,1.709L-17.72,5.021C-17.72,6.131 -17.087,7.241 -15.841,7.241C-14.092,7.241 -13.682,5.615 -13.682,3.818L-13.682,1.71C-13.68,1.565 -13.56,1.449 -13.415,1.452C-13.392,1.452 -13.369,1.456 -13.347,1.462C-13.234,1.5 -13.159,1.605 -13.158,1.723M-22.111,4.246C-22.225,2.969 -23.208,1.805 -24.568,1.805C-25.929,1.805 -26.896,2.969 -27.026,4.246L-22.111,4.246ZM-21.555,4.498C-21.557,4.645 -21.677,4.763 -21.824,4.762L-27.026,4.762C-26.896,6.039 -25.929,7.204 -24.569,7.204C-23.714,7.241 -22.901,6.827 -22.429,6.113C-22.361,6 -22.219,5.954 -22.098,6.008C-22.021,6.042 -21.965,6.112 -21.95,6.195C-21.939,6.257 -21.952,6.321 -21.985,6.375C-22.547,7.252 -23.531,7.766 -24.572,7.726C-26.321,7.726 -27.569,6.172 -27.569,4.508C-27.569,2.844 -26.322,1.289 -24.572,1.289C-22.822,1.289 -21.558,2.837 -21.554,4.497M-30.098,1.657C-30.085,1.798 -30.19,1.923 -30.331,1.935C-30.334,1.936 -30.337,1.936 -30.34,1.936C-31.868,2.156 -32.555,3.395 -32.555,4.838L-32.555,7.31C-32.552,7.437 -32.64,7.547 -32.764,7.572C-32.902,7.602 -33.039,7.513 -33.069,7.374C-33.073,7.356 -33.075,7.337 -33.074,7.318L-33.074,1.683C-33.077,1.557 -32.989,1.446 -32.866,1.422C-32.727,1.392 -32.59,1.481 -32.561,1.619C-32.557,1.638 -32.555,1.657 -32.555,1.676L-32.555,2.824C-32.127,2.104 -31.27,1.419 -30.378,1.419C-30.235,1.409 -30.111,1.514 -30.098,1.656M-37.042,4.248C-37.156,2.971 -38.14,1.806 -39.5,1.806C-40.86,1.806 -41.828,2.971 -41.958,4.248L-37.042,4.248ZM-36.482,4.499C-36.484,4.647 -36.604,4.765 -36.752,4.764L-41.957,4.764C-41.827,6.041 -40.86,7.206 -39.5,7.206C-38.645,7.243 -37.833,6.829 -37.36,6.115C-37.292,6.001 -37.15,5.956 -37.029,6.01C-36.951,6.044 -36.896,6.114 -36.882,6.197C-36.871,6.259 -36.883,6.323 -36.916,6.377C-37.478,7.254 -38.462,7.768 -39.503,7.728C-41.253,7.728 -42.5,6.173 -42.5,4.509C-42.5,2.846 -41.253,1.291 -39.503,1.291C-37.753,1.291 -36.485,2.839 -36.482,4.499M-45.809,4.045L-45.809,7.338C-45.812,7.48 -45.927,7.594 -46.069,7.596C-46.208,7.601 -46.324,7.491 -46.329,7.352L-46.329,4.045C-46.329,2.935 -46.961,1.824 -48.208,1.824C-49.808,1.824 -50.499,3.213 -50.406,4.635C-50.406,4.673 -50.388,4.839 -50.388,4.857L-50.388,7.328C-50.386,7.454 -50.474,7.565 -50.598,7.589C-50.736,7.619 -50.873,7.53 -50.903,7.392C-50.907,7.373 -50.909,7.354 -50.908,7.335L-50.908,-3.483C-50.908,-3.626 -50.792,-3.743 -50.648,-3.743C-50.505,-3.743 -50.388,-3.626 -50.388,-3.483L-50.388,2.639C-49.959,1.832 -49.125,1.322 -48.211,1.308C-46.684,1.308 -45.809,2.639 -45.809,4.045M-54.316,1.417C-54.174,1.419 -54.059,1.533 -54.057,1.675C-54.053,1.815 -54.164,1.93 -54.304,1.933L-55.709,1.933L-55.709,7.369C-55.713,7.51 -55.828,7.624 -55.97,7.627C-56.112,7.625 -56.227,7.511 -56.229,7.369L-56.229,1.933L-57.569,1.933C-57.708,1.937 -57.825,1.827 -57.829,1.688L-57.829,1.675C-57.825,1.533 -57.71,1.42 -57.569,1.417L-56.229,1.417L-56.229,-0.573C-56.232,-0.699 -56.145,-0.809 -56.021,-0.834C-55.882,-0.864 -55.745,-0.776 -55.715,-0.637C-55.711,-0.619 -55.709,-0.599 -55.709,-0.58L-55.709,1.416L-54.316,1.417ZM-61.186,4.249C-61.299,2.972 -62.283,1.807 -63.643,1.807C-65.003,1.807 -65.971,2.972 -66.101,4.249L-61.186,4.249ZM-60.628,4.5C-60.63,4.647 -60.751,4.766 -60.898,4.765L-66.101,4.765C-65.97,6.042 -65.003,7.206 -63.643,7.206C-62.788,7.244 -61.976,6.83 -61.503,6.116C-61.436,6.002 -61.293,5.957 -61.172,6.011C-61.095,6.044 -61.04,6.114 -61.025,6.197C-61.014,6.259 -61.026,6.324 -61.059,6.378C-61.621,7.255 -62.605,7.769 -63.646,7.729C-65.396,7.729 -66.644,6.173 -66.644,4.51C-66.644,2.847 -65.396,1.291 -63.646,1.291C-61.897,1.291 -60.632,2.839 -60.629,4.5" style="fill:rgb(60,60,59);fill-rule:nonzero;"/>
            </g>
        </g>
    </g>
</svg>
