<?xml version="1.0" encoding="UTF-8" standalone="no"?>
<!DOCTYPE svg PUBLIC "-//W3C//DTD SVG 1.1//EN" "http://www.w3.org/Graphics/SVG/1.1/DTD/svg11.dtd">
<svg width="100%" height="100%" viewBox="0 0 41 41" version="1.1" xmlns="http://www.w3.org/2000/svg" xmlns:xlink="http://www.w3.org/1999/xlink" xml:space="preserve" xmlns:serif="http://www.serif.com/" style="fill-rule:evenodd;clip-rule:evenodd;stroke-linejoin:round;stroke-miterlimit:2;">
    <g transform="matrix(1,0,0,1,-1558.74,-402.999)">
        <g>
            <g transform="matrix(1,0,0,1,1559.83,403.226)">
                <path d="M0,39.857C-0.452,39.879 -0.837,39.53 -0.858,39.078C-0.86,39.051 -0.86,39.024 -0.858,38.997L-0.858,0.858C-0.881,0.406 -0.532,0.021 -0.08,-0.001C-0.053,-0.002 -0.026,-0.002 0,-0.001L38.14,-0.001C38.593,-0.022 38.978,0.327 38.999,0.78C39,0.806 39,0.832 38.999,0.858L38.999,38.997C39.021,39.45 38.672,39.835 38.219,39.857C38.192,39.858 38.166,39.858 38.14,39.857L0,39.857Z" style="fill:white;fill-rule:nonzero;"/>
            </g>
            <g transform="matrix(1,0,0,1,1597.97,443.318)">
                <path d="M0,-40.319L-38.14,-40.319C-38.729,-40.332 -39.217,-39.865 -39.229,-39.276C-39.23,-39.26 -39.23,-39.244 -39.229,-39.229L-39.229,-1.09C-39.242,-0.5 -38.774,-0.012 -38.185,0L0,0C0.589,0.013 1.077,-0.455 1.089,-1.045C1.09,-1.06 1.09,-1.075 1.089,-1.09L1.089,-39.229C1.102,-39.818 0.635,-40.306 0.046,-40.319L0,-40.319M0.001,-39.858C0.324,-39.882 0.605,-39.638 0.629,-39.315C0.632,-39.286 0.632,-39.257 0.629,-39.229L0.629,-1.09C0.653,-0.767 0.411,-0.485 0.088,-0.461C0.059,-0.459 0.03,-0.459 0.001,-0.461L-38.14,-0.461C-38.464,-0.437 -38.745,-0.681 -38.769,-1.005C-38.771,-1.033 -38.771,-1.062 -38.769,-1.09L-38.769,-39.229C-38.793,-39.552 -38.55,-39.834 -38.227,-39.858C-38.198,-39.86 -38.169,-39.86 -38.14,-39.858L0,-39.858" style="fill:rgb(97,196,232);fill-rule:nonzero;"/>
            </g>
            <g transform="matrix(1,0,0,1,1595.63,431.506)">
                <path d="M0,3.021C-0.027,2.021 -0.027,1.314 -0.027,0.312C-0.027,-0.939 -0.006,-2.188 0,-3.439L-0.921,-3.439L-0.921,-0.344C-1.009,-0.461 -1.106,-0.571 -1.213,-0.672C-1.564,-0.98 -2.017,-1.147 -2.483,-1.14C-3.102,-1.143 -3.692,-0.887 -4.112,-0.433C-4.609,0.155 -4.862,0.912 -4.819,1.681C-4.816,2.067 -4.746,2.45 -4.612,2.812C-4.314,3.685 -3.483,4.262 -2.562,4.238C-2.051,4.245 -1.558,4.054 -1.185,3.706C-1.062,3.595 -0.955,3.468 -0.865,3.33L-0.825,4.118L0.042,4.118C0.019,3.707 0.016,3.429 0,3.018M-0.901,1.586C-0.902,1.829 -0.937,2.071 -1.007,2.305C-1.168,2.952 -1.74,3.413 -2.407,3.433C-2.958,3.426 -3.451,3.092 -3.662,2.583C-3.81,2.251 -3.875,1.889 -3.852,1.527C-3.853,1.254 -3.808,0.984 -3.718,0.727C-3.552,0.115 -3.001,-0.314 -2.367,-0.325C-1.719,-0.299 -1.166,0.152 -1.011,0.782C-0.936,1.042 -0.899,1.312 -0.905,1.582M-5.465,-0.268C-5.25,-0.266 -5.038,-0.224 -4.839,-0.145L-4.839,-1.051C-4.886,-1.051 -5.164,-1.094 -5.396,-1.094C-5.86,-1.115 -6.308,-0.919 -6.608,-0.565C-6.702,-0.44 -6.787,-0.31 -6.862,-0.174L-6.908,-1.034L-7.779,-1.034C-7.749,-0.387 -7.733,0.066 -7.733,0.701L-7.733,4.126L-6.799,4.126L-6.799,1.596C-6.837,1.016 -6.635,0.445 -6.239,0.019C-6.025,-0.174 -5.747,-0.278 -5.459,-0.272M-9.61,4.126L-8.822,4.126L-8.822,0.526C-8.843,0.215 -8.931,-0.089 -9.081,-0.363C-9.463,-0.894 -10.096,-1.185 -10.748,-1.131C-11.191,-1.137 -11.632,-1.05 -12.04,-0.874C-12.155,-0.814 -12.239,-0.755 -12.366,-0.695L-12.366,0.116C-11.935,-0.167 -11.438,-0.335 -10.923,-0.373C-10.434,-0.4 -9.979,-0.122 -9.78,0.327C-9.717,0.548 -9.686,0.778 -9.688,1.008C-9.927,0.996 -10.181,0.987 -10.429,0.987C-10.984,0.955 -11.541,1.047 -12.057,1.258C-12.626,1.479 -13,2.03 -12.993,2.641C-12.993,2.742 -12.981,2.843 -12.96,2.941C-12.91,3.29 -12.737,3.609 -12.473,3.841C-12.163,4.075 -11.787,4.202 -11.4,4.205C-10.959,4.232 -10.522,4.111 -10.157,3.862C-9.956,3.7 -9.772,3.516 -9.61,3.314L-9.61,4.126ZM-9.665,1.802C-9.655,2.038 -9.683,2.274 -9.744,2.502C-9.793,2.662 -9.871,2.812 -9.975,2.943C-10.216,3.291 -10.614,3.495 -11.037,3.49C-11.524,3.546 -11.966,3.197 -12.021,2.709C-12.023,2.694 -12.024,2.678 -12.025,2.663C-12.025,2.063 -11.498,1.805 -11.037,1.692C-10.813,1.652 -10.586,1.633 -10.358,1.637C-10.128,1.637 -9.896,1.644 -9.665,1.664L-9.665,1.802ZM-14.574,4.202C-14.145,4.213 -13.719,4.121 -13.332,3.934L-13.4,3.104C-13.735,3.273 -14.103,3.368 -14.478,3.382C-14.703,3.386 -14.928,3.337 -15.132,3.241C-15.772,2.894 -16.153,2.206 -16.106,1.478C-16.146,0.819 -15.807,0.195 -15.231,-0.131C-14.957,-0.282 -14.646,-0.354 -14.332,-0.341C-14.053,-0.323 -13.78,-0.248 -13.532,-0.12L-13.483,-0.959C-13.806,-1.059 -14.14,-1.119 -14.477,-1.137C-15.277,-1.189 -16.05,-0.833 -16.531,-0.192C-16.912,0.337 -17.099,0.98 -17.06,1.63C-17.136,2.973 -16.109,4.123 -14.767,4.199C-14.702,4.203 -14.637,4.204 -14.572,4.202M-18.381,3.554C-17.86,2.99 -17.587,2.241 -17.622,1.475C-17.591,0.506 -18.099,-0.4 -18.941,-0.88C-20.153,-1.436 -21.59,-1.024 -22.323,0.089C-22.562,0.541 -22.687,1.045 -22.682,1.557C-22.731,2.333 -22.439,3.091 -21.882,3.633C-21.778,3.722 -21.669,3.802 -21.553,3.873C-21.136,4.126 -20.652,4.247 -20.166,4.22C-19.792,4.233 -19.42,4.166 -19.075,4.02C-18.817,3.909 -18.581,3.751 -18.381,3.555M-18.582,1.493C-18.536,2.198 -18.866,2.875 -19.449,3.274C-19.864,3.5 -20.361,3.515 -20.79,3.315C-20.878,3.268 -20.963,3.213 -21.043,3.152C-21.261,2.971 -21.43,2.738 -21.532,2.474C-21.661,2.157 -21.72,1.815 -21.703,1.474C-21.715,0.913 -21.487,0.373 -21.078,-0.011C-20.796,-0.253 -20.437,-0.384 -20.064,-0.38C-19.458,-0.374 -18.923,0.021 -18.736,0.598C-18.634,0.885 -18.581,1.187 -18.581,1.492M-23.326,-0.267C-23.111,-0.265 -22.899,-0.223 -22.701,-0.144L-22.701,-1.05C-22.747,-1.05 -23.024,-1.093 -23.256,-1.093C-23.721,-1.114 -24.17,-0.919 -24.472,-0.564C-24.564,-0.439 -24.648,-0.309 -24.724,-0.173L-24.771,-1.033L-25.639,-1.033C-25.61,-0.386 -25.588,0.067 -25.588,0.702C-25.588,1.45 -25.602,1.977 -25.602,2.718L-25.602,4.127L-24.665,4.127L-24.665,1.596C-24.705,1.015 -24.502,0.444 -24.105,0.019C-23.892,-0.174 -23.613,-0.278 -23.325,-0.272M-27.665,-2.261L-26.671,-2.261L-26.671,-3.28L-27.665,-3.28L-27.665,-2.261ZM-29.181,5.568C-28.803,4.931 -28.647,4.187 -28.739,3.452L-28.75,-1.037L-29.614,-1.037L-29.614,-0.237C-29.728,-0.419 -29.868,-0.583 -30.031,-0.723C-30.378,-1.006 -30.817,-1.153 -31.265,-1.135C-31.664,-1.133 -32.055,-1.019 -32.392,-0.804C-32.632,-0.65 -32.839,-0.449 -32.998,-0.212C-33.353,0.317 -33.532,0.944 -33.51,1.581C-33.515,1.95 -33.463,2.316 -33.356,2.669C-33.229,3.109 -32.978,3.503 -32.634,3.805C-32.249,4.119 -31.759,4.272 -31.264,4.234C-30.815,4.217 -30.384,4.06 -30.029,3.786C-29.896,3.673 -29.78,3.542 -29.683,3.397L-29.689,4.105C-29.697,4.338 -29.737,4.57 -29.81,4.792C-29.859,4.937 -29.937,5.07 -30.041,5.183C-30.342,5.507 -30.774,5.675 -31.215,5.64C-31.661,5.638 -32.104,5.564 -32.528,5.421C-32.705,5.354 -32.876,5.271 -33.038,5.173L-33.138,6.073C-32.993,6.131 -32.886,6.173 -32.731,6.224C-32.26,6.368 -31.77,6.442 -31.277,6.442C-30.765,6.46 -30.257,6.347 -29.801,6.112C-29.557,5.98 -29.346,5.796 -29.183,5.572M-29.643,1.577C-29.637,1.967 -29.741,2.351 -29.942,2.685C-30.287,3.342 -31.099,3.595 -31.756,3.251C-31.87,3.191 -31.975,3.115 -32.066,3.026C-32.411,2.609 -32.579,2.075 -32.537,1.536C-32.582,0.954 -32.361,0.382 -31.937,-0.018C-31.72,-0.229 -31.43,-0.347 -31.128,-0.348C-30.815,-0.34 -30.514,-0.229 -30.271,-0.031C-29.851,0.396 -29.623,0.978 -29.644,1.577M-26.693,-1.037L-27.601,-1.037L-27.601,4.124L-26.693,4.124L-26.693,-1.037Z" style="fill:rgb(0,75,149);fill-rule:nonzero;"/>
            </g>
            <g transform="matrix(1,0,0,1,1579.65,417.289)">
                <path d="M0,-1.374C-0.014,-1.524 -0.101,-1.574 -0.187,-1.574L-1.888,-1.574C-1.987,-1.574 -2.062,-1.534 -2.076,-1.345L-2.137,0C-2.142,0.105 -2.061,0.195 -1.955,0.2L-0.121,0.2C-0.017,0.189 0.062,0.099 0.058,-0.007L0,-1.374ZM-1.142,-0.161C-1.242,-0.164 -1.343,-0.178 -1.441,-0.201C-1.435,-0.249 -1.431,-0.296 -1.43,-0.345C-1.343,-0.314 -1.253,-0.298 -1.161,-0.298C-1.034,-0.298 -0.85,-0.343 -0.85,-0.525C-0.85,-0.725 -1.062,-0.754 -1.176,-0.754C-1.219,-0.755 -1.261,-0.753 -1.303,-0.748C-1.342,-0.741 -1.379,-0.731 -1.416,-0.719L-1.416,-1.274L-0.69,-1.274L-0.69,-1.162L-1.239,-1.162L-1.239,-0.879C-1.234,-0.874 -1.202,-0.879 -1.178,-0.884L-1.09,-0.884C-0.885,-0.884 -0.64,-0.784 -0.64,-0.527C-0.64,-0.227 -0.981,-0.157 -1.14,-0.157" style="fill:rgb(0,75,149);fill-rule:nonzero;"/>
            </g>
            <g transform="matrix(1,0,0,1,1582.23,417.252)">
                <path d="M0,-1.303C-0.009,-1.424 -0.103,-1.523 -0.224,-1.538L-1.923,-1.538C-2.013,-1.532 -2.083,-1.46 -2.085,-1.371L-1.985,0.035C-1.975,0.146 -1.884,0.231 -1.772,0.235L0.059,0.235C0.147,0.233 0.219,0.163 0.224,0.075C0.224,0.059 0.063,-0.846 0.002,-1.301M-0.897,-0.123C-1.277,-0.123 -1.397,-0.46 -1.397,-0.74C-1.397,-1.053 -1.278,-1.258 -0.915,-1.258C-0.825,-1.255 -0.735,-1.24 -0.648,-1.214C-0.648,-1.174 -0.658,-1.133 -0.661,-1.087C-0.734,-1.118 -0.812,-1.134 -0.892,-1.134C-1.072,-1.134 -1.203,-1.05 -1.221,-0.805L-1.221,-0.74C-1.183,-0.818 -1.015,-0.857 -0.937,-0.857C-0.707,-0.864 -0.514,-0.686 -0.5,-0.457C-0.5,-0.198 -0.718,-0.124 -0.9,-0.124" style="fill:rgb(0,75,149);fill-rule:nonzero;"/>
            </g>
            <g transform="matrix(1,0,0,1,1581.27,417.003)">
                <path d="M0,-0.479C-0.11,-0.489 -0.207,-0.407 -0.217,-0.297C-0.218,-0.285 -0.218,-0.273 -0.217,-0.261C-0.21,-0.117 -0.093,-0.002 0.052,0.002C0.162,0.01 0.258,-0.073 0.266,-0.183C0.267,-0.193 0.267,-0.204 0.266,-0.214C0.262,-0.359 0.145,-0.476 0,-0.479" style="fill:rgb(0,75,149);fill-rule:nonzero;"/>
            </g>
            <g transform="matrix(1,0,0,1,1576.72,420.141)">
                <path d="M0,-2.169L-1.862,-2.169C-2.063,-2.169 -2.082,-2.054 -2.098,-1.936C-2.119,-1.785 -2.36,-0.305 -2.364,-0.289C-2.392,-0.12 -2.303,0.004 -2.193,0.004L-0.172,0.004C0.018,-0.002 0.053,-0.137 0.071,-0.296L0.186,-1.982C0.186,-2.086 0.104,-2.17 0,-2.173M-0.521,-1.711L-1.222,-0.435L-1.459,-0.435L-0.751,-1.635L-1.45,-1.635C-1.444,-1.7 -1.438,-1.744 -1.432,-1.787L-0.531,-1.787L-0.521,-1.711Z" style="fill:rgb(0,75,149);fill-rule:nonzero;"/>
            </g>
            <g transform="matrix(1,0,0,1,1579.75,419.952)">
                <path d="M0,-1.773C-0.011,-1.881 -0.098,-1.965 -0.206,-1.973L-2.075,-1.973C-2.177,-1.961 -2.259,-1.883 -2.274,-1.782L-2.356,-0.032C-2.356,0.089 -2.264,0.189 -2.144,0.2L-0.123,0.2C-0.002,0.187 0.089,0.083 0.084,-0.038L0,-1.773ZM-1.145,-0.246C-1.345,-0.246 -1.645,-0.352 -1.645,-0.635C-1.645,-0.811 -1.523,-0.922 -1.321,-1.009C-1.501,-1.091 -1.571,-1.176 -1.571,-1.309C-1.571,-1.575 -1.29,-1.628 -1.128,-1.628C-0.966,-1.628 -0.661,-1.587 -0.661,-1.32C-0.682,-1.172 -0.782,-1.049 -0.923,-0.999C-0.754,-0.951 -0.636,-0.799 -0.63,-0.624C-0.63,-0.316 -0.95,-0.241 -1.146,-0.241" style="fill:rgb(0,75,149);fill-rule:nonzero;"/>
            </g>
            <g transform="matrix(0.999478,0.0323157,0.0323157,-0.999478,1578.62,418.887)">
                <path d="M0.007,0C0.098,0.003 0.253,0.183 0.252,0.259C0.247,0.398 0.095,0.436 0.007,0.433C-0.081,0.43 -0.246,0.394 -0.241,0.251C-0.239,0.167 -0.083,-0.003 0.007,0" style="fill:rgb(0,75,149);fill-rule:nonzero;"/>
            </g>
            <g transform="matrix(1,0,0,1,1578.61,419.569)">
                <path d="M0,-0.542C-0.122,-0.542 -0.29,-0.342 -0.29,-0.253C-0.277,-0.107 -0.149,0 -0.003,-0.012L0,-0.012C0.115,-0.012 0.3,-0.065 0.3,-0.242C0.273,-0.396 0.153,-0.516 0,-0.542" style="fill:rgb(0,75,149);fill-rule:nonzero;"/>
            </g>
            <g transform="matrix(1,0,0,1,1582.59,419.959)">
                <path d="M0,-1.798C-0.014,-1.908 -0.11,-1.988 -0.221,-1.983L-2.089,-1.983C-2.188,-1.977 -2.269,-1.898 -2.275,-1.798C-2.275,-1.782 -2.148,-0.132 -2.148,-0.132C-2.133,0.041 -2.104,0.19 -1.91,0.19L0.11,0.19C0.216,0.184 0.297,0.095 0.292,-0.01C0.292,-0.023 0.103,-1.31 0.001,-1.797M-0.558,-0.736C-0.556,-0.469 -0.77,-0.251 -1.036,-0.249C-1.056,-0.249 -1.074,-0.25 -1.094,-0.252C-1.195,-0.252 -1.297,-0.269 -1.394,-0.302C-1.389,-0.397 -1.383,-0.431 -1.38,-0.469C-1.295,-0.435 -1.206,-0.415 -1.115,-0.41C-0.908,-0.416 -0.744,-0.589 -0.75,-0.796C-0.75,-0.808 -0.751,-0.819 -0.753,-0.831C-0.751,-0.86 -0.755,-0.888 -0.762,-0.915C-0.823,-0.821 -0.932,-0.769 -1.044,-0.781C-1.306,-0.767 -1.529,-0.968 -1.543,-1.23C-1.543,-1.239 -1.544,-1.249 -1.544,-1.258C-1.544,-1.536 -1.325,-1.639 -1.105,-1.639C-0.729,-1.639 -0.595,-1.339 -0.554,-0.939C-0.542,-0.871 -0.542,-0.8 -0.554,-0.732" style="fill:rgb(0,75,149);fill-rule:nonzero;"/>
            </g>
            <g transform="matrix(1,0,0,1,1581.5,419.023)">
                <path d="M0,-0.563C-0.125,-0.572 -0.233,-0.478 -0.242,-0.353C-0.243,-0.34 -0.243,-0.328 -0.242,-0.316C-0.242,-0.15 -0.116,-0.012 0.049,0.003C0.174,0.009 0.28,-0.087 0.286,-0.212C0.286,-0.222 0.286,-0.232 0.285,-0.242C0.298,-0.408 0.174,-0.551 0.009,-0.564L0,-0.564" style="fill:rgb(0,75,149);fill-rule:nonzero;"/>
            </g>
            <g transform="matrix(1,0,0,1,1585.65,412.948)">
                <path d="M0,11.89L-2.845,0.007L-2.856,0.007L-2.856,0L-4.127,0L-4.127,0.194L-4.114,0.194L-4.114,0.201L-3.051,0.201L-0.306,11.665L-13.717,11.659L-10.994,0.201L-9.914,0.201L-9.914,0.007L-9.927,0.007L-9.927,0L-11.198,0L-14.046,11.878L-14.032,11.878L-14.032,11.885L0,11.89Z" style="fill:rgb(0,75,149);fill-rule:nonzero;"/>
            </g>
            <g transform="matrix(1,0,0,1,1581.21,413.492)">
                <path d="M0,-5.088C-0.065,-5.118 -0.136,-5.134 -0.208,-5.135L-4.973,-5.135C-5.256,-5.134 -5.484,-4.905 -5.484,-4.622L-5.484,0.039L-5.472,0.039L-5.472,0.046L-5.125,0.046L-5.125,-4.615C-5.125,-4.707 -5.051,-4.781 -4.959,-4.782L-4.087,-4.782L-4.087,-1.391L-5.065,-1.391L-3.747,0.034L-3.74,0.034L-3.734,0.041L-1.418,0.041L-0.101,-1.384L-0.12,-1.384L-0.113,-1.391L-1.078,-1.391L-1.078,-4.782L-0.192,-4.782C-0.155,-4.779 -0.12,-4.763 -0.093,-4.737C-0.062,-4.706 -0.045,-4.665 -0.045,-4.621L-0.045,0.04L-0.031,0.04L-0.031,0.047L0.314,0.047L0.314,-4.614C0.314,-4.821 0.19,-5.007 0,-5.088" style="fill:rgb(97,196,232);fill-rule:nonzero;"/>
            </g>
            <g transform="matrix(1,0,0,1,1576.57,423.452)">
                <path d="M0,-2.686C-0.031,-2.703 -0.065,-2.712 -0.101,-2.713L-2.134,-2.713C-2.282,-2.703 -2.389,-2.651 -2.407,-2.486C-2.426,-2.296 -2.776,-0.243 -2.779,-0.227C-2.788,-0.135 -2.74,-0.047 -2.659,-0.003C-2.63,0.017 -2.595,0.027 -2.559,0.027L-0.281,0.027C-0.135,0.027 -0.005,-0.168 -0.008,-0.299L0.146,-2.473C0.141,-2.566 0.085,-2.648 0,-2.686" style="fill:rgb(0,75,149);fill-rule:nonzero;"/>
            </g>
            <g transform="matrix(1,0,0,1,1583.06,423.219)">
                <path d="M0,-2.221C-0.001,-2.328 -0.07,-2.424 -0.173,-2.457C-0.212,-2.472 -0.254,-2.48 -0.297,-2.48L-2.331,-2.48C-2.456,-2.48 -2.558,-2.379 -2.557,-2.254C-2.557,-2.245 -2.557,-2.237 -2.556,-2.228C-2.556,-2.228 -2.388,0.038 -2.4,-0.028C-2.399,0.086 -2.332,0.188 -2.229,0.234C-2.193,0.25 -2.155,0.258 -2.116,0.259L0.148,0.259C0.283,0.259 0.354,0.113 0.354,0.011C0.355,-0.003 0.082,-1.51 0,-2.221" style="fill:rgb(0,75,149);fill-rule:nonzero;"/>
            </g>
            <g transform="matrix(1,0,0,1,1578.7,422.704)">
                <path d="M0,-1.32C-0.028,-1.334 -0.061,-1.341 -0.092,-1.342C-0.373,-1.342 -0.4,-0.97 -0.407,-0.683C-0.413,-0.422 -0.388,-0.083 -0.188,-0.002C-0.155,0.014 -0.119,0.022 -0.083,0.022C0.194,0.022 0.229,-0.394 0.229,-0.704C0.226,-0.945 0.176,-1.25 0,-1.32" style="fill:rgb(0,75,149);fill-rule:nonzero;"/>
            </g>
            <g transform="matrix(1,0,0,1,1578.6,421.304)">
                <path d="M0,1.615C-0.091,1.618 -0.182,1.598 -0.264,1.558C-0.477,1.438 -0.548,1.158 -0.554,0.763C-0.562,0.582 -0.536,0.401 -0.478,0.23C-0.37,-0.056 -0.052,-0.201 0.234,-0.094C0.271,-0.08 0.306,-0.063 0.338,-0.042C0.422,0.027 0.482,0.118 0.513,0.222C0.561,0.386 0.584,0.557 0.581,0.728C0.591,1.226 0.455,1.615 0,1.615M1.31,0.229L1.288,-0.249C1.297,-0.365 1.235,-0.474 1.134,-0.529C1.1,-0.55 1.061,-0.561 1.021,-0.562L-1.019,-0.562C-1.143,-0.554 -1.245,-0.463 -1.268,-0.341L-1.292,0.222L-1.368,1.872C-1.367,1.976 -1.318,2.074 -1.236,2.138C-1.203,2.163 -1.162,2.177 -1.12,2.177L1.151,2.177C1.315,2.177 1.388,1.977 1.388,1.877L1.31,0.229Z" style="fill:rgb(0,75,149);fill-rule:nonzero;"/>
            </g>
            <g transform="matrix(1,0,0,1,1580.69,414.282)">
                <path d="M0,0.58C0.062,0.599 0.128,0.613 0.193,0.621C0.266,0.627 0.284,0.627 0.3,0.627C0.377,0.627 0.551,0.619 0.551,0.473C0.547,0.405 0.501,0.348 0.436,0.328C0.382,0.302 0.323,0.288 0.263,0.285L0.117,0.285C0.118,0.252 0.118,0.218 0.117,0.185L0.251,0.185C0.312,0.185 0.487,0.142 0.487,0.048C0.484,-0.015 0.439,-0.069 0.377,-0.081C0.324,-0.099 0.27,-0.108 0.214,-0.108C0.133,-0.104 0.052,-0.09 -0.026,-0.068C-0.034,-0.098 -0.04,-0.129 -0.043,-0.16C0.015,-0.181 0.074,-0.193 0.136,-0.198C0.202,-0.202 0.269,-0.202 0.336,-0.198C0.405,-0.195 0.474,-0.176 0.535,-0.144C0.608,-0.11 0.656,-0.039 0.66,0.041C0.66,0.154 0.561,0.205 0.435,0.23L0.453,0.235L0.447,0.235C0.485,0.242 0.522,0.252 0.559,0.266C0.658,0.296 0.729,0.385 0.734,0.489C0.734,0.702 0.396,0.729 0.312,0.729C0.21,0.726 0.109,0.712 0.012,0.687L0,0.58ZM1.2,-0.338C1.188,-0.375 1.16,-0.405 1.124,-0.418C1.083,-0.44 1.037,-0.452 0.99,-0.451L-0.51,-0.451C-0.568,-0.451 -0.691,-0.412 -0.691,-0.31L-0.612,0.82C-0.612,0.888 -0.582,0.951 -0.53,0.994C-0.498,1.019 -0.457,1.032 -0.416,1.029L1.268,1.029C1.343,1.031 1.405,0.971 1.407,0.895L1.407,0.888C1.411,0.874 1.275,0.07 1.2,-0.338" style="fill:rgb(0,75,149);fill-rule:nonzero;"/>
            </g>
            <g transform="matrix(1,0,0,1,1578.23,414.267)">
                <path d="M0,0.601C0.049,0.57 0.556,0.273 0.556,0.08C0.557,0.022 0.518,-0.03 0.462,-0.045C0.416,-0.063 0.367,-0.072 0.318,-0.072C0.23,-0.068 0.143,-0.05 0.061,-0.019C0.054,-0.054 0.048,-0.087 0.042,-0.119C0.148,-0.15 0.259,-0.168 0.37,-0.17C0.449,-0.17 0.528,-0.154 0.601,-0.121C0.678,-0.084 0.726,-0.006 0.726,0.079C0.726,0.315 0.294,0.514 0.161,0.638L0.183,0.638L0.174,0.645L0.756,0.645L0.756,0.745L-0.003,0.745L0,0.601ZM1.325,-0.285C1.322,-0.336 1.29,-0.379 1.242,-0.398C1.203,-0.42 1.159,-0.433 1.113,-0.435L-0.387,-0.435C-0.484,-0.443 -0.57,-0.371 -0.579,-0.274L-0.579,-0.273L-0.636,0.874C-0.631,0.938 -0.593,0.995 -0.535,1.023C-0.515,1.037 -0.49,1.043 -0.465,1.044L1.221,1.044C1.301,1.035 1.365,0.973 1.377,0.893L1.325,-0.285Z" style="fill:rgb(0,75,149);fill-rule:nonzero;"/>
            </g>
            <g transform="matrix(1,0,0,1,1576.3,414.132)">
                <path d="M0,0.879L-0.162,0.879L-0.07,0.125L-0.085,0.132L-0.085,0.118C-0.146,0.147 -0.265,0.21 -0.274,0.218L-0.348,0.15L-0.026,-0.022L0.098,-0.022L0,0.879ZM0.801,-0.281C0.771,-0.295 0.739,-0.302 0.707,-0.301L-0.793,-0.301C-0.939,-0.301 -0.983,-0.257 -0.992,-0.183C-1.066,0.217 -1.187,1.017 -1.192,1.032C-1.204,1.076 -1.187,1.123 -1.148,1.148C-1.118,1.171 -1.08,1.181 -1.043,1.179L0.643,1.179C0.711,1.179 0.799,1.147 0.816,0.994C0.816,1.057 0.891,-0.117 0.891,-0.117C0.9,-0.185 0.863,-0.252 0.801,-0.281" style="fill:rgb(0,75,149);fill-rule:nonzero;"/>
            </g>
            <g transform="matrix(1,0,0,1,1576.21,416.446)">
                <path d="M0,0.293L0,0.3L0.146,0.3C0.144,0.343 0.144,0.386 0.146,0.429L-0.02,0.429C-0.03,0.506 -0.042,0.585 -0.05,0.672L-0.229,0.672L-0.207,0.436L-0.22,0.436L-0.22,0.429L-0.773,0.429C-0.769,0.381 -0.756,0.296 -0.756,0.296C-0.756,0.296 -0.355,-0.184 -0.145,-0.422L0.056,-0.422L-0.017,0.293L0,0.293ZM0.856,-0.577C0.851,-0.641 0.809,-0.696 0.749,-0.72C0.729,-0.732 0.705,-0.739 0.681,-0.74L-1.02,-0.74C-1.118,-0.744 -1.207,-0.68 -1.234,-0.585C-1.292,-0.442 -1.446,0.789 -1.45,0.805C-1.465,0.89 -1.425,0.975 -1.35,1.016C-1.33,1.029 -1.307,1.036 -1.283,1.037L0.548,1.037C0.665,1.037 0.735,0.967 0.754,0.837C0.749,0.9 0.856,-0.577 0.856,-0.577" style="fill:rgb(0,75,149);fill-rule:nonzero;"/>
            </g>
            <g transform="matrix(1,0,0,1,1576.09,416.752)">
                <path d="M0,-0.583L-0.456,-0.007L-0.437,-0.007L-0.441,0L-0.051,0L0.015,-0.576L-0.002,-0.556L0,-0.583Z" style="fill:rgb(0,75,149);fill-rule:nonzero;"/>
            </g>
        </g>
    </g>
</svg>
