<?xml version="1.0" encoding="UTF-8" standalone="no"?>
<!DOCTYPE svg PUBLIC "-//W3C//DTD SVG 1.1//EN" "http://www.w3.org/Graphics/SVG/1.1/DTD/svg11.dtd">
<svg width="100%" height="100%" viewBox="0 0 52 40" version="1.1" xmlns="http://www.w3.org/2000/svg" xmlns:xlink="http://www.w3.org/1999/xlink" xml:space="preserve" xmlns:serif="http://www.serif.com/" style="fill-rule:evenodd;clip-rule:evenodd;stroke-linejoin:round;stroke-miterlimit:2;">
    <g transform="matrix(1,0,0,1,-1141.46,-403.541)">
        <g>
            <g transform="matrix(-1,0,0,1,2333.92,-241.387)">
                <rect x="1160.06" y="648.302" width="13.791" height="24.783" style="fill:rgb(108,107,189);"/>
            </g>
            <g transform="matrix(1,0,0,1,1160.94,418.416)">
                <path d="M0,0.887C-0.005,-3.949 2.215,-8.519 6.02,-11.505C-0.824,-16.884 -10.732,-15.697 -16.111,-8.853C-21.49,-2.009 -20.304,7.899 -13.46,13.278C-7.744,17.771 0.304,17.771 6.02,13.278C2.215,10.292 -0.005,5.723 0,0.887" style="fill:rgb(211,32,17);fill-rule:nonzero;"/>
            </g>
            <g transform="matrix(1,0,0,1,1192.46,417.293)">
                <path d="M0,2.01C0,10.715 -7.058,17.771 -15.762,17.77C-19.294,17.77 -22.723,16.583 -25.5,14.401C-18.656,9.021 -17.47,-0.888 -22.85,-7.732C-23.624,-8.718 -24.515,-9.607 -25.5,-10.382C-18.656,-15.761 -8.748,-14.573 -3.369,-7.729C-1.187,-4.952 0,-1.522 0,2.01" style="fill:rgb(0,153,223);fill-rule:nonzero;"/>
            </g>
            <g transform="matrix(1,0,0,1,1156.44,437.716)">
                <path d="M0,5.272L0,2.646C0.06,1.788 -0.589,1.043 -1.447,0.984C-1.514,0.98 -1.58,0.979 -1.646,0.983C-2.235,0.944 -2.799,1.23 -3.117,1.727C-3.407,1.244 -3.938,0.959 -4.501,0.983C-4.991,0.959 -5.457,1.194 -5.727,1.604L-5.727,1.087L-6.637,1.087L-6.637,5.272L-5.718,5.272L-5.718,2.952C-5.792,2.417 -5.418,1.922 -4.882,1.848C-4.819,1.839 -4.757,1.836 -4.693,1.84C-4.094,1.84 -3.782,2.234 -3.782,2.94L-3.782,5.269L-2.864,5.269L-2.864,2.949C-2.934,2.408 -2.551,1.913 -2.01,1.844C-1.953,1.836 -1.896,1.834 -1.84,1.837C-1.218,1.837 -0.921,2.231 -0.921,2.937L-0.921,5.266L0,5.272ZM5.129,5.277L5.129,1.087L4.22,1.087L4.22,1.596C3.904,1.189 3.411,0.961 2.897,0.983C1.683,0.983 0.697,1.968 0.697,3.183C0.697,4.398 1.683,5.383 2.897,5.383C3.412,5.404 3.904,5.175 4.22,4.769L4.22,5.277L5.129,5.277ZM1.741,3.18C1.781,2.481 2.38,1.947 3.078,1.987C3.777,2.026 4.312,2.625 4.271,3.324C4.233,3.993 3.682,4.516 3.012,4.519C2.318,4.528 1.748,3.973 1.739,3.28C1.738,3.246 1.739,3.213 1.741,3.18M25.405,0.98C25.714,0.977 26.02,1.034 26.306,1.149C26.572,1.255 26.816,1.414 27.022,1.614C27.226,1.813 27.388,2.051 27.497,2.314C27.726,2.876 27.726,3.507 27.497,4.07C27.387,4.333 27.226,4.57 27.022,4.77C26.816,4.97 26.572,5.128 26.306,5.234C25.727,5.458 25.085,5.458 24.506,5.234C24.239,5.128 23.996,4.97 23.79,4.77C23.589,4.57 23.428,4.332 23.318,4.07C23.09,3.507 23.09,2.876 23.318,2.314C23.428,2.051 23.588,1.814 23.79,1.614C23.996,1.413 24.239,1.255 24.506,1.149C24.792,1.034 25.098,0.977 25.405,0.98M25.405,1.845C25.228,1.844 25.05,1.878 24.885,1.945C24.729,2.007 24.587,2.102 24.468,2.221C24.348,2.343 24.253,2.488 24.189,2.647C24.057,2.999 24.057,3.388 24.189,3.74C24.253,3.899 24.348,4.044 24.468,4.166C24.587,4.285 24.729,4.379 24.885,4.442C25.221,4.573 25.593,4.573 25.929,4.442C26.248,4.314 26.501,4.062 26.629,3.742C26.763,3.39 26.763,3.001 26.629,2.649C26.501,2.33 26.248,2.076 25.929,1.949C25.763,1.882 25.586,1.848 25.406,1.849L25.405,1.845ZM14.178,2.154C13.782,1.925 13.334,1.802 12.878,1.795C12.378,1.795 12.077,1.979 12.077,2.286C12.077,2.566 12.393,2.645 12.786,2.697L13.215,2.758C14.127,2.891 14.677,3.276 14.677,4.011C14.677,4.811 13.977,5.377 12.769,5.377C12.122,5.395 11.486,5.204 10.956,4.834L11.385,4.124C11.786,4.422 12.277,4.576 12.777,4.562C13.398,4.562 13.731,4.379 13.731,4.054C13.731,3.818 13.494,3.686 12.996,3.617L12.566,3.555C11.631,3.423 11.121,3.003 11.121,2.321C11.121,1.489 11.805,0.981 12.864,0.981C13.464,0.96 14.056,1.112 14.571,1.419L14.178,2.154ZM10.178,3.178C10.284,2.075 9.477,1.094 8.373,0.987C8.312,0.981 8.251,0.978 8.189,0.978C6.978,1.056 6.058,2.102 6.136,3.314C6.208,4.442 7.122,5.331 8.252,5.372C8.876,5.394 9.486,5.185 9.967,4.786L9.52,4.111C9.174,4.388 8.746,4.543 8.303,4.549C7.678,4.601 7.123,4.148 7.051,3.525L10.158,3.525C10.168,3.411 10.177,3.297 10.177,3.175L10.178,3.178ZM7.061,2.81C7.094,2.225 7.588,1.774 8.174,1.794C8.746,1.783 9.22,2.237 9.232,2.81L7.061,2.81ZM18.714,1.917L17.226,1.917L17.226,3.808C17.226,4.228 17.375,4.508 17.826,4.508C18.108,4.498 18.384,4.417 18.626,4.272L18.889,5.05C18.548,5.263 18.153,5.376 17.751,5.375C16.674,5.375 16.299,4.797 16.299,3.824L16.299,1.916L15.449,1.916L15.449,1.084L16.299,1.084L16.299,-0.186L17.217,-0.186L17.217,1.084L18.705,1.084L18.705,1.916L18.714,1.917ZM22.079,0.98C22.299,0.98 22.519,1.019 22.726,1.094L22.444,1.952C22.264,1.88 22.07,1.844 21.876,1.847C21.28,1.847 20.983,2.232 20.983,2.923L20.983,5.27L20.072,5.27L20.072,1.085L20.973,1.085L20.973,1.594C21.2,1.205 21.622,0.97 22.072,0.981L22.079,0.98Z" style="fill:rgb(17,15,13);fill-rule:nonzero;"/>
            </g>
        </g>
    </g>
</svg>
