<?xml version="1.0" encoding="UTF-8" standalone="no"?>
<!DOCTYPE svg PUBLIC "-//W3C//DTD SVG 1.1//EN" "http://www.w3.org/Graphics/SVG/1.1/DTD/svg11.dtd">
<svg width="100%" height="100%" viewBox="0 0 52 40" version="1.1" xmlns="http://www.w3.org/2000/svg" xmlns:xlink="http://www.w3.org/1999/xlink" xml:space="preserve" xmlns:serif="http://www.serif.com/" style="fill-rule:evenodd;clip-rule:evenodd;stroke-linejoin:round;stroke-miterlimit:2;">
    <g transform="matrix(1,0,0,1,-316.54,-406.011)">
        <g>
            <g transform="matrix(1,0,0,1,325.785,439.746)">
                <path d="M0,5.719L0,3.092C0.06,2.234 -0.587,1.489 -1.445,1.429C-1.513,1.425 -1.58,1.424 -1.647,1.428C-2.237,1.389 -2.801,1.675 -3.119,2.173C-3.408,1.69 -3.939,1.404 -4.502,1.428C-4.992,1.404 -5.458,1.639 -5.728,2.049L-5.728,1.533L-6.639,1.533L-6.639,5.719L-5.72,5.719L-5.72,3.399C-5.794,2.863 -5.42,2.368 -4.884,2.294C-4.821,2.285 -4.758,2.282 -4.695,2.286C-4.095,2.286 -3.785,2.68 -3.785,3.386L-3.785,5.715L-2.866,5.715L-2.866,3.395C-2.936,2.854 -2.554,2.359 -2.012,2.289C-1.956,2.281 -1.898,2.28 -1.841,2.282C-1.219,2.282 -0.922,2.676 -0.922,3.382L-0.922,5.711L0,5.719ZM13.609,1.533L12.12,1.533L12.12,0.263L11.201,0.263L11.201,1.533L10.352,1.533L10.352,2.365L11.201,2.365L11.201,4.275C11.201,5.246 11.577,5.825 12.654,5.825C13.056,5.826 13.451,5.714 13.792,5.501L13.53,4.721C13.285,4.867 13.008,4.948 12.724,4.958C12.269,4.958 12.124,4.677 12.124,4.258L12.124,2.367L13.613,2.367L13.609,1.533ZM21.372,1.432C20.92,1.42 20.499,1.655 20.271,2.045L20.271,1.537L19.372,1.537L19.372,5.723L20.282,5.723L20.282,3.377C20.282,2.685 20.582,2.3 21.175,2.3C21.37,2.295 21.563,2.329 21.745,2.4L22.026,1.542C21.817,1.468 21.598,1.429 21.377,1.428M9.628,1.87C9.112,1.564 8.52,1.412 7.921,1.432C6.86,1.432 6.178,1.94 6.178,2.772C6.178,3.455 6.686,3.872 7.623,4.007L8.053,4.068C8.553,4.138 8.788,4.268 8.788,4.506C8.788,4.83 8.455,5.014 7.834,5.014C7.333,5.029 6.843,4.874 6.441,4.576L6.012,5.285C6.542,5.656 7.177,5.846 7.824,5.828C9.033,5.828 9.734,5.259 9.734,4.462C9.734,3.726 9.182,3.341 8.271,3.21L7.843,3.148C7.448,3.096 7.133,3.017 7.133,2.737C7.133,2.43 7.433,2.247 7.933,2.247C8.392,2.254 8.84,2.378 9.238,2.606L9.628,1.87ZM34.021,1.436C33.57,1.424 33.148,1.659 32.921,2.049L32.921,1.541L32.021,1.541L32.021,5.727L32.933,5.727L32.933,3.381C32.933,2.689 33.232,2.304 33.827,2.304C34.021,2.3 34.214,2.334 34.396,2.404L34.677,1.546C34.468,1.471 34.249,1.433 34.028,1.432M22.287,3.635C22.238,4.802 23.144,5.787 24.311,5.836C24.381,5.839 24.45,5.838 24.52,5.834C25.066,5.862 25.603,5.683 26.024,5.334L25.587,4.598C25.272,4.839 24.888,4.971 24.492,4.975C23.802,4.983 23.236,4.43 23.228,3.74C23.228,3.705 23.229,3.67 23.231,3.636C23.182,2.946 23.701,2.347 24.39,2.299C24.424,2.296 24.458,2.295 24.492,2.295C24.888,2.3 25.272,2.432 25.587,2.672L26.024,1.936C25.603,1.588 25.066,1.409 24.52,1.436C23.354,1.369 22.355,2.261 22.288,3.426C22.284,3.496 22.284,3.566 22.287,3.636M30.815,5.73L30.815,1.541L29.906,1.541L29.906,2.049C29.59,1.643 29.097,1.414 28.583,1.436C27.423,1.438 26.484,2.38 26.486,3.54C26.486,3.572 26.487,3.604 26.489,3.636C26.434,4.795 27.328,5.779 28.486,5.834C28.519,5.836 28.55,5.836 28.583,5.836C29.097,5.858 29.59,5.629 29.906,5.222L29.906,5.73L30.815,5.73ZM27.427,3.635C27.38,2.942 27.903,2.344 28.596,2.297C28.629,2.295 28.663,2.294 28.697,2.294C29.39,2.289 29.957,2.848 29.961,3.541C29.961,3.573 29.96,3.603 29.958,3.635C30.005,4.326 29.483,4.925 28.792,4.971C28.76,4.974 28.729,4.974 28.697,4.974C28.003,4.984 27.433,4.429 27.424,3.735C27.423,3.701 27.424,3.668 27.427,3.635M16.437,1.432C15.308,1.407 14.372,2.302 14.346,3.431C14.345,3.498 14.347,3.565 14.352,3.632C14.276,4.77 15.137,5.754 16.275,5.829C16.35,5.834 16.423,5.835 16.498,5.832C17.122,5.854 17.733,5.646 18.214,5.246L17.768,4.573C17.421,4.849 16.993,5.003 16.55,5.011C15.924,5.062 15.37,4.608 15.298,3.984L18.407,3.984C18.416,3.871 18.425,3.757 18.425,3.635C18.531,2.531 17.722,1.55 16.618,1.444C16.558,1.438 16.497,1.435 16.437,1.434M16.419,2.247C16.992,2.236 17.466,2.691 17.479,3.263L15.307,3.263C15.34,2.679 15.833,2.228 16.418,2.247M39.268,3.631L39.268,-0.143L38.359,-0.143L38.359,2.046C38.044,1.64 37.551,1.411 37.038,1.433C35.877,1.435 34.939,2.377 34.941,3.537C34.941,3.569 34.942,3.601 34.943,3.634C34.888,4.792 35.783,5.776 36.941,5.831C36.973,5.833 37.005,5.833 37.038,5.833C37.552,5.855 38.044,5.626 38.359,5.219L38.359,5.727L39.271,5.727L39.268,3.631ZM35.878,3.631C35.832,2.939 36.355,2.341 37.047,2.294C37.081,2.292 37.115,2.291 37.148,2.291C37.842,2.286 38.408,2.844 38.413,3.537C38.413,3.569 38.412,3.6 38.41,3.631C38.457,4.323 37.934,4.922 37.243,4.969C37.211,4.97 37.18,4.971 37.148,4.971C36.455,4.981 35.885,4.426 35.876,3.732C35.875,3.698 35.876,3.665 35.878,3.631M5.123,5.727L5.123,1.538L4.212,1.538L4.212,2.046C3.897,1.64 3.404,1.411 2.89,1.433C1.729,1.435 0.791,2.377 0.793,3.537C0.793,3.569 0.794,3.601 0.795,3.634C0.74,4.792 1.635,5.776 2.793,5.831C2.825,5.832 2.857,5.833 2.89,5.833C3.404,5.855 3.897,5.626 4.212,5.219L4.212,5.727L5.123,5.727ZM1.732,3.631C1.686,2.939 2.209,2.341 2.901,2.294C2.935,2.292 2.969,2.291 3.002,2.291C3.696,2.286 4.262,2.844 4.267,3.537C4.267,3.569 4.266,3.6 4.264,3.631C4.311,4.323 3.788,4.922 3.097,4.969C3.065,4.97 3.034,4.971 3.002,4.971C2.309,4.981 1.739,4.426 1.73,3.732C1.729,3.698 1.73,3.665 1.732,3.631" style="fill:rgb(35,31,32);fill-rule:nonzero;"/>
            </g>
            <g transform="matrix(-1,0,0,1,684.078,-236.432)">
                <rect x="335.142" y="645.821" width="13.794" height="24.79" style="fill:rgb(255,95,0);"/>
            </g>
            <g transform="matrix(1,0,0,1,336.026,421.772)">
                <path d="M0,0.01C-0.006,-4.829 2.214,-9.402 6.021,-12.39C3.245,-14.578 -0.187,-15.766 -3.722,-15.761C-12.429,-15.761 -19.486,-8.702 -19.486,0.005C-19.486,8.712 -12.429,15.77 -3.722,15.771C-0.187,15.776 3.245,14.588 6.021,12.4C2.216,9.413 -0.004,4.843 0,0.005" style="fill:rgb(235,0,27);fill-rule:nonzero;"/>
            </g>
            <g transform="matrix(1,0,0,1,367.541,421.777)">
                <path d="M0,0.005C0,8.712 -7.057,15.77 -15.764,15.771C-19.299,15.776 -22.732,14.588 -25.508,12.4C-21.702,9.414 -19.481,4.842 -19.486,0.005C-19.48,-4.834 -21.701,-9.408 -25.508,-12.395C-22.732,-14.584 -19.299,-15.771 -15.764,-15.766C-7.057,-15.766 0,-8.707 0,0" style="fill:rgb(247,158,27);fill-rule:nonzero;"/>
            </g>
        </g>
    </g>
</svg>
