<?xml version="1.0" encoding="UTF-8" standalone="no"?>
<!DOCTYPE svg PUBLIC "-//W3C//DTD SVG 1.1//EN" "http://www.w3.org/Graphics/SVG/1.1/DTD/svg11.dtd">
<svg width="100%" height="100%" viewBox="0 0 55 15" version="1.1" xmlns="http://www.w3.org/2000/svg" xmlns:xlink="http://www.w3.org/1999/xlink" xml:space="preserve" xmlns:serif="http://www.serif.com/" style="fill-rule:evenodd;clip-rule:evenodd;stroke-linejoin:round;stroke-miterlimit:2;">
    <g transform="matrix(1,0,0,1,-625.995,-192.911)">
        <g>
            <g transform="matrix(1,0,0,1,632.523,207.323)">
                <path d="M0,-14.385L-4.233,-14.385C-4.523,-14.385 -4.771,-14.172 -4.814,-13.885L-6.525,-3.032C-6.553,-2.841 -6.422,-2.662 -6.231,-2.632C-6.212,-2.631 -6.194,-2.631 -6.176,-2.632L-4.155,-2.632C-3.864,-2.633 -3.618,-2.845 -3.574,-3.132L-3.112,-6.06C-3.068,-6.347 -2.822,-6.559 -2.532,-6.56L-1.193,-6.56C1.596,-6.56 3.207,-7.909 3.624,-10.583C3.862,-11.529 3.664,-12.531 3.084,-13.315C2.262,-14.107 1.136,-14.501 -0.001,-14.396M0.491,-10.42C0.26,-8.901 -0.901,-8.901 -2.023,-8.901L-2.659,-8.901L-2.211,-11.737C-2.185,-11.909 -2.037,-12.037 -1.863,-12.037L-1.57,-12.037C-0.806,-12.037 -0.085,-12.037 0.288,-11.602C0.527,-11.258 0.6,-10.825 0.488,-10.421M12.656,-10.469L10.631,-10.469C10.457,-10.469 10.309,-10.342 10.282,-10.169L10.193,-9.603L10.051,-9.803C9.428,-10.442 8.544,-10.756 7.657,-10.654C5.348,-10.604 3.423,-8.869 3.134,-6.577C2.918,-5.479 3.193,-4.341 3.888,-3.463C4.538,-2.749 5.477,-2.37 6.44,-2.433C7.493,-2.424 8.504,-2.843 9.241,-3.595L9.151,-3.031C9.123,-2.84 9.253,-2.661 9.444,-2.631C9.462,-2.63 9.481,-2.63 9.499,-2.631L11.325,-2.631C11.616,-2.631 11.863,-2.843 11.906,-3.131L13.006,-10.069C13.034,-10.262 12.899,-10.441 12.706,-10.469C12.688,-10.47 12.671,-10.47 12.653,-10.469M9.83,-6.524C9.667,-5.393 8.686,-4.562 7.543,-4.588C6.681,-4.498 5.909,-5.125 5.819,-5.987C5.799,-6.179 5.815,-6.373 5.865,-6.559C6.024,-7.688 6.996,-8.523 8.136,-8.51C8.646,-8.537 9.142,-8.335 9.487,-7.958C9.808,-7.554 9.934,-7.029 9.831,-6.524M23.449,-10.469L21.413,-10.469C21.218,-10.469 21.036,-10.372 20.926,-10.211L18.115,-6.073L16.924,-10.05C16.85,-10.299 16.62,-10.47 16.36,-10.47L14.36,-10.47C14.166,-10.47 14.008,-10.314 14.007,-10.119C14.007,-10.08 14.013,-10.04 14.026,-10.003L16.269,-3.419L14.159,-0.443C14.045,-0.284 14.082,-0.064 14.24,0.05C14.3,0.093 14.373,0.116 14.447,0.116L16.482,0.116C16.675,0.116 16.855,0.021 16.965,-0.137L23.739,-9.915C23.851,-10.074 23.812,-10.294 23.653,-10.405C23.593,-10.447 23.522,-10.469 23.449,-10.469" style="fill:rgb(0,47,134);fill-rule:nonzero;"/>
            </g>
            <g transform="matrix(1,0,0,1,662.719,204.851)">
                <path d="M0,-11.902L-4.233,-11.902C-4.524,-11.902 -4.771,-11.69 -4.814,-11.402L-6.526,-0.549C-6.555,-0.358 -6.423,-0.179 -6.232,-0.149C-6.214,-0.148 -6.196,-0.148 -6.178,-0.149L-4.006,-0.149C-3.803,-0.149 -3.631,-0.296 -3.599,-0.496L-3.113,-3.573C-3.07,-3.86 -2.823,-4.072 -2.533,-4.073L-1.194,-4.073C1.594,-4.073 3.206,-5.422 3.623,-8.096C3.86,-9.042 3.662,-10.044 3.083,-10.827C2.261,-11.619 1.134,-12.013 -0.002,-11.908M0.493,-7.937C0.262,-6.418 -0.899,-6.418 -2.021,-6.418L-2.659,-6.418L-2.212,-9.254C-2.186,-9.427 -2.038,-9.554 -1.863,-9.554L-1.57,-9.554C-0.806,-9.554 -0.085,-9.554 0.288,-9.119C0.526,-8.775 0.599,-8.342 0.488,-7.938M12.652,-7.988L10.627,-7.988C10.453,-7.988 10.304,-7.86 10.278,-7.688L10.188,-7.122L10.046,-7.322C9.422,-7.961 8.539,-8.275 7.652,-8.173C5.342,-8.124 3.417,-6.389 3.128,-4.096C2.913,-2.998 3.188,-1.86 3.883,-0.982C4.532,-0.268 5.472,0.111 6.435,0.048C7.489,0.058 8.502,-0.36 9.241,-1.112L9.15,-0.548C9.121,-0.357 9.252,-0.178 9.443,-0.148C9.461,-0.147 9.479,-0.147 9.498,-0.148L11.327,-0.148C11.618,-0.149 11.864,-0.361 11.908,-0.648L13.008,-7.586C13.036,-7.779 12.902,-7.958 12.709,-7.986L12.708,-7.986C12.69,-7.987 12.672,-7.987 12.655,-7.986M9.826,-4.044C9.663,-2.914 8.681,-2.083 7.539,-2.108C6.677,-2.018 5.905,-2.643 5.815,-3.505C5.794,-3.697 5.81,-3.892 5.861,-4.079C6.02,-5.208 6.992,-6.043 8.132,-6.03C8.643,-6.057 9.138,-5.854 9.483,-5.477C9.804,-5.073 9.93,-4.548 9.827,-4.043M15.036,-11.612L13.296,-0.561C13.266,-0.369 13.397,-0.188 13.59,-0.157C13.608,-0.154 13.626,-0.153 13.645,-0.153L15.392,-0.153C15.682,-0.154 15.929,-0.366 15.972,-0.653L17.685,-11.506C17.714,-11.697 17.583,-11.876 17.392,-11.906C17.373,-11.908 17.354,-11.908 17.336,-11.906L15.388,-11.906C15.213,-11.906 15.065,-11.779 15.04,-11.606" style="fill:rgb(0,156,222);fill-rule:nonzero;"/>
            </g>
        </g>
    </g>
</svg>
