<?xml version="1.0" encoding="UTF-8" standalone="no"?>
<!DOCTYPE svg PUBLIC "-//W3C//DTD SVG 1.1//EN" "http://www.w3.org/Graphics/SVG/1.1/DTD/svg11.dtd">
<svg width="100%" height="100%" viewBox="0 0 70 24" version="1.1" xmlns="http://www.w3.org/2000/svg" xmlns:xlink="http://www.w3.org/1999/xlink" xml:space="preserve" xmlns:serif="http://www.serif.com/" style="fill-rule:evenodd;clip-rule:evenodd;stroke-linejoin:round;stroke-miterlimit:2;">
    <g transform="matrix(1,0,0,1,-1234.04,-635.239)">
        <g>
            <g transform="matrix(1,0,0,1,1248.69,656.164)">
                <path d="M0,-7.324L5.775,-7.331L5.565,-6.016L0.735,-1.404L4.789,-1.411L4.554,0.007L-1.418,0.007L-1.167,-1.459L3.463,-5.894L-0.236,-5.894L0,-7.324Z" style="fill:rgb(209,50,57);"/>
            </g>
            <g transform="matrix(1,0,0,1,1241.16,653.79)">
                <path d="M0,-5.406C0,-5.388 -0.14,-4.572 -0.324,-3.606C-0.394,-3.271 -0.666,-3.015 -1.005,-2.967C-1.373,-2.896 -1.748,-2.865 -2.124,-2.875L-4.672,-2.882L-4.11,-6.261L-1.803,-6.254L-1.43,-6.254C-1.147,-6.253 -0.865,-6.235 -0.585,-6.202C-0.414,-6.2 -0.249,-6.148 -0.108,-6.051C-0.038,-5.954 0.003,-5.839 0.01,-5.719C0.02,-5.613 0.018,-5.507 0.004,-5.401L0,-5.406ZM1.212,-7.201C1.066,-7.341 0.895,-7.449 0.705,-7.519C0.487,-7.601 0.263,-7.661 0.033,-7.7C-0.221,-7.744 -0.477,-7.772 -0.734,-7.781C-0.92,-7.788 -1.034,-7.788 -1.034,-7.788L-5.439,-7.788L-7.123,2.382L-5.551,2.382L-4.93,-1.385L-1.88,-1.37C-1.181,-1.35 -0.487,-1.487 0.151,-1.77C0.686,-2.099 1.068,-2.624 1.219,-3.232C1.219,-3.232 1.311,-3.609 1.389,-4.067C1.474,-4.573 1.559,-5.178 1.603,-5.499C1.622,-5.639 1.633,-5.728 1.633,-5.728C1.648,-5.816 1.655,-5.905 1.654,-5.994C1.662,-6.303 1.591,-6.61 1.447,-6.884C1.384,-7 1.304,-7.107 1.212,-7.201" style="fill:rgb(209,50,57);"/>
            </g>
            <g transform="matrix(1,0,0,1,1262.3,656.172)">
                <path d="M0,-10.169L1.514,-10.169L-0.181,0L-1.699,0L0,-10.169Z" style="fill:rgb(209,50,57);"/>
            </g>
            <g transform="matrix(1,0,0,1,1270.38,656.163)">
                <path d="M0,-7.324L1.451,-7.324L1.964,-2.162L4.197,-7.332L5.988,-7.332L6.517,-2.148L8.747,-7.329L10.253,-7.329L7.053,0.001L5.266,0.001L4.749,-5.132L2.493,0.001L0.734,0.008L0,-7.324Z" style="fill:rgb(209,50,57);"/>
            </g>
            <g transform="matrix(1,0,0,1,1259.18,653.439)">
                <path d="M0,-1.867L-3.379,-1.867L-3.246,-2.402C-3.184,-2.629 -3.063,-2.836 -2.896,-3.002C-2.65,-3.155 -2.368,-3.237 -2.079,-3.238C-1.533,-3.297 -0.981,-3.282 -0.439,-3.194C-0.243,-3.172 -0.073,-3.049 0.008,-2.869C0.071,-2.538 0.068,-2.197 -0.001,-1.867L0,-1.867ZM0.328,-4.54C-0.257,-4.674 -0.856,-4.727 -1.455,-4.699C-1.823,-4.708 -2.192,-4.679 -2.555,-4.614C-3.2,-4.506 -3.791,-4.187 -4.235,-3.706C-4.671,-2.973 -4.94,-2.154 -5.025,-1.306C-5.197,-0.508 -5.282,0.307 -5.28,1.124C-5.258,1.751 -4.875,2.31 -4.298,2.557C-3.893,2.716 -3.462,2.801 -3.027,2.808C-2.309,2.86 -1.586,2.819 -0.878,2.686C-0.326,2.556 0.168,2.251 0.533,1.818C0.678,1.626 0.802,1.421 0.906,1.205C0.997,1.015 1.068,0.815 1.117,0.61L1.217,0.215L-0.352,0.215C-0.352,0.215 -0.437,1.253 -1.286,1.349C-1.771,1.411 -2.263,1.429 -2.752,1.401C-2.914,1.394 -3.821,1.434 -3.752,0.674C-3.753,0.658 -3.753,0.642 -3.752,0.626C-3.758,0.258 -3.711,-0.108 -3.615,-0.463L1.315,-0.478L1.526,-1.697C1.764,-3.075 1.59,-4.127 0.328,-4.54" style="fill:rgb(209,50,57);fill-rule:nonzero;"/>
            </g>
            <g transform="matrix(1,0,0,1,1255.43,654.171)">
                <path d="M0,-0.088L0,-0.055C-0.008,0.004 0,-0.092 0,-0.088" style="fill:rgb(209,50,57);fill-rule:nonzero;"/>
            </g>
            <g transform="matrix(1,0,0,1,1264.72,654.174)">
                <path d="M0,-0.088L0,-0.055C-0.004,0.004 0,-0.092 0,-0.088" style="fill:rgb(209,50,57);fill-rule:nonzero;"/>
            </g>
            <g transform="matrix(1,0,0,1,1268.46,653.445)">
                <path d="M0,-1.873L-3.379,-1.873L-3.246,-2.408C-3.184,-2.635 -3.063,-2.842 -2.896,-3.008C-2.65,-3.162 -2.368,-3.243 -2.079,-3.244C-1.533,-3.303 -0.981,-3.288 -0.439,-3.2C-0.243,-3.178 -0.073,-3.055 0.008,-2.875C0.071,-2.543 0.068,-2.202 0,-1.871L0,-1.873ZM0.343,-4.543C-0.242,-4.677 -0.842,-4.73 -1.441,-4.702C-1.81,-4.71 -2.179,-4.682 -2.541,-4.617C-3.187,-4.509 -3.777,-4.189 -4.222,-3.708C-4.657,-2.976 -4.927,-2.156 -5.012,-1.308C-5.184,-0.51 -5.27,0.305 -5.267,1.122C-5.244,1.75 -4.861,2.308 -4.284,2.555C-3.88,2.714 -3.449,2.799 -3.015,2.806C-2.296,2.857 -1.573,2.816 -0.865,2.684C-0.313,2.554 0.181,2.25 0.546,1.816C0.689,1.624 0.814,1.419 0.919,1.203C1.01,1.013 1.08,0.814 1.129,0.609L1.229,0.209L-0.34,0.209C-0.34,0.209 -0.425,1.247 -1.274,1.342C-1.761,1.402 -2.251,1.42 -2.74,1.397C-2.902,1.39 -3.812,1.427 -3.74,0.67C-3.741,0.654 -3.741,0.638 -3.74,0.622C-3.746,0.254 -3.699,-0.112 -3.604,-0.467L1.327,-0.482L1.537,-1.701C1.779,-3.078 1.605,-4.134 0.343,-4.543" style="fill:rgb(209,50,57);fill-rule:nonzero;"/>
            </g>
            <g transform="matrix(1,0,0,1,1282.38,658.846)">
                <path d="M0,-10.006L0.971,-4.644L3.714,-10.009L5.258,-9.994L1.303,-2.332C0.993,-1.705 0.603,-1.12 0.143,-0.593C-0.152,-0.305 -0.528,-0.114 -0.936,-0.047C-1.219,0.003 -1.509,0.003 -1.792,-0.047L-2.161,-0.113L-1.933,-1.483C-1.609,-1.421 -1.276,-1.43 -0.957,-1.512C-0.593,-1.656 -0.301,-2.276 -0.301,-2.276L-0.115,-2.586L-1.544,-10.008L0,-10.008L0,-10.006Z" style="fill:rgb(209,50,57);"/>
            </g>
            <g transform="matrix(1,0,0,1,1288.2,652.382)">
                <path d="M0,-2.815L1.593,-2.815L1.692,-3.432C1.692,-3.432 1.862,-4.547 2.242,-4.762C2.413,-4.849 2.597,-4.907 2.785,-4.936C3.241,-5.003 3.702,-5.024 4.162,-5.002C4.691,-4.994 5.221,-4.958 5.746,-4.895C6.055,-4.877 6.29,-4.612 6.271,-4.304C6.269,-4.258 6.261,-4.212 6.246,-4.168L6.113,-3.197C6.079,-2.953 6.007,-2.714 5.899,-2.492C5.713,-2.261 5.456,-2.095 5.168,-2.02C4.645,-1.85 2.85,-1.392 2.85,-1.392L1.439,-0.986C0.933,-0.834 0.47,-0.564 0.087,-0.199C-0.283,0.217 -0.541,0.722 -0.659,1.267C-0.725,1.585 -1.098,3.781 -1.098,3.781L6.517,3.781L6.771,2.26L0.748,2.267L0.855,1.647C0.855,1.647 0.926,1.008 1.185,0.798C1.352,0.638 1.559,0.526 1.784,0.473C2.072,0.373 3.055,0.107 3.055,0.107L5.325,-0.514C5.984,-0.678 6.583,-1.025 7.054,-1.514C7.401,-2.123 7.631,-2.792 7.729,-3.486C7.796,-4.035 7.806,-4.589 7.759,-5.14C7.612,-5.611 7.276,-5.999 6.831,-6.211C6.1,-6.493 5.312,-6.596 4.531,-6.511C3.604,-6.563 2.675,-6.448 1.787,-6.171C1.148,-5.945 0.65,-5.437 0.436,-4.794C0.22,-4.156 0.072,-3.496 -0.004,-2.826L0,-2.815Z" style="fill:rgb(179,178,177);"/>
            </g>
            <g transform="matrix(1,0,0,1,1300.96,649.762)">
                <path d="M0,2.633L-3.327,2.633L0.724,-1.684L0,2.633ZM1.572,2.633L2.64,-3.767L0.749,-3.767L-5.138,2.555L-5.403,4.155L-0.256,4.155L-0.632,6.4L0.947,6.4L1.32,4.151L2.779,4.151L3.042,2.619L1.572,2.633Z" style="fill:rgb(179,178,177);"/>
            </g>
            <g transform="matrix(1,0,0,1,1245.71,642.662)">
                <path d="M-0.003,4.18L4.848,4.18C4.848,4.18 5.934,3.301 6.705,2.736C7.476,2.171 8.88,1.281 8.88,1.281L6.14,0C6.14,0 3.825,1.432 2.84,2.108C1.887,2.732 -0.003,4.18 -0.003,4.18Z" style="fill:rgb(179,178,177);"/>
            </g>
            <g transform="matrix(1,0,0,1,1256.13,637.761)">
                <path d="M0,5.277L-2.249,3.763C-0.716,2.922 0.867,2.175 2.493,1.529C5.192,0.451 6.64,0 6.64,0L7.098,2.145C7.098,2.145 4.498,3.017 2.998,3.722C1.965,4.175 0.963,4.694 -0.002,5.276L0,5.277Z" style="fill:rgb(179,178,177);"/>
            </g>
            <g transform="matrix(1,0,0,1,1264.89,635.326)">
                <path d="M0,4.111L-0.391,1.911C-0.391,1.911 2.386,1.173 4.926,0.7C7.466,0.227 10.842,0 10.842,0L9.727,3.394C7.818,3.159 5.888,3.151 3.977,3.368C2.637,3.531 1.309,3.778 0,4.106L0,4.111Z" style="fill:rgb(179,178,177);"/>
            </g>
            <g transform="matrix(1,0,0,1,1276.38,638.034)">
                <path d="M0,0.979L1.876,-2.791C4.436,-2.824 6.994,-2.667 9.531,-2.322C11.799,-1.994 14.042,-1.518 16.248,-0.897L7.26,3.803C5.778,2.908 4.199,2.188 2.552,1.657C1.075,1.221 0,0.978 0,0.978L0,0.979Z" style="fill:rgb(179,178,177);"/>
            </g>
            <g transform="matrix(1,0,0,1,1285.25,640.02)">
                <path d="M0,2.841L1.976,4.341L18.212,4.341C18.148,3.889 17.989,3.457 17.747,3.071C17.382,2.531 16.954,2.037 16.473,1.598C15.998,1.187 15.497,0.808 14.973,0.464C13.793,-0.301 12.548,-0.958 11.251,-1.5L-0.005,2.842L0,2.841Z" style="fill:rgb(179,178,177);"/>
            </g>
            <g transform="matrix(1,0,0,1,1246.76,656.131)">
                <path d="M0,-7.3C-0.593,-7.273 -1.169,-7.098 -1.677,-6.791L-1.592,-7.3L-3.206,-7.3L-4.499,0L-2.882,0L-2.164,-4.045C-2.052,-5.054 -1.222,-5.833 -0.207,-5.88L0.627,-5.88L0.878,-7.298L0,-7.3Z" style="fill:rgb(209,50,57);fill-rule:nonzero;"/>
            </g>
        </g>
    </g>
</svg>
