<?xml version="1.0" encoding="UTF-8" standalone="no"?>
<!DOCTYPE svg PUBLIC "-//W3C//DTD SVG 1.1//EN" "http://www.w3.org/Graphics/SVG/1.1/DTD/svg11.dtd">
<svg width="100%" height="100%" viewBox="0 0 51 17" version="1.1" xmlns="http://www.w3.org/2000/svg" xmlns:xlink="http://www.w3.org/1999/xlink" xml:space="preserve" xmlns:serif="http://www.serif.com/" style="fill-rule:evenodd;clip-rule:evenodd;stroke-linejoin:round;stroke-miterlimit:2;">
    <g transform="matrix(1,0,0,1,-523.463,-417.851)">
        <g transform="matrix(1,0,0,1,538.391,433.918)">
            <path d="M0,-15.778L-4.258,-5.014L-5.981,-14.166C-6.126,-15.094 -6.927,-15.778 -7.867,-15.777L-14.828,-15.777L-14.928,-15.318C-13.532,-15.04 -12.176,-14.589 -10.892,-13.973C-10.348,-13.711 -9.98,-13.185 -9.921,-12.584L-6.658,0.036L-2.334,0.036L4.294,-15.778L-0.006,-15.778M6.052,-15.778L2.668,0.036L6.759,0.036L10.142,-15.778L6.052,-15.778M29.507,-11.506L30.746,-5.568L27.353,-5.568L29.507,-11.506M28.9,-15.778C28.137,-15.784 27.447,-15.324 27.159,-14.618L21.022,0.036L25.315,0.036L26.169,-2.325L31.416,-2.325L31.916,0.036L35.7,0.036L32.4,-15.778L28.907,-15.778M11.25,-10.839C11.222,-8.561 13.281,-7.291 14.832,-6.539C16.425,-5.764 16.959,-5.266 16.954,-4.573C16.942,-3.512 15.683,-3.044 14.505,-3.025C13.042,-2.993 11.596,-3.338 10.305,-4.025L9.564,-0.56C11.014,0.004 12.557,0.289 14.113,0.279C18.413,0.279 21.22,-1.842 21.236,-5.13C21.253,-9.303 15.464,-9.53 15.503,-11.4C15.517,-11.965 16.056,-12.569 17.239,-12.722C18.623,-12.855 20.016,-12.611 21.272,-12.015L21.991,-15.367C20.767,-15.827 19.471,-16.064 18.163,-16.067C14.119,-16.067 11.275,-13.917 11.251,-10.84" style="fill:rgb(21,25,90);fill-rule:nonzero;"/>
        </g>
    </g>
</svg>
