<?xml version="1.0" encoding="UTF-8" standalone="no"?>
<!DOCTYPE svg PUBLIC "-//W3C//DTD SVG 1.1//EN" "http://www.w3.org/Graphics/SVG/1.1/DTD/svg11.dtd">
<svg width="100%" height="100%" viewBox="0 0 40 44" version="1.1" xmlns="http://www.w3.org/2000/svg" xmlns:xlink="http://www.w3.org/1999/xlink" xml:space="preserve" xmlns:serif="http://www.serif.com/" style="fill-rule:evenodd;clip-rule:evenodd;stroke-linejoin:round;stroke-miterlimit:2;">
    <g transform="matrix(1,0,0,1,-1352.74,-401.798)">
        <g>
            <g transform="matrix(1,0,0,1,0,-233.157)">
                <rect x="1352.74" y="634.955" width="39.92" height="43.247" style="fill:rgb(43,24,119);"/>
            </g>
            <g transform="matrix(1,0,0,1,0,-247.323)">
                <rect x="1353.74" y="650.118" width="37.922" height="27.087" style="fill:white;"/>
            </g>
            <g transform="matrix(1,0,0,1,1382.29,425.471)">
                <path d="M0,-17.76L-7.44,0.001L-12.3,0.001L-15.963,-14.175C-16.032,-14.848 -16.443,-15.439 -17.052,-15.737C-18.496,-16.425 -20.02,-16.931 -21.588,-17.246L-21.48,-17.76L-13.662,-17.76C-12.605,-17.761 -11.706,-16.994 -11.541,-15.951L-9.605,-5.676L-4.824,-17.76L0,-17.76" style="fill:rgb(43,24,119);fill-rule:nonzero;"/>
            </g>
            <g transform="matrix(1,0,0,1,1364.31,437.043)">
                <path d="M0,-0.22C0.229,-0.169 0.465,-0.147 0.7,-0.156C1.78,-0.156 2.439,-0.71 2.439,-1.678C2.439,-2.595 1.828,-3.085 0.828,-3.085C0.549,-3.092 0.27,-3.067 -0.005,-3.012L0,-0.22ZM-1.432,-4.067C-0.702,-4.19 0.037,-4.247 0.776,-4.236C1.611,-4.301 2.44,-4.061 3.112,-3.562C3.626,-3.097 3.909,-2.43 3.889,-1.737C3.923,-1.046 3.676,-0.37 3.205,0.138C2.524,0.757 1.623,1.074 0.705,1.018C0.471,1.022 0.236,1.005 0.005,0.967L0.005,4.081L-1.427,4.081L-1.432,-4.067Z" style="fill:white;fill-rule:nonzero;"/>
            </g>
            <g transform="matrix(1,0,0,1,1373.63,436.347)">
                <path d="M0,1.296L-0.622,-0.735C-0.774,-1.235 -0.902,-1.803 -1.021,-2.28L-1.044,-2.28C-1.161,-1.803 -1.278,-1.226 -1.419,-0.735L-2.028,1.296L0,1.296ZM-2.266,2.435L-2.946,4.776L-4.438,4.776L-1.9,-3.48L-0.06,-3.48L2.515,4.776L0.963,4.776L0.245,2.435L-2.266,2.435Z" style="fill:white;fill-rule:nonzero;"/>
            </g>
            <g transform="matrix(1,0,0,1,1379.19,432.868)">
                <path d="M0,8.255L0,4.812L-2.5,-0.001L-0.859,-0.001L0.093,2.117C0.361,2.731 0.562,3.194 0.774,3.76L0.797,3.76C0.996,3.233 1.222,2.717 1.489,2.117L2.442,-0.001L4.074,-0.001L1.443,4.776L1.443,8.256L0,8.255Z" style="fill:white;fill-rule:nonzero;"/>
            </g>
        </g>
    </g>
</svg>
