<svg xmlns="http://www.w3.org/2000/svg" width="2500" height="679" viewBox="0 0 615.489 167.215"><path d="M185.082 19.546c-2.138 14.354-6.414 49.172 2.749 83.684 1.833 4.58 6.414 3.359 8.247 1.221.611-.916 6.719-6.719 6.719-6.719 2.138-3.055 4.276-2.139 5.803 0 1.527 2.139 5.803 8.857 12.217 9.162 6.413.305 16.492-7.33 20.462-10.385 2.749 5.193 6.108 10.08 11.606 9.773 5.498-.305 10.689-4.275 15.271-9.162 3.36 3.971 7.025 8.246 11.301 7.941 4.275-.305 12.217-4.887 19.852-11.912 3.054-3.359 6.414-1.832 8.551 1.527s5.192 8.857 9.163 8.857c3.97 0 9.772-5.498 11.604-7.025 1.833-1.525 3.665-2.748 5.804-.305l4.581 4.275c2.749 2.75 8.552 2.139 12.827-1.832 4.276-3.971 5.192-5.191 7.024-5.191 1.833 0 2.749 2.443 4.581 4.275 1.833 1.832 15.882 14.049 34.513-4.887.305 9.469-1.833 62.609-1.833 70.246 0 3.664 4.275 4.887 10.385 3.664 6.107-1.221 9.162-3.055 8.856-11.91-.306-8.857-1.527-52.531-1.527-52.531.917-7.025 7.024-18.631 13.438-18.936 6.414-.306 3.359 7.635.306 7.635s-6.414 1.527-6.414 4.275.917 10.689 18.937 10.689c18.019 0 20.156-5.803 25.044-7.941 3.054 5.803 12.216 14.967 37.565-1.221 5.192 6.107 14.966 13.744 25.655 6.107 3.359-2.748 6.719-9.162 5.497-14.66-.916-2.137-.306-3.053 1.222-3.053h10.079c2.138 0 5.803 1.527 7.024 7.635 1.222 6.109 5.497 11.301 8.857 10.994 3.358-.305 9.772-5.496 13.438-9.162 3.055 4.277 16.188 24.129 40.315-9.162 2.138-3.054-1.222-4.581-3.055-2.443-1.832 2.138-7.33 5.498-11.911 5.802-4.581.307-10.078-4.275-14.354-10.078-4.275-5.803-9.162-3.666-12.217.916-2.138 2.443-3.359 4.886-5.803 7.634-1.527-2.748-3.359-8.55-6.413-10.688-3.055-2.138-5.498-2.443-12.828-.611s-15.576 2.749-23.822 3.054c-4.581-.305-3.359 1.833-3.054 3.665.305 1.833 3.664 9.467-2.443 9.774-6.108.305-5.498-8.857-1.222-13.744 2.138-2.138-.917-6.72-4.276-4.887-3.359 1.833-5.497 2.749-8.246 7.024-2.748 4.276-8.552 10.69-18.02 10.995s-6.719-10.689-6.414-15.576c0-2.749-1.832-5.192-6.719-3.97s-11.301.611-10.689 14.048c-3.359 4.887-10.995 7.941-17.104 7.025-1.832-.307-2.443-1.223-1.832-3.359.611-2.139 2.138-14.049-7.024-17.104-9.163-3.054-16.188 1.222-20.769 5.192-2.443 1.222-3.054 0-3.054-2.138l.305-11.3c0-5.192-10.384-6.414-11.911-.306-1.527 6.108-3.359 18.02-12.521 22.296-9.163 4.275-12.217-1.223-17.104-7.331-4.887-6.108-9.773-5.803-15.271-.305l-5.498 5.192c-2.138 1.832-3.359 1.221-5.191-1.528-1.833-2.748-3.055-6.414-6.414-6.719s-3.971.916-6.414 2.749l-7.024 5.498c-2.748 2.137-3.359 2.137-6.107-1.528 0 0-4.582-7.635-9.162-7.635-4.582 0-6.109 2.749-8.857 4.887 0 0-7.025 4.887-9.468 7.024-2.443 2.139-9.468 6.414-16.187-3.665-2.443-3.665-6.719-6.414-9.773-1.222-3.054 5.191-7.94 13.132-11.605 10.689s2.443-9.467 7.024-10.079c4.581-.61 1.833-6.414-2.749-6.719-4.582-.305-11.911 2.749-15.271 6.719-3.359 3.971-8.857 8.551-14.354 8.247-5.497-.307-6.719-4.582-9.468-10.384-2.749-5.803-7.635-5.192-11.3-2.138-3.665 3.054-4.582 3.97-7.33 7.329-2.749 3.361-2.749 1.527-3.054-.609-.306-2.138-2.138-41.537.917-66.886 1.218-6.408-11.915-8.546-14.663 1.227z"/><path d="M474.004 66.615c5.248 0 9.502-4.254 9.502-9.502s-4.254-9.502-9.502-9.502-9.502 4.254-9.502 9.502 4.254 9.502 9.502 9.502zM169.811 76.354c-1.221.917-35.733 12.521-54.669 13.744V19.241c10.995.305 31.763 4.887 44.896 9.773 3.054 1.527 9.468-.305 2.749-7.024C147.21 9.468 122.777 0 90.403 0S0 18.02 0 54.669s46.423 54.975 90.708 54.975c31.153 0 60.167-11.301 81.241-31.458 3.36-3.359-.917-2.748-2.138-1.832zM65.049 90.045C38.687 84.615 20 70.96 20 54.975c0-15.979 18.702-29.629 45.049-35.063v70.133zM601.192 67.18c-2.464 0-4.462 1.937-4.462 4.302 0 2.415 1.998 4.352 4.462 4.352 2.451 0 4.438-1.937 4.438-4.352 0-2.366-1.986-4.302-4.438-4.302zm0 7.808c-2.011 0-3.616-1.532-3.616-3.506 0-1.912 1.605-3.457 3.616-3.457 1.985 0 3.591 1.544 3.591 3.457 0 1.974-1.605 3.506-3.591 3.506z"/><path d="M603.473 70.354c0-.405-.185-.833-.552-1.042-.38-.208-.797-.233-1.214-.233h-2.169v4.842h.735V71.69h.87l1.422 2.231h.846l-1.508-2.231c.883-.024 1.57-.379 1.57-1.336zm-2.391.735h-.809v-1.458h1.287c.625 0 1.177.086 1.177.71 0 .871-.956.748-1.655.748z"/></svg>