<?xml version="1.0" encoding="UTF-8" standalone="no"?>
<svg
   xmlns:dc="http://purl.org/dc/elements/1.1/"
   xmlns:cc="http://creativecommons.org/ns#"
   xmlns:rdf="http://www.w3.org/1999/02/22-rdf-syntax-ns#"
   xmlns:svg="http://www.w3.org/2000/svg"
   xmlns="http://www.w3.org/2000/svg"
   xmlns:sodipodi="http://sodipodi.sourceforge.net/DTD/sodipodi-0.dtd"
   xmlns:inkscape="http://www.inkscape.org/namespaces/inkscape"
   width="641.03198"
   height="240.43401"
   viewBox="0 0 512.82559 192.3472"
   id="svg2"
   version="1.1"
   inkscape:version="0.48.2 r9819"
   sodipodi:docname="Oakley_logo.svg">
  <metadata
     id="metadata44">
    <rdf:RDF>
      <cc:Work
         rdf:about="">
        <dc:format>image/svg+xml</dc:format>
        <dc:type
           rdf:resource="http://purl.org/dc/dcmitype/StillImage" />
      </cc:Work>
    </rdf:RDF>
  </metadata>
  <defs
     id="defs42" />
  <sodipodi:namedview
     pagecolor="#ffffff"
     bordercolor="#666666"
     borderopacity="1"
     objecttolerance="10"
     gridtolerance="10"
     guidetolerance="10"
     inkscape:pageopacity="0"
     inkscape:pageshadow="2"
     inkscape:window-width="1600"
     inkscape:window-height="837"
     id="namedview40"
     showgrid="false"
     fit-margin-top="0"
     fit-margin-left="0"
     fit-margin-right="0"
     fit-margin-bottom="0"
     inkscape:zoom="0.74708171"
     inkscape:cx="320.62076"
     inkscape:cy="120.57863"
     inkscape:window-x="-8"
     inkscape:window-y="-8"
     inkscape:window-maximized="1"
     inkscape:current-layer="svg2" />
  <g
     transform="translate(80.937007,-0.03263164)"
     style="fill:#000000;fill-rule:evenodd;stroke:none"
     id="g4">
    <path
       d="M 170.851,0.033203 C 200.53,0 223.849,1.40332 249.108,5.70019 c 27.577,4.69141 53.296,11.01951 74.007,22.88871 1.53,0.8769 2.699,1.4492 4.686,2.7246 8.073,5.1846 18.122,13.4892 20.055,24.6328 1.562,9.0098 -2.65,16.3486 -7.194,21.5801 -4.717,5.4297 -10.502,9.5625 -16.676,13.0791 -25.185,14.3505 -58.391,21.9895 -92.862,25.9405 -16.019,1.836 -32.817,3.161 -52.534,3.161 -19.169,0 -36.096,-0.774 -52.426,-2.398 C 92.9536,114.007 58.1696,107.045 31.9946,93.7656 25.4766,90.46 19.3776,86.8506 13.9014,81.9951 8.7022,77.3858 3.7461,71.669 2.3487,63.794 0,50.5635 9.3242,40.9404 17.0625,35.0195 25.3556,28.6729 36.0276,23.3711 46.2726,19.543 67.5666,11.584 93.3166,6.2959 118.862,3.19336 135.887,1.12597 150.994,0.054687 170.851,0.033203 z m 0.764,11.879897 c -23.039,0 -44.919,4.1826 -64.088,11.2266 -9.3874,3.4492 -17.7304,7.6855 -25.0694,13.8418 -6.404,5.373 -13.977,13.9882 -12.207,25.831 1.527,10.2149 9.649,17.501 16.567,22.3438 7.723,5.4052 16.9874,9.4921 26.3774,12.5332 20.286,6.5715 43.012,9.4015 66.485,9.1555 22.3,-0.234 45.756,-4.101 64.196,-11.3342 9.093,-3.5674 17.817,-7.9346 24.959,-13.9512 6.577,-5.5401 13.559,-14.4883 11.772,-25.6133 -1.601,-9.9648 -9.2,-17.251 -16.567,-22.3438 -8.102,-5.6015 -16.691,-9.288 -26.376,-12.5341 -14.831,-4.9698 -31.682,-7.918 -47.848,-8.7188 -5.071,-0.2519 -11.742,-0.7334 -17.984,-0.4365 -0.072,0.0039 -0.145,0 -0.217,0 z"
       id="path6"
       inkscape:connector-curvature="0"
       style="fill:#000000" />
  </g>
  <g
     transform="translate(-0.40671345,142.01536)"
     style="fill:#000000;fill-rule:evenodd;stroke:none"
     id="g16">
    <path
       d="M 23.6377,0.111 C 33.4746,0.09 42.2265,0 50.2314,1.638 c 2.6836,0.548 5.6992,1.586 6.6485,3.595 0.8906,1.886 0.5449,5.013 0.5449,9.592 0,8.499 0,16.294 0,25.177 0,1.611 0.2041,3.644 -0.2178,4.797 -1.3115,3.573 -8.4443,4.418 -12.0986,4.795 -9.8399,1.017 -21.5459,0.95 -31.6074,0 C 9.55566,49.221 2.49805,48.374 0.9668,45.015 0.0556643,43.018 0.530273,38.302 0.530273,35.316 c 0,-7.256 0,-12.565 0,-20.054 C 0.530273,11.724 0,7.052 1.40234,4.907 2.82324,2.734 7.4873,1.527 11.3213,0.983 15.5986,0.376 18.8613,0.121 23.6377,0.111 z m -0.8721,6.213 c -0.3945,0.803 -0.2187,3.092 -0.2187,4.469 0,8.412 0,15.481 0,23.76 0,2.814 -0.5547,7.696 0.3271,9.264 0.9131,1.622 3.4365,1.603 5.9951,1.635 2.0254,0.025 5.1143,0.147 6.1035,-1.526 0.8955,-1.516 0.3272,-6.036 0.3272,-9.046 0,-7.71 0,-11.537 0,-18.965 0,-2.04 0.5107,-7.804 -0.1094,-9.373 -0.791,-2.003 -6.0322,-1.87 -7.8476,-1.744 -1.3028,0.09 -3.9004,0.148 -4.5772,1.526 z"
       id="path18"
       inkscape:connector-curvature="0"
       style="fill:#000000" />
  </g>
  <g
     transform="translate(90.696807,142.66936)"
     style="fill:#000000;fill-rule:evenodd;stroke:none"
     id="g20">
    <path
       d="m 17.6568,0.002 c 8.832,-0.002 18.599,0.001 27.793,0 6.381,16.217 12.786,32.41 19.074,48.72 -8.356,0 -16.712,0 -25.069,0 -1.378,-3.999 -2.636,-8.116 -4.032,-12.099 -4.696,-0.174 -10.129,-0.186 -14.823,0 -1.342,3.854 -2.367,8.024 -3.487,12.099 -5.705,0 -11.4087,0 -17.1128,0 4.2451,-12.115 8.7334,-24.247 13.0788,-36.403 1.459,-4.081 3.14,-8.714 4.578,-12.317 z m 4.033,30.953 c 3.818,-0.179 8.389,-0.179 12.207,0 -2.172,-6.401 -4.264,-12.883 -6.649,-19.072 -1.749,6.461 -3.798,12.623 -5.558,19.072 z"
       id="path22"
       inkscape:connector-curvature="0"
       style="fill:#000000" />
  </g>
  <g
     transform="translate(192.05961,142.31536)"
     style="fill:#000000;fill-rule:evenodd;stroke:none"
     id="g24">
    <path
       d="m 23.87,19.975 c 5.187,-5.36 10.61,-11.388 16.022,-17.33 0.655,-0.72 1.82,-2.131 2.398,-2.289 1.299,-0.356 3.613,0 5.123,0 4.979,0 10.253,0.09 15.149,-0.109 0.211,0.587 -0.595,0.894 -0.872,1.199 -5.651,6.223 -11.725,12.828 -17.548,18.965 5.769,9.527 11.939,19.234 17.44,28.665 -8.393,0 -16.786,0 -25.178,0 C 31.957,42.26 28.19,34.764 23.87,27.823 c 0,7.084 0,14.168 0,21.253 -7.92,0 -15.84,0 -23.76,0 C 0.036,33.343 0.255,16.38 0,0.465 7.559,0.212 16.166,0.427 23.542,0.356 24.14,0.293 23.87,1.673 23.87,2.427 c 0,5.54 0,11.942 0,17.548 z"
       id="path26"
       inkscape:connector-curvature="0"
       style="fill:#000000" />
  </g>
  <g
     transform="translate(290.69761,142.41136)"
     style="fill:#000000;fill-rule:evenodd;stroke:none"
     id="g28">
    <path
       d="m 0.328,0.26 c 7.883,0 15.768,0 23.652,0 -0.001,13.988 0,28.556 0,42.18 7.847,0.072 15.985,-0.145 23.651,0.109 0,2.144 0,4.287 0,6.431 -15.841,0 -31.681,0 -47.521,0 C 0.362,34.039 0.149,16.356 0.219,0.478 0,0.381 0.267,0 0.328,0.26 z"
       id="path30"
       inkscape:connector-curvature="0"
       style="fill:#000000" />
  </g>
  <g
     transform="translate(373.59561,142.49536)"
     style="fill:#000000;fill-rule:evenodd;stroke:none"
     id="g32">
    <path
       d="m 0.155,0.176 c 15.514,0 31.026,0 46.54,0 0,2.071 0,4.142 0,6.213 -7.557,0 -15.113,0 -22.67,0 -0.255,4.76 -0.037,9.99 -0.109,14.932 5.813,0.072 11.916,-0.145 17.548,0.109 0.041,2.102 -0.079,4.113 0.109,5.668 -5.85,0 -11.699,0 -17.548,0 0,5.158 0,10.317 0,15.477 7.302,0.253 15.077,0.036 22.562,0.109 0,2.07 0,4.141 0,6.212 -15.514,0 -31.027,0 -46.54,0 0,-16.167 0,-32.335 0,-48.502 C 0,0.185 0.121,0 0.155,0.176 z"
       id="path34"
       inkscape:connector-curvature="0"
       style="fill:#000000" />
  </g>
  <g
     transform="translate(447.97561,142.54236)"
     style="fill:#000000;fill-rule:evenodd;stroke:none"
     id="g36">
    <path
       d="M 64.741,0.02 C 64.834,0 64.843,0.063 64.85,0.129 58.425,10.307 51.202,20.633 44.468,30.865 c 0.071,5.854 -0.142,12.565 0.11,17.875 -7.776,0.254 -16.023,0.036 -23.979,0.109 -0.006,-4.263 0,-8.765 0,-13.406 0,-1.486 0.276,-3.176 0,-4.469 C 20.357,29.84 18.832,28.293 17.983,27.051 11.866,18.09 5.781,8.953 0,0.129 c 8.392,0 16.784,0 25.176,0 3.713,5.842 7.084,12.026 10.573,18.093 C 39.405,12.287 42.798,6.088 46.43,0.129 52.498,0.057 58.855,0.274 64.741,0.02 z"
       id="path38"
       inkscape:connector-curvature="0"
       style="fill:#000000" />
  </g>
</svg>
