<?xml version="1.0" encoding="UTF-8" standalone="no"?>
<!-- Created with Inkscape (http://www.inkscape.org/) -->

<svg xmlns:dc="http://purl.org/dc/elements/1.1/" xmlns:cc="http://creativecommons.org/ns#" xmlns:rdf="http://www.w3.org/1999/02/22-rdf-syntax-ns#" xmlns:svg="http://www.w3.org/2000/svg" xmlns="http://www.w3.org/2000/svg" xmlns:sodipodi="http://sodipodi.sourceforge.net/DTD/sodipodi-0.dtd" xmlns:inkscape="http://www.inkscape.org/namespaces/inkscape" id="svg3153" version="1.1" inkscape:version="0.48.5 r10040" width="1000" height="671.62048" sodipodi:docname="Bandicam_2017-07-26_09-35-51-215.jpg">
  <metadata id="metadata3159">
    <rdf:RDF>
      <cc:Work rdf:about="">
        <dc:format>image/svg+xml</dc:format>
        <dc:type rdf:resource="http://purl.org/dc/dcmitype/StillImage" />
        <dc:title></dc:title>
      </cc:Work>
    </rdf:RDF>
  </metadata>
  <defs id="defs3157" />
  <sodipodi:namedview pagecolor="#ffffff" bordercolor="#666666" borderopacity="1" objecttolerance="10" gridtolerance="10" guidetolerance="10" inkscape:pageopacity="0" inkscape:pageshadow="2" inkscape:window-width="1366" inkscape:window-height="706" id="namedview3155" showgrid="false" inkscape:object-paths="false" fit-margin-top="0" fit-margin-left="0" fit-margin-right="0" fit-margin-bottom="0" inkscape:zoom="0.5504886" inkscape:cx="116.01683" inkscape:cy="26.428842" inkscape:window-x="-8" inkscape:window-y="-8" inkscape:window-maximized="1" inkscape:current-layer="svg3153" />
  <g id="g3284" style="fill:black" transform="matrix(3.3946588,0,0,3.3946588,-20.16715,-25.345386)">
    <g id="g3222" style="fill:black">
      <path sodipodi:nodetypes="ccccccccccc" inkscape:connector-curvature="0" id="path3086" d="M 116.46217,118.17609 116.34115,88.299423 144.94578,77.687836 116.13901,68.253349 115.53548,38.816955 98.060775,62.567163 69.475608,53.754706 86.068727,78.686131 69.872309,103.66327 98.08508,94.312856 z" style="fill:black;stroke:none" />
      <path inkscape:connector-curvature="0" id="path3088" d="m 120.03458,149.58101 51.23552,0 64.21344,-71.014068 -64.52309,-71.1006878 -50.74147,0 60.34684,70.9962818 z" style="fill:black;stroke:none" />
    </g>
    <g id="g3274" style="fill:black">
      <path style="fill:black;stroke:none" d="m 5.9408475,187.80562 c 0,-9.22859 7.8019495,-18.30423 18.4647965,-18.30423 7.263143,0 15.414091,8.18874 15.414091,8.18874 l -8.830989,5.13803 c 0,0 -1.458758,-3.85352 -6.904229,-3.85352 -5.535597,0 -8.792788,4.5453 -8.830989,8.67042 -0.0427,4.61136 3.737716,8.67043 8.509862,8.67043 3.744288,0 7.707046,-4.01409 7.707046,-4.01409 l 7.546482,5.45916 c 0,0 -5.647092,6.90423 -15.092964,6.90423 -9.464561,0 -17.9831065,-5.70733 -17.9831065,-16.85917 z" id="path3226" inkscape:connector-curvature="0" sodipodi:nodetypes="ssccsssccss" />
      <path style="fill:black;fill-opacity:1;fill-rule:evenodd;stroke:none" d="m 61,169.96875 c -9.931795,0 -17.96875,7.93304 -17.96875,17.6875 0,9.75444 8.036955,17.65625 17.96875,17.65625 9.931794,0 18,-7.90181 18,-17.65625 0,-9.75446 -8.068206,-17.6875 -18,-17.6875 z m 0,8.84375 c 4.965897,0 9,3.96652 9,8.84375 0,4.87722 -4.034103,8.8125 -9,8.8125 -4.965898,0 -8.96875,-3.93528 -8.96875,-8.8125 0,-4.87723 4.002852,-8.84375 8.96875,-8.84375 z" id="path3231" inkscape:connector-curvature="0" />
      <path style="fill:black;fill-opacity:1;fill-rule:evenodd;stroke:none" d="m 85.75,170.46875 0,33.0625 8.65625,0 0,-17.8689 14.28125,17.8689 8.53125,0 0,-33.0625 -8.6875,0 0,19.32193 -14.125,-19.32193 z" id="rect3234" inkscape:connector-curvature="0" sodipodi:nodetypes="ccccccccccc" />
      <path style="fill:black;fill-opacity:1;fill-rule:evenodd;stroke:none" d="m 124.28125,170.46875 11.6875,33.0625 12.875,0 11.6875,-33.0625 -9.46875,0 -8.65625,26.25 -8.65625,-26.25 z" id="path3239" inkscape:connector-curvature="0" sodipodi:nodetypes="cccccccc" />
      <path style="fill:black;fill-opacity:1;fill-rule:evenodd;stroke:none" d="m 166.75,170.46875 0,33.0625 26.59375,0 0,-7.625 -17.9375,0 0,-5.53125 16.125,0 0,-6.75 -16.125,0 0,-5.28125 17.9375,0 0,-7.875 z" id="path3246" inkscape:connector-curvature="0" sodipodi:nodetypes="ccccccccccccc" />
      <path sodipodi:nodetypes="ccccccccccccc" inkscape:connector-curvature="0" id="path3258" d="m 273.92751,170.46875 0,33.0625 26.59375,0 0,-7.625 -17.9375,0 0,-5.53125 16.125,0 0,-6.75 -16.125,0 0,-5.28125 17.9375,0 0,-7.875 z" style="fill:black;fill-opacity:1;fill-rule:evenodd;stroke:none" />
      <path style="fill:black;fill-opacity:1;fill-rule:evenodd;stroke:none" d="m 203.125,171.09375 0,32.59375 7.6875,0 0,-12.84375 4.40625,0 6.75,12.84375 9.90625,0 -6.6875,-13.9375 c 8.69469,-5.21329 6.97355,-16.12472 -2.71875,-18.65625 l -19.34375,0 z m 7.53125,7.875 8.875,0 c 3.0837,0 2.8834,4.78125 0,4.78125 l -8.875,0 0,-4.78125 z" id="rect3260" inkscape:connector-curvature="0" />
      <path style="fill:black;stroke:none" d="m 236.49445,199.12241 c 0.34061,2.04364 8.3978,5.90385 16.34912,5.90385 7.30153,0 13.17011,-3.50587 13.17011,-10.46475 0,-8.55828 -9.99112,-10.53932 -9.99112,-10.53932 0,0 -8.30102,-0.11711 -8.51516,-3.97374 -0.10075,-1.81456 2.4276,-2.83839 4.65495,-2.83839 3.647,0 7.72042,3.63314 7.72042,3.63314 l 5.79031,-6.24446 c 0,0 -7.32648,-5.79031 -13.51073,-5.79031 -5.90565,0 -14.30547,3.86757 -14.30547,11.92123 0,6.85227 9.72336,10.00407 9.72336,10.00407 0,0 10.25889,1.09266 10.25889,4.3014 0,2.18357 -3.72028,2.83839 -5.90385,2.83839 -5.30092,0 -9.76405,-4.65495 -9.76405,-4.65495 z" id="path3272" inkscape:connector-curvature="0" sodipodi:nodetypes="csscssccsscsscc" />
    </g>
  </g>
</svg>
