<?xml version="1.0" encoding="utf-8"?>
<!-- Generator: Adobe Illustrator 25.1.0, SVG Export Plug-In . SVG Version: 6.00 Build 0)  -->
<svg version="1.1" id="Layer_1" xmlns="http://www.w3.org/2000/svg" xmlns:xlink="http://www.w3.org/1999/xlink" x="0px" y="0px"
	 viewBox="0 0 1941.2 951" style="enable-background:new 0 0 1941.2 951;" xml:space="preserve">
<style type="text/css">
	.st0{fill-rule:evenodd;clip-rule:evenodd;}
</style>
<g>
	<path class="st0" d="M1251.4,88.5V39h-198v271.8h198v-44.8h-142.9v-73.8h125.2v-48.6h-125.2V88.5H1251.4z M1196.3,338.8v104.6
		h-108.4V338.8h-56v270.8h56V488.2h108.4v121.4h55.1V338.8H1196.3L1196.3,338.8z M1251.4,686.2v-48.5h-198v275.5h198v-49.5h-142.9
		v-72.9h125.2V746h-125.2v-59.8L1251.4,686.2L1251.4,686.2z M1021.6,39h-55.1v104.6H858.2V39h-55.1v271.8h55.1V189.3h108.3v121.4
		h55.1V39z M565.9,39v49.5h84v222.3H705V88.5h84V39H565.9z M392.2,331.3c-86.9,0-132.6,49.5-132.6,142.9
		c0,98.1,45.8,146.6,132.6,146.6s131.7-48.6,131.7-146.6C523.9,380.8,479,331.3,392.2,331.3z M319.3,474.2
		c0-62.6,24.3-93.4,72.8-93.4c52.3,0,76.6,30.8,76.6,93.4c0,66.3-24.3,98.1-76.6,98.1C343.6,572.2,319.3,540.5,319.3,474.2z
		 M180.2,338.8v191.4L71.9,338.8H13v270.8h52.3V419.1l111.1,190.5h58.8V338.8H180.2z M437,749.7v-63.5h139.1v-48.5H381.9v275.5H437
		V798.2h122.3v-48.6L437,749.7L437,749.7z M1011.4,387.3v-48.6H789.1v48.6h83.1v222.3h56V387.3H1011.4L1011.4,387.3z M666.8,505.9
		c17.7,0,31.8,2.8,38.3,10.3l10.3,93.4h62.6v-6.5c-6.5-3.7-10.3-20.5-10.3-52.3c0-38.3-14-58.8-34.6-69.1c28-11.2,42-31.8,42-66.3
		c0-48.6-28-76.6-86.9-76.6H551.9v270.8h56V505.9H666.8z M607.9,460.2v-72.8H677c28,0,42,10.3,42,34.6c0,24.3-14,38.3-44.8,38.3
		L607.9,460.2L607.9,460.2z M705,637.6h-66.3l-97.1,275.5h58.8l21.5-59.8h100.9l16.8,59.8h59.8L705,637.6L705,637.6z M670.5,700.2
		L705,808.5h-69.1L670.5,700.2L670.5,700.2z M976.8,728.2h55.1c-2.8-24.3-10.3-44.8-27.1-62.6c-24.3-20.5-52.3-34.6-90.6-34.6
		s-66.3,14-90.6,38.3c-20.5,24.3-34.6,58.8-34.6,104.6c0,97.1,41.1,145.7,121.4,145.7c70,0,108.3-34.6,121.4-100.8h-55.1
		c-7.5,31.7-31.8,48.6-62.6,48.6c-45.8,0-66.3-30.8-66.3-90.6c0-65.4,20.5-97.1,66.3-97.1C945,679.6,962.8,697.4,976.8,728.2
		L976.8,728.2z M283.9,909.4h0.9H283.9z M284.8,909.4c9.3,0,16.8-3.7,22.4-8.4c4.7-5.6,8.4-13.1,8.4-23.3c0-11.2-3.7-18.7-8.4-23.4
		c-5.6-4.7-13.1-7.5-22.4-7.5h-0.9c-11.2,0-18.7,2.8-23.3,7.5c-4.7,4.7-7.5,12.1-7.5,23.4v0.9c0,9.4,2.8,16.8,7.5,22.4
		c4.7,4.7,12.2,8.4,23.3,8.4L284.8,909.4L284.8,909.4z M283.9,916.8c-13.1,0-22.4-4.7-29-11.2c-6.5-6.5-9.3-15.9-9.3-27.1v-0.9
		c0-13.1,2.8-22.4,9.3-29c6.5-6.5,15.9-9.4,29-9.4h0.9c11.2,0,20.5,2.8,27.1,9.4c6.5,6.5,11.2,15.9,11.2,29c0,12.1-4.7,21.5-11.2,28
		c-7.2,7.2-16.9,11.3-27.1,11.2H283.9z M287.6,873.9h0.9c3.7,0,5.6-1.9,5.6-6.5v-0.9c0,0-0.9,0-0.9-0.9c-0.9-0.9-2.8-0.9-5.6-0.9
		h-10.3v9.4L287.6,873.9L287.6,873.9L287.6,873.9z M294.1,880.4l7.5,9.4c0.9,1.9,0,3.7-0.9,4.7c-1.9,1.9-4.7,0.9-5.6,0l-9.3-13.1
		h-8.4v10.3c0,1.9-1.9,3.7-3.7,3.7c-1.9,0-3.7-1.9-3.7-3.7v-30.8c0-1.9,1.9-3.7,3.7-3.7h14.9c3.7,0,7.5,0.9,9.3,2.8
		c0.9,0.9,1.9,0.9,1.9,1.9c1.9,1.9,1.9,3.7,1.9,5.6C301.6,874.8,299.7,878.5,294.1,880.4L294.1,880.4z M1289.7,39
		c173.7,0,324.1,63.5,445.5,184.9c125.1,125.1,187.7,274.6,187.7,449.2v240h-254V665.6c0-97.1-34.6-181.2-104.6-250.3
		c-16.8-17.7-34.6-31.8-55.1-45.8c-56-38.3-122.3-55.1-191.4-55.1h-28L1289.7,39L1289.7,39L1289.7,39z M1644.5,913.1h-198V721.6
		c0-31.7-10.3-56-31.7-76.6c-20.5-21.5-48.6-31.7-76.6-31.7h-48.6V338.8h28c72.8,0,135.4,20.5,191.4,62.6c14,6.5,28,20.5,38.3,30.8
		c66.3,66.3,97.1,142.9,97.1,233.5V913.1z M1422.3,913.1h-132.6V637.6h48.6c21.5,0,42,7.4,59.8,24.3c14,14,24.3,35.5,24.3,59.8
		V913.1z"/>
</g>
</svg>
