<?xml version="1.0" encoding="UTF-8" standalone="no"?>
<!DOCTYPE svg PUBLIC "-//W3C//DTD SVG 1.1//EN" "http://www.w3.org/Graphics/SVG/1.1/DTD/svg11.dtd">
<svg width="100%" height="100%" viewBox="0 0 62 18" version="1.1" xmlns="http://www.w3.org/2000/svg" xmlns:xlink="http://www.w3.org/1999/xlink" xml:space="preserve" xmlns:serif="http://www.serif.com/" style="fill-rule:evenodd;clip-rule:evenodd;stroke-linejoin:round;stroke-miterlimit:2;">
    <g transform="matrix(1,0,0,1,-1235.79,-191.162)">
        <g>
            <g transform="matrix(1,0,0,1,1250.21,208.334)">
                <path d="M0.007,-17.172L-11.68,-17.172C-13.192,-17.173 -14.42,-15.947 -14.421,-14.434L-14.421,-2.774C-14.433,-1.258 -13.213,-0.021 -11.697,-0.01L-0.022,-0.01C1.493,0.001 2.73,-1.218 2.741,-2.734C2.742,-2.739 2.742,-2.745 2.742,-2.751L2.742,-2.929C2.742,-2.929 -1.693,-4.779 -3.945,-5.871C-5.234,-4.121 -7.235,-3.035 -9.405,-2.907C-12.815,-2.907 -13.975,-5.894 -12.369,-7.855C-11.875,-8.402 -11.219,-8.776 -10.497,-8.925C-9.048,-9.282 -6.73,-8.702 -4.569,-7.989C-4.17,-8.742 -3.849,-9.534 -3.61,-10.352L-10.297,-10.352L-10.297,-11.021L-6.843,-11.021L-6.843,-12.247L-10.986,-12.247L-10.986,-12.916L-6.818,-12.916L-6.818,-14.655C-6.821,-14.812 -6.696,-14.942 -6.539,-14.944L-4.834,-14.944L-4.834,-12.916L-0.711,-12.916L-0.711,-12.247L-4.834,-12.247L-4.834,-11.021L-1.469,-11.021C-1.765,-9.754 -2.245,-8.537 -2.895,-7.41C-1.869,-7.031 -0.955,-6.697 -0.265,-6.452C0.712,-6.076 1.719,-5.785 2.744,-5.583L2.744,-14.432C2.745,-15.945 1.52,-17.172 0.007,-17.172Z" style="fill:rgb(0,160,233);fill-rule:nonzero;"/>
            </g>
            <g transform="matrix(-0.101653,0.99482,0.99482,0.101653,1242.53,199.752)">
                <path d="M1.581,-3.976C2.825,-5.192 4.784,-4.185 4.51,-1.503C4.195,0.225 3.12,1.719 1.581,2.566C0.884,1.027 0.623,-0.673 0.829,-2.351C0.92,-2.952 1.181,-3.516 1.581,-3.976" style="fill:rgb(0,160,233);fill-rule:nonzero;"/>
            </g>
            <g transform="matrix(1,0,0,1,1289.5,204.297)">
                <path d="M0,-7.56L2.272,-7.56L4.523,-3.169L6.373,-7.293C6.408,-7.378 6.472,-7.449 6.553,-7.493C6.635,-7.536 6.727,-7.559 6.819,-7.56L8.045,-7.56L4.479,0.375C3.944,1.696 2.563,2.466 1.158,2.225L1.158,1.025C1.448,1.025 2.406,1.047 2.83,0.557C2.934,0.421 3.016,0.271 3.075,0.111C3.143,-0.023 3.187,-0.134 3.253,-0.246L3.498,-0.826L0,-7.56ZM-2.318,-7.341C-3.677,-7.681 -5.103,-7.642 -6.441,-7.23C-6.374,-7.052 -6.308,-6.74 -6.241,-6.561C-3.41,-7.051 -2.875,-6.673 -2.875,-5.447L-2.875,-5.068C-3.389,-5.113 -4.013,-5.179 -4.502,-5.202C-5.86,-5.293 -7.035,-4.267 -7.127,-2.91C-7.131,-2.849 -7.133,-2.789 -7.133,-2.728C-7.133,-1.034 -5.532,0.548 -2.875,-0.628L-2.875,-0.361L-0.669,-0.361L-0.669,-5.509C-0.748,-6.419 -1.422,-7.165 -2.318,-7.337M-5.35,-2.641C-5.352,-3.461 -4.718,-4.143 -3.9,-4.201C-3.557,-4.252 -3.205,-4.19 -2.9,-4.023L-2.9,-1.505C-3.161,-1.232 -3.523,-1.08 -3.9,-1.081C-4.726,-1.124 -5.366,-1.815 -5.35,-2.641M-15.156,-7.01C-15.157,-7.117 -15.117,-7.221 -15.044,-7.3C-14.971,-7.384 -14.865,-7.433 -14.754,-7.434L-13.017,-7.434L-13.017,-6.877C-12.759,-7.086 -12.474,-7.258 -12.169,-7.389C-11.815,-7.529 -11.437,-7.598 -11.055,-7.589C-10.631,-7.596 -10.212,-7.504 -9.829,-7.322C-9.466,-7.149 -9.141,-6.907 -8.87,-6.609C-8.602,-6.295 -8.398,-5.931 -8.271,-5.539C-8.126,-5.123 -8.05,-4.686 -8.047,-4.246C-8.046,-3.703 -8.128,-3.163 -8.292,-2.646C-8.447,-2.176 -8.697,-1.744 -9.027,-1.376C-9.341,-1.015 -9.729,-0.726 -10.164,-0.529C-10.642,-0.319 -11.158,-0.212 -11.68,-0.217C-11.926,-0.211 -12.171,-0.219 -12.416,-0.239C-12.623,-0.259 -12.825,-0.312 -13.016,-0.395L-13.016,2.458L-15.156,2.458L-15.156,-7.01ZM-12.928,-2.151C-12.933,-1.983 -12.902,-1.816 -12.838,-1.661C-12.775,-1.512 -12.685,-1.376 -12.571,-1.261C-12.448,-1.146 -12.305,-1.056 -12.148,-0.993C-11.978,-0.929 -11.796,-0.899 -11.613,-0.904C-11.428,-0.909 -11.249,-0.971 -11.101,-1.082C-10.925,-1.222 -10.781,-1.396 -10.677,-1.595C-10.546,-1.848 -10.448,-2.117 -10.387,-2.395C-10.313,-2.723 -10.276,-3.059 -10.274,-3.395C-10.267,-3.805 -10.296,-4.216 -10.363,-4.621C-10.416,-4.928 -10.507,-5.227 -10.631,-5.512C-10.716,-5.722 -10.854,-5.906 -11.031,-6.047C-11.18,-6.158 -11.359,-6.22 -11.544,-6.225C-11.681,-6.224 -11.815,-6.202 -11.944,-6.158C-12.074,-6.113 -12.194,-6.045 -12.3,-5.958C-12.417,-5.868 -12.528,-5.771 -12.634,-5.668C-12.743,-5.559 -12.84,-5.439 -12.924,-5.311L-12.924,-2.146L-12.928,-2.151ZM-19.168,-6.921C-19.167,-7.032 -19.118,-7.138 -19.034,-7.211C-18.95,-7.289 -18.837,-7.33 -18.723,-7.322L-16.922,-7.322L-16.922,-0.19L-19.15,-0.19L-19.15,-6.921L-19.168,-6.921ZM-20.929,-0.435L-23.181,-0.435L-23.181,-9.618C-23.179,-9.729 -23.13,-9.834 -23.046,-9.908C-22.962,-9.986 -22.849,-10.026 -22.734,-10.019L-20.929,-10.019L-20.929,-0.435ZM-26.435,-0.435L-24.071,-0.435L-28.484,-10.019L-29.127,-10.019C-29.231,-10.024 -29.334,-9.992 -29.417,-9.93C-29.501,-9.873 -29.569,-9.796 -29.617,-9.707L-34.098,-0.435L-32.515,-0.435L-31.714,-1.995L-27.167,-1.995L-26.433,-0.435L-26.435,-0.435ZM-29.376,-6.899L-27.415,-2.664L-31.428,-2.664L-29.376,-6.899Z" style="fill-rule:nonzero;"/>
            </g>
            <g transform="matrix(1,0,0,1,1272.56,195.105)">
                <path d="M0,-0.269C0.067,0.347 -0.378,0.9 -0.993,0.966C-1.608,1.033 -2.162,0.588 -2.229,-0.027C-2.296,-0.643 -1.851,-1.195 -1.235,-1.262C-1.195,-1.267 -1.154,-1.269 -1.114,-1.269C-0.532,-1.302 -0.033,-0.858 0,-0.276L0,-0.269" style="fill:rgb(0,160,233);fill-rule:nonzero;"/>
            </g>
        </g>
    </g>
</svg>
