<?xml version="1.0" encoding="UTF-8" standalone="no"?>
<!DOCTYPE svg PUBLIC "-//W3C//DTD SVG 1.1//EN" "http://www.w3.org/Graphics/SVG/1.1/DTD/svg11.dtd">
<svg width="100%" height="100%" viewBox="0 0 50 21" version="1.1" xmlns="http://www.w3.org/2000/svg" xmlns:xlink="http://www.w3.org/1999/xlink" xml:space="preserve" xmlns:serif="http://www.serif.com/" style="fill-rule:evenodd;clip-rule:evenodd;stroke-linejoin:round;stroke-miterlimit:2;">
    <g transform="matrix(1,0,0,1,-834.534,-189.982)">
        <g transform="matrix(1,0,0,1,875.373,189.995)">
            <path d="M0,20.169C2.267,20.169 3.334,19.304 4.266,16.682L8.349,5.23L5.985,5.23L3.247,14.09L3.199,14.09L0.461,5.242L-1.97,5.242L1.969,16.142L1.758,16.805C1.609,17.754 0.757,18.431 -0.202,18.361C-0.385,18.361 -0.74,18.342 -0.884,18.323L-0.884,20.123C-0.591,20.163 -0.295,20.182 0,20.181L0,20.169ZM-7.878,14.434C-9.118,14.434 -9.905,13.834 -9.905,12.926C-9.905,11.985 -9.146,11.437 -7.695,11.35L-5.111,11.187L-5.111,12.033C-5.168,13.427 -6.345,14.512 -7.739,14.455C-7.786,14.453 -7.832,14.449 -7.878,14.445L-7.878,14.434ZM-8.502,16.211C-7.095,16.249 -5.779,15.516 -5.072,14.299L-5.024,14.299L-5.024,16.099L-2.872,16.099L-2.872,8.644C-2.872,6.482 -4.601,5.089 -7.263,5.089C-9.732,5.089 -11.558,6.501 -11.625,8.442L-9.53,8.442C-9.28,7.455 -8.342,6.804 -7.33,6.914C-5.908,6.914 -5.111,7.577 -5.111,8.797L-5.111,9.623L-8.011,9.796C-10.711,9.959 -12.171,11.064 -12.171,12.986C-12.173,14.935 -10.665,16.222 -8.503,16.222L-8.502,16.211ZM-20.973,3.078L-18.293,3.078C-16.275,3.078 -15.122,4.154 -15.122,6.047C-15.122,7.94 -16.275,9.025 -18.302,9.025L-20.973,9.025L-20.973,3.078ZM-23.298,1.118L-23.298,16.096L-20.973,16.096L-20.973,10.99L-17.754,10.99C-15.132,11.131 -12.893,9.12 -12.752,6.498C-12.744,6.349 -12.743,6.201 -12.749,6.052C-12.625,3.459 -14.626,1.257 -17.219,1.132C-17.372,1.125 -17.524,1.126 -17.677,1.133L-23.298,1.118ZM-31.015,3.913C-32.351,3.836 -33.494,4.672 -34.128,4.672C-34.762,4.672 -35.742,3.952 -36.799,3.972C-38.199,4.008 -39.475,4.783 -40.152,6.009C-41.593,8.488 -40.527,12.158 -39.134,14.175C-38.452,15.175 -37.634,16.27 -36.559,16.231C-35.541,16.193 -35.137,15.568 -33.907,15.568C-32.677,15.568 -32.312,16.231 -31.236,16.211C-30.122,16.192 -29.42,15.211 -28.736,14.211C-28.254,13.503 -27.879,12.728 -27.622,11.911C-28.935,11.337 -29.786,10.044 -29.793,8.611C-29.773,7.347 -29.111,6.181 -28.035,5.518C-28.721,4.544 -29.822,3.946 -31.013,3.904M-31.849,2.59C-32.434,3.327 -33.329,3.75 -34.27,3.733C-34.33,2.815 -34.018,1.912 -33.405,1.226C-32.795,0.518 -31.935,0.074 -31.005,-0.013C-30.939,0.931 -31.242,1.863 -31.851,2.587" style="fill-rule:nonzero;"/>
        </g>
    </g>
</svg>
