<?xml version="1.0" encoding="UTF-8" standalone="no"?>
<!DOCTYPE svg PUBLIC "-//W3C//DTD SVG 1.1//EN" "http://www.w3.org/Graphics/SVG/1.1/DTD/svg11.dtd">
<svg width="100%" height="100%" viewBox="0 0 59 42" version="1.1" xmlns="http://www.w3.org/2000/svg" xmlns:xlink="http://www.w3.org/1999/xlink" xml:space="preserve" xmlns:serif="http://www.serif.com/" style="fill-rule:evenodd;clip-rule:evenodd;stroke-linejoin:round;stroke-miterlimit:2;">
    <g transform="matrix(1,0,0,1,-931.438,-404.984)">
        <g>
            <g transform="matrix(1,0,0,1,963.675,404.883)">
                <path d="M0,23.925C6.513,23.956 12.457,18.616 12.457,12.117C12.457,5.017 6.513,0.101 0,0.104L-5.6,0.104C-12.087,-0.043 -17.465,5.096 -17.613,11.583C-17.617,11.761 -17.617,11.939 -17.613,12.117C-17.543,18.689 -12.172,23.968 -5.6,23.925L0,23.925Z" style="fill:rgb(0,74,152);fill-rule:nonzero;"/>
            </g>
            <g transform="matrix(1,0,0,1,958.098,427.777)">
                <path d="M0,-21.806C-6.021,-21.802 -10.899,-16.921 -10.9,-10.9C-10.896,-4.882 -6.019,-0.003 0,0C6.019,-0.003 10.897,-4.881 10.9,-10.9C10.9,-16.921 6.021,-21.802 0,-21.806M-6.912,-10.9C-6.907,-13.761 -5.145,-16.324 -2.475,-17.351L-2.475,-4.451C-5.144,-5.478 -6.907,-8.04 -6.912,-10.9M2.472,-4.451L2.472,-17.351C5.143,-16.326 6.908,-13.762 6.912,-10.9C6.908,-8.039 5.143,-5.475 2.472,-4.449" style="fill:white;fill-rule:nonzero;"/>
            </g>
            <g transform="matrix(1,0,0,1,932.64,437.025)">
                <path d="M0,-5.995C0,-7.128 -0.591,-7.052 -1.157,-7.065L-1.157,-7.393C-0.667,-7.368 -0.163,-7.368 0.33,-7.368C0.857,-7.368 1.575,-7.393 2.508,-7.393C5.769,-7.393 7.546,-5.215 7.546,-2.984C7.546,-1.738 6.815,1.398 2.357,1.398C1.715,1.398 1.122,1.373 0.531,1.373C-0.036,1.373 -0.592,1.385 -1.157,1.398L-1.157,1.071C-0.402,0.995 -0.036,0.971 0,0.114L0,-5.995ZM1.235,-0.088C1.235,0.883 1.929,0.995 2.545,0.995C5.266,0.995 6.159,-1.057 6.159,-2.934C6.311,-5.018 4.744,-6.831 2.66,-6.983C2.513,-6.994 2.365,-6.995 2.218,-6.989C1.7,-6.989 1.463,-6.952 1.235,-6.938L1.235,-0.088Z" style="fill:rgb(0,74,152);fill-rule:nonzero;"/>
            </g>
            <g transform="matrix(1,0,0,1,940.629,429.82)">
                <path d="M0,8.276L0.24,8.276C0.593,8.276 0.84,8.276 0.84,7.859L0.84,4.446C0.84,3.893 0.652,3.816 0.185,3.565L0.185,3.365C0.777,3.187 1.485,2.949 1.533,2.913C1.601,2.871 1.68,2.848 1.76,2.848C1.822,2.848 1.848,2.924 1.848,3.025L1.848,7.86C1.848,8.277 2.125,8.277 2.478,8.277L2.692,8.277L2.692,8.604C2.263,8.604 1.822,8.579 1.37,8.579C0.918,8.579 0.463,8.591 -0.003,8.604L0,8.276ZM1.349,0.908C1.009,0.893 0.739,0.618 0.73,0.278C0.749,-0.054 1.018,-0.316 1.349,-0.328C1.686,-0.328 1.959,-0.058 1.965,0.278C1.965,0.62 1.692,0.901 1.349,0.908" style="fill:rgb(0,74,152);fill-rule:nonzero;"/>
            </g>
            <g transform="matrix(1,0,0,1,944.518,436.76)">
                <path d="M0,-2.419C0,-2.884 -0.139,-3.009 -0.729,-3.248L-0.729,-3.488C-0.166,-3.659 0.389,-3.859 0.932,-4.088C0.97,-4.088 1.006,-4.062 1.006,-3.962L1.006,-3.144C1.609,-3.69 2.376,-4.022 3.188,-4.088C4.258,-4.088 4.635,-3.307 4.635,-2.325L4.635,0.924C4.635,1.341 4.912,1.341 5.265,1.341L5.492,1.341L5.492,1.668C5.051,1.668 4.609,1.643 4.157,1.643C3.704,1.643 3.25,1.655 2.795,1.668L2.795,1.341L3.023,1.341C3.375,1.341 3.624,1.341 3.624,0.924L3.624,-2.336C3.624,-3.055 3.186,-3.407 2.467,-3.407C1.937,-3.325 1.436,-3.117 1.004,-2.801L1.004,0.925C1.004,1.342 1.283,1.342 1.636,1.342L1.864,1.342L1.864,1.669C1.422,1.669 0.981,1.644 0.528,1.644C0.075,1.644 -0.379,1.656 -0.834,1.669L-0.834,1.342L-0.605,1.342C-0.254,1.342 -0.005,1.342 -0.005,0.925L0,-2.419Z" style="fill:rgb(0,74,152);fill-rule:nonzero;"/>
            </g>
            <g transform="matrix(1,0,0,1,950.967,436.257)">
                <path d="M0,-1.312C-0.028,-1.07 -0.028,-0.825 0,-0.582C-0.047,0.516 0.76,1.466 1.852,1.597C2.51,1.559 3.124,1.254 3.552,0.754L3.726,0.929C3.229,1.755 2.36,2.287 1.398,2.352C-0.602,2.352 -1.009,0.413 -1.009,-0.393C-1.009,-2.862 0.653,-3.593 1.534,-3.593C2.636,-3.664 3.587,-2.828 3.658,-1.726C3.66,-1.689 3.662,-1.652 3.662,-1.615C3.664,-1.54 3.66,-1.463 3.651,-1.388L3.537,-1.312L0,-1.312ZM2.229,-1.712C2.545,-1.712 2.581,-1.876 2.581,-2.028C2.632,-2.615 2.198,-3.133 1.611,-3.184C1.567,-3.187 1.524,-3.189 1.481,-3.187C0.713,-3.187 0.181,-2.62 0.034,-1.712L2.229,-1.712Z" style="fill:rgb(0,74,152);fill-rule:nonzero;"/>
            </g>
            <g transform="matrix(1,0,0,1,954.921,432.976)">
                <path d="M0,5.12L0.34,5.12C0.693,5.12 0.94,5.12 0.94,4.703L0.94,1.165C0.94,0.775 0.475,0.698 0.285,0.597L0.285,0.409C1.204,0.018 1.709,-0.309 1.824,-0.309C1.899,-0.309 1.936,-0.271 1.936,-0.144L1.936,0.989L1.963,0.989C2.276,0.498 2.807,-0.311 3.575,-0.311C3.953,-0.328 4.274,-0.036 4.291,0.343C4.292,0.347 4.292,0.351 4.292,0.356C4.31,0.693 4.051,0.98 3.714,0.998C3.708,0.998 3.704,0.999 3.699,0.999C3.309,0.999 3.309,0.699 2.869,0.699C2.345,0.77 1.953,1.216 1.95,1.745L1.95,4.704C1.95,5.121 2.2,5.121 2.55,5.121L3.25,5.121L3.25,5.448C2.558,5.436 2.03,5.423 1.488,5.423C0.97,5.423 0.444,5.435 -0.012,5.448L0,5.12Z" style="fill:rgb(0,74,152);fill-rule:nonzero;"/>
            </g>
            <g transform="matrix(1,0,0,1,959.77,434.539)">
                <path d="M0,2.133C0.062,2.974 0.744,3.635 1.586,3.67C2.073,3.742 2.525,3.406 2.596,2.921C2.604,2.873 2.607,2.824 2.606,2.775C2.606,1.289 -0.139,1.767 -0.139,-0.261C-0.081,-1.216 0.74,-1.942 1.695,-1.884C1.734,-1.882 1.774,-1.878 1.813,-1.873C2.313,-1.861 2.804,-1.736 3.249,-1.507L3.337,-0.224L3.046,-0.224C3.022,-0.937 2.424,-1.495 1.711,-1.471C1.699,-1.47 1.686,-1.47 1.673,-1.469C1.188,-1.523 0.75,-1.173 0.696,-0.687C0.694,-0.671 0.693,-0.655 0.692,-0.638C0.692,0.836 3.614,0.381 3.614,2.362C3.614,3.194 2.947,4.075 1.447,4.075C0.908,4.06 0.38,3.914 -0.089,3.648L-0.229,2.2L0,2.133Z" style="fill:rgb(0,74,152);fill-rule:nonzero;"/>
            </g>
            <g transform="matrix(1,0,0,1,974.757,436.252)">
                <path d="M0,-4.341L-0.314,-4.341C-0.489,-5.655 -1.695,-6.579 -3.009,-6.405C-4.459,-6.405 -6.562,-5.436 -6.562,-2.412C-6.718,-0.174 -5.046,1.774 -2.81,1.959C-1.542,1.959 -0.465,1.033 -0.275,-0.22L0.014,-0.145L-0.275,1.694C-1.148,2.104 -2.097,2.331 -3.061,2.361C-5.528,2.547 -7.68,0.696 -7.865,-1.772C-7.881,-1.972 -7.882,-2.174 -7.87,-2.374C-7.764,-4.91 -5.636,-6.888 -3.099,-6.808C-2.077,-6.754 -1.072,-6.529 -0.126,-6.14L0,-4.341Z" style="fill:rgb(0,74,152);fill-rule:nonzero;"/>
            </g>
            <g transform="matrix(1,0,0,1,975.212,429.129)">
                <path d="M0,8.967L0.239,8.967C0.594,8.967 0.84,8.967 0.84,8.55L0.84,1.537C0.84,0.717 0.651,0.693 0.173,0.554L0.173,0.354C0.621,0.212 1.056,0.031 1.473,-0.188C1.559,-0.245 1.651,-0.292 1.748,-0.327C1.826,-0.327 1.849,-0.251 1.849,-0.15L1.849,8.55C1.849,8.967 2.124,8.967 2.479,8.967L2.689,8.967L2.689,9.294C2.263,9.294 1.823,9.27 1.368,9.27C0.913,9.27 0.461,9.282 -0.004,9.294L0,8.967Z" style="fill:rgb(0,74,152);fill-rule:nonzero;"/>
            </g>
            <g transform="matrix(1,0,0,1,983.298,433.761)">
                <path d="M0,3.969C0,4.197 0.137,4.208 0.354,4.208C0.503,4.208 0.692,4.197 0.854,4.197L0.854,4.462C0.24,4.549 -0.366,4.678 -0.961,4.851L-1.023,4.814L-1.023,3.794C-1.608,4.413 -2.404,4.791 -3.254,4.851C-4.003,4.871 -4.626,4.28 -4.646,3.53C-4.647,3.47 -4.646,3.41 -4.639,3.351L-4.639,0.126C-4.639,-0.201 -4.688,-0.517 -5.393,-0.574L-5.393,-0.813C-4.939,-0.826 -3.933,-0.902 -3.769,-0.902C-3.629,-0.902 -3.629,-0.813 -3.629,-0.537L-3.629,2.712C-3.629,3.09 -3.629,4.173 -2.528,4.173C-1.954,4.081 -1.422,3.813 -1.006,3.406L-1.006,0.017C-1.006,-0.234 -1.605,-0.373 -2.063,-0.498L-2.063,-0.725C-0.931,-0.8 -0.226,-0.901 -0.1,-0.901C0,-0.901 0,-0.812 0,-0.673L0,3.969Z" style="fill:rgb(0,74,152);fill-rule:nonzero;"/>
            </g>
            <g transform="matrix(1,0,0,1,985.804,433.842)">
                <path d="M0,-0.268C0.506,-0.772 1.167,-1.092 1.876,-1.175C3.229,-1.118 4.281,0.025 4.224,1.379C4.223,1.409 4.221,1.44 4.219,1.47C4.286,3.208 2.944,4.678 1.207,4.77C0.597,4.77 -0.004,4.619 -0.542,4.331L-0.922,4.62L-1.186,4.482C-1.069,3.74 -1.011,2.991 -1.009,2.24L-1.009,-3.175C-1.009,-3.995 -1.198,-4.019 -1.678,-4.158L-1.678,-4.358C-1.229,-4.5 -0.794,-4.681 -0.377,-4.9C-0.29,-4.957 -0.196,-5.004 -0.099,-5.038C-0.023,-5.038 0.002,-4.963 0.002,-4.862L0,-0.268ZM0,3.158C0.035,3.858 0.6,4.417 1.301,4.444C2.649,4.444 3.215,3.12 3.215,1.999C3.277,0.776 2.41,-0.298 1.201,-0.494C0.744,-0.445 0.318,-0.235 0.002,0.099L0,3.158Z" style="fill:rgb(0,74,152);fill-rule:nonzero;"/>
            </g>
            <g transform="matrix(1,0,0,1,931.468,441.375)">
                <path d="M0,4.372L0.1,4.372C0.347,4.372 0.606,4.337 0.606,3.98L0.606,0.392C0.606,0.034 0.346,0 0.1,0L0,0L0,-0.206C0.268,-0.206 0.68,-0.179 1.016,-0.179C1.352,-0.179 1.769,-0.206 2.09,-0.206L2.09,0L1.99,0C1.746,0 1.484,0.034 1.484,0.392L1.484,3.98C1.484,4.337 1.746,4.372 1.99,4.372L2.09,4.372L2.09,4.578C1.762,4.578 1.349,4.55 1.007,4.55C0.665,4.55 0.267,4.578 -0.001,4.578L0,4.372Z" style="fill:rgb(0,74,152);fill-rule:nonzero;"/>
            </g>
            <g transform="matrix(1,0,0,1,933.557,441.137)">
                <path d="M0,4.843C-0.33,4.843 -0.741,4.816 -1.082,4.816C-1.423,4.816 -1.819,4.843 -2.09,4.843L-2.119,4.843L-2.119,4.578L-1.994,4.578C-1.745,4.572 -1.519,4.553 -1.515,4.217L-1.515,0.629C-1.515,0.292 -1.745,0.271 -1.994,0.266L-2.119,0.266L-2.119,0L-2.09,0C-1.819,0 -1.411,0.027 -1.074,0.027C-0.737,0.027 -0.323,0 0,0L0.032,0L0.032,0.266L-0.095,0.266C-0.343,0.266 -0.571,0.292 -0.571,0.629L-0.571,4.217C-0.571,4.553 -0.343,4.573 -0.095,4.578L0.032,4.578L0.032,4.843L0,4.843ZM-0.029,4.785L-0.029,4.639L-0.095,4.639C-0.34,4.639 -0.631,4.598 -0.632,4.218L-0.632,0.63C-0.632,0.251 -0.34,0.208 -0.095,0.208L-0.029,0.208L-0.029,0.062C-0.344,0.062 -0.742,0.09 -1.073,0.09C-1.404,0.09 -1.793,0.063 -2.058,0.062L-2.058,0.208L-1.993,0.208C-1.748,0.208 -1.456,0.251 -1.456,0.63L-1.456,4.218C-1.456,4.598 -1.748,4.639 -1.993,4.639L-2.058,4.639L-2.058,4.785C-1.793,4.785 -1.405,4.758 -1.081,4.758C-0.757,4.758 -0.352,4.784 -0.029,4.785" style="fill:rgb(0,74,152);fill-rule:nonzero;"/>
            </g>
            <g transform="matrix(1,0,0,1,938.268,442.618)">
                <path d="M0,1.984L0.013,1.969L0.013,-0.6C0.057,-0.91 -0.159,-1.196 -0.468,-1.24C-0.507,-1.245 -0.547,-1.246 -0.587,-1.244L-0.738,-1.244L-0.738,-1.45C-0.416,-1.45 -0.1,-1.423 0.221,-1.423C0.502,-1.423 0.784,-1.45 1.064,-1.45L1.064,-1.244L0.964,-1.244C0.675,-1.244 0.352,-1.189 0.352,-0.374L0.352,2.745C0.348,2.977 0.362,3.208 0.393,3.437L0.134,3.437L-3.396,-0.497L-3.396,2.326C-3.396,2.926 -3.281,3.126 -2.752,3.126L-2.635,3.126L-2.635,3.332C-2.93,3.332 -3.225,3.304 -3.52,3.304C-3.815,3.304 -4.144,3.332 -4.452,3.332L-4.452,3.126L-4.352,3.126C-3.878,3.126 -3.735,2.803 -3.735,2.255L-3.735,-0.631C-3.734,-0.971 -4.009,-1.246 -4.349,-1.247L-4.447,-1.247L-4.447,-1.453C-4.187,-1.453 -3.92,-1.426 -3.66,-1.426C-3.453,-1.426 -3.26,-1.453 -3.049,-1.453L0,1.984Z" style="fill:rgb(0,74,152);fill-rule:nonzero;"/>
            </g>
            <g transform="matrix(1,0,0,1,938.665,441.138)">
                <path d="M0,4.948L-0.284,4.938L-3.761,1.062L-3.761,3.809C-3.753,4.409 -3.661,4.574 -3.146,4.58L-3,4.58L-3,4.845L-3.029,4.845C-3.329,4.845 -3.622,4.818 -3.914,4.818C-4.222,4.818 -4.537,4.845 -4.846,4.845L-4.876,4.845L-4.876,4.58L-4.751,4.58C-4.297,4.58 -4.169,4.287 -4.163,3.741L-4.163,0.852C-4.164,0.528 -4.427,0.264 -4.752,0.265L-4.882,0.265L-4.882,0.001L-4.852,0.001C-4.591,0.001 -4.323,0.026 -4.065,0.026C-3.865,0.026 -3.665,0.001 -3.432,0.011L-0.419,3.401L-0.419,0.88C-0.419,0.334 -0.788,0.269 -0.987,0.264L-1.168,0.264L-1.168,0L-1.138,0C-0.815,0 -0.498,0.025 -0.18,0.025C0.1,0.025 0.382,0 0.664,0L0.695,0L0.695,0.264L0.563,0.264C0.279,0.273 -0.011,0.296 -0.019,1.104L-0.019,4.223C-0.023,4.453 -0.01,4.682 0.021,4.909L0.028,4.944L0,4.948ZM-0.26,4.889L-0.034,4.889C-0.063,4.67 -0.076,4.449 -0.071,4.228L-0.071,1.109C-0.071,0.288 0.273,0.209 0.57,0.209L0.642,0.209L0.642,0.063C0.371,0.063 0.101,0.091 -0.172,0.091C-0.485,0.091 -0.79,0.064 -1.1,0.063L-1.1,0.209L-0.98,0.209C-0.649,0.192 -0.367,0.447 -0.35,0.778C-0.348,0.813 -0.35,0.849 -0.354,0.884L-0.362,3.474L-0.376,3.487L-0.398,3.508L-3.446,0.062C-3.651,0.062 -3.846,0.09 -4.057,0.09C-4.308,0.09 -4.566,0.063 -4.815,0.062L-4.815,0.208L-4.755,0.208C-4.399,0.203 -4.106,0.488 -4.101,0.844L-4.101,3.74C-4.101,4.288 -4.254,4.64 -4.748,4.64L-4.815,4.64L-4.815,4.787C-4.515,4.787 -4.215,4.76 -3.915,4.76C-3.615,4.76 -3.344,4.785 -3.062,4.787L-3.062,4.642L-3.147,4.642C-3.688,4.642 -3.821,4.407 -3.821,3.809L-3.821,0.909L-0.26,4.889ZM-0.398,3.467L-0.377,3.447L-0.398,3.467ZM-0.413,3.452L-0.42,3.446L-0.413,3.452Z" style="fill:rgb(0,74,152);fill-rule:nonzero;"/>
            </g>
            <g transform="matrix(1,0,0,1,940.363,445.402)">
                <path d="M0,-3.891C-0.514,-3.891 -0.535,-3.769 -0.638,-3.268L-0.843,-3.268C-0.817,-3.459 -0.781,-3.651 -0.76,-3.85C-0.733,-4.043 -0.72,-4.237 -0.72,-4.432L-0.556,-4.432C-0.501,-4.226 -0.329,-4.232 -0.144,-4.232L3.394,-4.232C3.579,-4.232 3.749,-4.238 3.762,-4.444L3.927,-4.416C3.9,-4.232 3.872,-4.046 3.853,-3.862C3.833,-3.678 3.838,-3.491 3.838,-3.307L3.632,-3.23C3.619,-3.483 3.583,-3.889 3.125,-3.889L2.002,-3.889L2.002,-0.242C2.002,0.286 2.242,0.347 2.57,0.347L2.702,0.347L2.702,0.553C2.435,0.553 1.954,0.525 1.584,0.525C1.174,0.525 0.692,0.553 0.425,0.553L0.425,0.347L0.555,0.347C0.934,0.347 1.123,0.312 1.123,-0.229L1.123,-3.889L0,-3.891Z" style="fill:rgb(0,74,152);fill-rule:nonzero;"/>
            </g>
            <g transform="matrix(1,0,0,1,943.065,440.924)">
                <path d="M0,5.057C-0.27,5.057 -0.748,5.03 -1.117,5.03C-1.528,5.03 -2.007,5.057 -2.277,5.057L-2.305,5.057L-2.305,4.792L-2.147,4.792C-1.767,4.784 -1.615,4.779 -1.608,4.248L-1.608,0.618L-2.701,0.618L-2.701,0.558L-1.548,0.558L-1.548,4.249C-1.548,4.799 -1.77,4.849 -2.148,4.855L-2.248,4.855L-2.248,4.999C-1.978,4.999 -1.518,4.973 -1.12,4.973C-0.763,4.973 -0.306,4.998 -0.034,4.999L-0.034,4.855L-0.134,4.855C-0.465,4.855 -0.734,4.773 -0.734,4.236L-0.734,0.559L0.419,0.559C0.878,0.559 0.94,0.951 0.955,1.206L1.102,1.152C1.102,0.973 1.102,0.794 1.115,0.614C1.127,0.434 1.16,0.263 1.186,0.089L1.085,0.072C1.053,0.272 0.861,0.281 0.686,0.278L-2.883,0.278C-3.046,0.278 -3.221,0.272 -3.283,0.078L-3.396,0.078C-3.398,0.264 -3.412,0.449 -3.438,0.633C-3.458,0.822 -3.489,1.002 -3.513,1.184L-3.368,1.184C-3.277,0.706 -3.218,0.551 -2.706,0.558L-2.706,0.618C-3.213,0.628 -3.206,0.712 -3.314,1.218L-3.314,1.242L-3.579,1.242L-3.574,1.207C-3.547,1.014 -3.511,0.823 -3.491,0.624C-3.463,0.433 -3.449,0.24 -3.449,0.047L-3.449,0.018L-3.232,0.018L-3.232,0.038C-3.186,0.212 -3.057,0.212 -2.882,0.215L0.687,0.215C0.877,0.215 1.017,0.21 1.029,0.03L1.029,-0.001L1.061,0.005L1.252,0.036L1.252,0.065C1.226,0.249 1.199,0.434 1.179,0.618C1.159,0.802 1.165,0.985 1.165,1.17L1.165,1.191L1.145,1.2L0.904,1.287L0.904,1.247C0.884,0.991 0.858,0.618 0.425,0.618L-0.668,0.618L-0.668,4.235C-0.663,4.751 -0.458,4.787 -0.13,4.793L0.03,4.793L0.03,5.058L0,5.057Z" style="fill:rgb(0,74,152);fill-rule:nonzero;"/>
            </g>
            <g transform="matrix(1,0,0,1,944.508,441.379)">
                <path d="M0,4.368L0.1,4.368C0.347,4.368 0.608,4.333 0.608,3.976L0.608,0.388C0.608,0.03 0.347,-0.004 0.1,-0.004L0,-0.004L0,-0.21C0.417,-0.21 1.131,-0.183 1.7,-0.183C2.269,-0.183 2.99,-0.21 3.455,-0.21C3.444,0.084 3.455,0.539 3.469,0.839L3.269,0.894C3.235,0.449 3.154,0.094 2.433,0.094L1.482,0.094L1.482,1.888L2.296,1.888C2.708,1.888 2.796,1.656 2.838,1.288L3.043,1.288C3.03,1.556 3.023,1.823 3.023,2.088C3.023,2.353 3.03,2.609 3.043,2.87L2.838,2.91C2.797,2.5 2.776,2.233 2.303,2.233L1.482,2.233L1.482,3.828C1.482,4.274 1.882,4.274 2.316,4.274C3.138,4.274 3.502,4.219 3.708,3.439L3.899,3.486C3.81,3.85 3.728,4.213 3.668,4.578C3.229,4.578 2.44,4.55 1.823,4.55C1.206,4.55 0.392,4.578 0.002,4.578L0,4.368Z" style="fill:rgb(0,74,152);fill-rule:nonzero;"/>
            </g>
            <g transform="matrix(1,0,0,1,948.173,441.136)">
                <path d="M0,4.841C-0.441,4.841 -1.228,4.814 -1.844,4.814C-2.46,4.814 -3.275,4.841 -3.665,4.841L-3.695,4.841L-3.695,4.576L-3.57,4.576C-3.322,4.576 -3.097,4.551 -3.093,4.215L-3.093,0.627C-3.093,0.292 -3.322,0.27 -3.57,0.264L-3.695,0.264L-3.695,0L-3.665,0C-3.248,0 -2.535,0.025 -1.965,0.025C-1.395,0.025 -0.676,0 -0.21,0L-0.178,0L-0.178,0.03C-0.185,0.13 -0.187,0.255 -0.187,0.384C-0.187,0.622 -0.178,0.884 -0.165,1.075L-0.165,1.101L-0.187,1.107L-0.426,1.17L-0.426,1.135C-0.467,0.691 -0.526,0.367 -1.231,0.362L-2.154,0.362L-2.154,2.096L-1.367,2.096C-0.972,2.096 -0.902,1.891 -0.856,1.521L-0.856,1.493L-0.593,1.493L-0.593,1.525C-0.606,1.791 -0.614,2.058 -0.614,2.325C-0.614,2.592 -0.606,2.844 -0.593,3.105L-0.593,3.131L-0.618,3.131L-0.856,3.18L-0.856,3.147C-0.902,2.728 -0.905,2.5 -1.356,2.495L-2.149,2.495L-2.149,4.062C-2.149,4.479 -1.788,4.476 -1.342,4.479C-0.519,4.473 -0.186,4.434 0.019,3.663L0.027,3.636L0.056,3.641L0.275,3.697L0.27,3.726C0.18,4.087 0.098,4.451 0.038,4.815L0.032,4.837L0,4.841ZM-0.025,4.786C0.036,4.441 0.115,4.094 0.198,3.749L0.062,3.715C-0.144,4.483 -0.538,4.551 -1.348,4.545C-1.78,4.545 -2.212,4.545 -2.213,4.069L-2.213,2.444L-1.362,2.444C-0.884,2.439 -0.836,2.727 -0.802,3.117L-0.654,3.085C-0.667,2.834 -0.674,2.585 -0.674,2.329C-0.674,2.073 -0.667,1.815 -0.654,1.556L-0.802,1.556C-0.84,1.914 -0.951,2.164 -1.369,2.156L-2.213,2.156L-2.213,0.301L-1.232,0.301C-0.519,0.301 -0.401,0.664 -0.37,1.094L-0.221,1.055C-0.234,0.862 -0.242,0.613 -0.242,0.384C-0.242,0.267 -0.242,0.156 -0.236,0.059C-0.701,0.059 -1.396,0.087 -1.961,0.087C-2.526,0.087 -3.216,0.06 -3.637,0.059L-3.637,0.205L-3.57,0.205C-3.325,0.205 -3.034,0.248 -3.033,0.627L-3.033,4.215C-3.033,4.595 -3.325,4.636 -3.57,4.637L-3.637,4.637L-3.637,4.781C-3.237,4.781 -2.445,4.755 -1.844,4.755C-1.243,4.755 -0.468,4.781 -0.026,4.781" style="fill:rgb(0,74,152);fill-rule:nonzero;"/>
            </g>
            <g transform="matrix(1,0,0,1,949.332,445.225)">
                <path d="M0,-3.33C0,-3.83 -0.274,-3.851 -0.487,-3.851L-0.61,-3.851L-0.61,-4.057C-0.391,-4.057 0.033,-4.03 0.453,-4.03C0.873,-4.03 1.192,-4.057 1.553,-4.057C2.416,-4.057 3.184,-3.825 3.184,-2.85C3.166,-2.282 2.779,-1.793 2.231,-1.644L3.402,0.109C3.532,0.358 3.788,0.516 4.068,0.521L4.068,0.727C3.841,0.727 3.62,0.699 3.395,0.699C3.17,0.699 2.964,0.727 2.753,0.727C2.227,0.021 1.75,-0.722 1.327,-1.495L0.875,-1.495L0.875,-0.027C0.875,0.501 1.121,0.521 1.435,0.521L1.559,0.521L1.559,0.727C1.168,0.727 0.772,0.699 0.38,0.699C0.05,0.699 -0.27,0.727 -0.613,0.727L-0.613,0.521L-0.49,0.521C-0.235,0.521 -0.002,0.404 -0.002,0.15L0,-3.33ZM0.877,-1.741L1.212,-1.741C1.898,-1.741 2.266,-2 2.266,-2.809C2.304,-3.323 1.917,-3.771 1.403,-3.809C1.357,-3.812 1.312,-3.812 1.266,-3.809C1.136,-3.808 1.005,-3.799 0.876,-3.783L0.877,-1.741Z" style="fill:rgb(0,74,152);fill-rule:nonzero;"/>
            </g>
            <g transform="matrix(1,0,0,1,953.401,441.136)">
                <path d="M0,4.845C-0.229,4.845 -0.448,4.818 -0.672,4.818C-0.881,4.818 -1.1,4.845 -1.34,4.834C-1.862,4.132 -2.336,3.394 -2.757,2.626L-3.164,2.626L-3.164,4.062C-3.155,4.577 -2.948,4.573 -2.631,4.58L-2.477,4.58L-2.477,4.845L-2.509,4.845C-2.9,4.845 -3.3,4.818 -3.688,4.818C-4.014,4.818 -4.336,4.845 -4.68,4.845L-4.711,4.845L-4.711,4.58L-4.558,4.58C-4.31,4.58 -4.102,4.473 -4.101,4.241L-4.101,0.757C-4.107,0.272 -4.345,0.274 -4.558,0.266L-4.711,0.266L-4.711,0L-4.68,0C-4.458,0 -4.037,0.027 -3.617,0.027C-3.197,0.027 -2.881,0 -2.517,0C-1.653,0 -0.858,0.241 -0.856,1.237C-0.873,1.803 -1.25,2.295 -1.793,2.456L-0.642,4.18C-0.519,4.423 -0.271,4.577 0.002,4.58L0.027,4.58L0.027,4.841L0,4.845ZM-3.192,2.565L-2.724,2.565L-2.717,2.581C-2.296,3.345 -1.829,4.082 -1.317,4.787C-1.109,4.787 -0.889,4.76 -0.674,4.76C-0.458,4.76 -0.243,4.783 -0.032,4.786L-0.032,4.636C-0.31,4.623 -0.561,4.463 -0.69,4.216L-1.884,2.432L-1.85,2.417C-1.313,2.273 -0.934,1.795 -0.916,1.24C-0.916,0.288 -1.656,0.067 -2.516,0.063C-2.877,0.063 -3.206,0.091 -3.616,0.091C-4.026,0.091 -4.426,0.064 -4.65,0.063L-4.65,0.209L-4.556,0.209C-4.343,0.209 -4.04,0.244 -4.04,0.759L-4.04,4.241C-4.04,4.516 -4.297,4.641 -4.556,4.641L-4.65,4.641L-4.65,4.785C-4.32,4.785 -4.008,4.759 -3.687,4.759C-3.302,4.759 -2.916,4.785 -2.536,4.785L-2.536,4.641L-2.631,4.641C-2.944,4.641 -3.222,4.603 -3.222,4.062L-3.222,2.562L-3.192,2.565ZM-3.192,2.378L-3.223,2.378L-3.223,0.278L-3.197,0.278C-3.066,0.262 -2.934,0.253 -2.802,0.252C-2.269,0.216 -1.808,0.618 -1.771,1.151C-1.768,1.195 -1.768,1.239 -1.771,1.282C-1.771,2.1 -2.166,2.382 -2.857,2.382L-3.192,2.378ZM-2.858,2.319C-2.179,2.313 -1.837,2.077 -1.831,1.281C-1.793,0.782 -2.168,0.346 -2.667,0.309C-2.712,0.306 -2.758,0.306 -2.803,0.309C-2.924,0.31 -3.044,0.318 -3.165,0.334L-3.165,2.32L-2.858,2.319Z" style="fill:rgb(0,74,152);fill-rule:nonzero;"/>
            </g>
            <g transform="matrix(1,0,0,1,958.056,442.618)">
                <path d="M0,1.984L0.012,1.969L0.012,-0.6C0.056,-0.91 -0.16,-1.196 -0.469,-1.24C-0.509,-1.245 -0.548,-1.246 -0.588,-1.244L-0.737,-1.244L-0.737,-1.45C-0.416,-1.45 -0.101,-1.423 0.222,-1.423C0.504,-1.423 0.782,-1.45 1.066,-1.45L1.066,-1.244L0.966,-1.244C0.68,-1.244 0.355,-1.189 0.355,-0.374L0.355,2.745C0.353,2.977 0.366,3.208 0.397,3.437L0.137,3.437L-3.392,-0.497L-3.392,2.326C-3.392,2.926 -3.275,3.126 -2.748,3.126L-2.63,3.126L-2.63,3.332C-2.924,3.332 -3.221,3.304 -3.514,3.304C-3.824,3.304 -4.139,3.332 -4.445,3.332L-4.445,3.126L-4.352,3.126C-3.876,3.126 -3.732,2.803 -3.732,2.255L-3.732,-0.631C-3.732,-0.971 -4.007,-1.246 -4.347,-1.247L-4.446,-1.247L-4.446,-1.453C-4.187,-1.453 -3.918,-1.426 -3.66,-1.426C-3.46,-1.426 -3.254,-1.453 -3.049,-1.453L0,1.984Z" style="fill:rgb(0,74,152);fill-rule:nonzero;"/>
            </g>
            <g transform="matrix(1,0,0,1,958.451,441.142)">
                <path d="M0,4.943L-0.283,4.933L-3.755,1.051L-3.755,3.798C-3.746,4.398 -3.655,4.563 -3.14,4.569L-2.994,4.569L-2.994,4.834L-3.025,4.834C-3.325,4.834 -3.616,4.807 -3.909,4.807C-4.202,4.807 -4.532,4.834 -4.838,4.834L-4.871,4.834L-4.871,4.569L-4.745,4.569C-4.293,4.569 -4.162,4.276 -4.158,3.728L-4.158,0.851C-4.158,0.528 -4.419,0.266 -4.742,0.265L-4.872,0.265L-4.872,-0.001L-4.838,-0.001C-4.579,-0.001 -4.31,0.026 -4.053,0.026C-3.853,0.026 -3.653,-0.001 -3.424,0.008L-0.41,3.401L-0.41,0.879C-0.41,0.334 -0.777,0.267 -0.976,0.264L-1.157,0.264L-1.157,-0.002L-1.126,-0.002C-0.803,-0.002 -0.487,0.025 -0.167,0.025C0.112,0.025 0.394,-0.002 0.676,-0.002L0.707,-0.002L0.707,0.264L0.573,0.264C0.292,0.272 0,0.296 -0.007,1.104L-0.007,4.224C-0.011,4.454 0.003,4.684 0.033,4.911L0.033,4.945L0,4.943ZM-0.26,4.884L-0.035,4.884C-0.063,4.665 -0.075,4.444 -0.072,4.223L-0.072,1.103C-0.072,0.282 0.276,0.203 0.569,0.203L0.641,0.203L0.641,0.057C0.371,0.057 0.101,0.085 -0.171,0.085C-0.486,0.085 -0.792,0.058 -1.101,0.057L-1.101,0.203L-0.981,0.203C-0.65,0.186 -0.368,0.44 -0.35,0.771C-0.348,0.806 -0.35,0.842 -0.354,0.877L-0.365,3.468L-0.377,3.481L-0.398,3.502L-3.447,0.056C-3.647,0.056 -3.847,0.084 -4.057,0.084C-4.311,0.084 -4.567,0.057 -4.817,0.056L-4.817,0.202L-4.754,0.202C-4.398,0.199 -4.107,0.486 -4.104,0.842L-4.104,3.733C-4.104,4.283 -4.259,4.633 -4.75,4.633L-4.817,4.633L-4.817,4.778C-4.517,4.778 -4.217,4.752 -3.917,4.752C-3.617,4.752 -3.344,4.777 -3.061,4.778L-3.061,4.634L-3.148,4.634C-3.687,4.634 -3.821,4.399 -3.824,3.801L-3.824,0.901L-0.26,4.884ZM-0.396,3.461L-0.375,3.441L-0.396,3.461ZM-0.414,3.446L-0.414,3.44L-0.414,3.446Z" style="fill:rgb(0,74,152);fill-rule:nonzero;"/>
            </g>
            <g transform="matrix(1,0,0,1,960.227,441.978)">
                <path d="M0,2.994C-0.07,3.166 -0.122,3.346 -0.154,3.529C-0.154,3.735 0.135,3.77 0.361,3.77L0.437,3.77L0.437,3.976C0.162,3.96 -0.118,3.948 -0.393,3.948C-0.64,3.948 -0.885,3.96 -1.133,3.976L-1.133,3.77L-1.091,3.77C-0.815,3.769 -0.573,3.587 -0.496,3.323L0.604,0.179C0.711,-0.097 0.797,-0.382 0.86,-0.672C1.077,-0.749 1.286,-0.847 1.483,-0.965C1.5,-0.972 1.518,-0.977 1.537,-0.979C1.556,-0.983 1.576,-0.974 1.586,-0.958C1.607,-0.904 1.627,-0.842 1.649,-0.787L2.909,2.797C2.992,3.037 3.073,3.289 3.162,3.497C3.234,3.68 3.42,3.792 3.616,3.771L3.656,3.771L3.656,3.977C3.348,3.961 3.041,3.949 2.712,3.949C2.384,3.949 2.032,3.961 1.684,3.977L1.684,3.771L1.759,3.771C1.915,3.771 2.184,3.743 2.184,3.571C2.158,3.399 2.111,3.231 2.044,3.071L1.779,2.277L0.222,2.277L0,2.994ZM1,-0.042L0.985,-0.042L0.349,1.899L1.628,1.899L1,-0.042Z" style="fill:rgb(0,74,152);fill-rule:nonzero;"/>
            </g>
            <g transform="matrix(1,0,0,1,963.872,440.966)">
                <path d="M0,5.015C-0.309,5.003 -0.616,4.988 -0.942,4.988C-1.268,4.988 -1.619,5.003 -1.97,5.015L-2.002,5.015L-2.002,4.746L-1.896,4.746C-1.738,4.746 -1.502,4.711 -1.496,4.581C-1.523,4.415 -1.569,4.252 -1.632,4.096L-1.895,3.32L-3.406,3.32L-3.618,4.013C-3.685,4.183 -3.735,4.36 -3.769,4.539C-3.769,4.707 -3.51,4.746 -3.283,4.746L-3.178,4.746L-3.178,5.015L-3.21,5.015C-3.484,5.003 -3.764,4.988 -4.037,4.988C-4.282,4.988 -4.53,5.003 -4.774,5.015L-4.807,5.015L-4.807,4.746L-4.735,4.746C-4.473,4.749 -4.241,4.576 -4.169,4.324L-3.069,1.178C-2.961,0.894 -2.87,0.604 -2.796,0.309C-2.58,0.231 -2.371,0.133 -2.174,0.015C-2.153,0.006 -2.131,0 -2.108,-0.001C-2.078,-0.004 -2.048,0.012 -2.033,0.039C-2.013,0.095 -1.991,0.156 -1.97,0.211L-0.708,3.796C-0.627,4.035 -0.545,4.29 -0.456,4.496C-0.39,4.669 -0.214,4.774 -0.031,4.75L0.039,4.75L0.039,5.019L0,5.015ZM-1.94,4.954C-1.604,4.942 -1.27,4.929 -0.94,4.929C-0.611,4.929 -0.326,4.942 -0.027,4.954L-0.027,4.81L-0.036,4.81C-0.244,4.832 -0.44,4.713 -0.517,4.518C-0.606,4.311 -0.69,4.057 -0.77,3.818L-2.032,0.234C-2.053,0.18 -2.074,0.118 -2.091,0.069C-2.097,0.063 -2.091,0.063 -2.1,0.063L-2.114,0.063C-2.128,0.064 -2.141,0.067 -2.154,0.071C-2.344,0.189 -2.549,0.282 -2.763,0.346C-2.826,0.638 -2.912,0.923 -3.019,1.201L-4.119,4.347C-4.2,4.623 -4.454,4.813 -4.742,4.812L-4.753,4.812L-4.753,4.956C-4.519,4.944 -4.281,4.931 -4.044,4.931C-3.778,4.931 -3.507,4.944 -3.244,4.956L-3.244,4.812L-3.288,4.812C-3.512,4.812 -3.824,4.786 -3.832,4.543C-3.8,4.357 -3.749,4.176 -3.679,4L-3.648,4.008L-3.679,3.999L-3.454,3.266L-1.854,3.266L-1.579,4.081C-1.513,4.242 -1.467,4.41 -1.44,4.581C-1.451,4.791 -1.741,4.806 -1.896,4.808L-1.939,4.808L-1.94,4.954ZM-3.34,2.938L-2.684,0.938L-2.646,0.938L-2.646,0.968L-2.653,0.968L-2.646,0.968L-2.646,0.938L-2.626,0.938L-1.975,2.938L-3.34,2.938ZM-3.258,2.879L-2.058,2.879L-2.658,1.044L-3.258,2.879ZM-2.676,0.979L-2.66,0.974L-2.676,0.979Z" style="fill:rgb(0,74,152);fill-rule:nonzero;"/>
            </g>
            <g transform="matrix(1,0,0,1,964.181,445.402)">
                <path d="M0,-3.891C-0.514,-3.891 -0.534,-3.769 -0.639,-3.268L-0.845,-3.268C-0.817,-3.459 -0.781,-3.651 -0.762,-3.85C-0.734,-4.043 -0.722,-4.237 -0.722,-4.432L-0.556,-4.432C-0.502,-4.226 -0.328,-4.232 -0.146,-4.232L3.392,-4.232C3.575,-4.232 3.746,-4.238 3.762,-4.444L3.926,-4.416C3.899,-4.232 3.872,-4.046 3.851,-3.862C3.83,-3.678 3.836,-3.491 3.836,-3.307L3.631,-3.23C3.617,-3.483 3.585,-3.889 3.124,-3.889L2.001,-3.889L2.001,-0.242C2.001,0.286 2.24,0.347 2.567,0.347L2.697,0.347L2.697,0.553C2.431,0.553 1.95,0.525 1.581,0.525C1.172,0.525 0.689,0.553 0.423,0.553L0.423,0.347L0.553,0.347C0.931,0.347 1.121,0.312 1.121,-0.229L1.121,-3.889L0,-3.891Z" style="fill:rgb(0,74,152);fill-rule:nonzero;"/>
            </g>
            <g transform="matrix(1,0,0,1,966.879,440.917)">
                <path d="M0,5.064C-0.269,5.064 -0.749,5.037 -1.116,5.037C-1.525,5.037 -2.007,5.064 -2.274,5.064L-2.306,5.064L-2.306,4.799L-2.145,4.799C-1.767,4.791 -1.614,4.786 -1.605,4.255L-1.605,0.625L-2.699,0.625L-2.699,0.565L-1.545,0.565L-1.545,4.256C-1.545,4.806 -1.769,4.856 -2.145,4.856L-2.245,4.856L-2.245,5.002C-1.974,5.002 -1.514,4.975 -1.115,4.975C-0.759,4.975 -0.299,5 -0.029,5.002L-0.029,4.856L-0.129,4.856C-0.459,4.856 -0.729,4.776 -0.729,4.238L-0.729,0.561L0.425,0.561C0.886,0.561 0.945,0.953 0.96,1.208L1.108,1.154C1.108,0.975 1.108,0.796 1.122,0.616C1.137,0.436 1.166,0.265 1.191,0.09L1.092,0.073C1.062,0.273 0.868,0.282 0.696,0.279L-2.874,0.279C-3.036,0.279 -3.211,0.273 -3.273,0.079L-3.387,0.079C-3.387,0.265 -3.4,0.451 -3.429,0.635C-3.446,0.824 -3.479,1.005 -3.507,1.186L-3.359,1.186C-3.27,0.708 -3.21,0.553 -2.697,0.56L-2.697,0.62C-3.205,0.629 -3.197,0.714 -3.306,1.22L-3.306,1.244L-3.57,1.244L-3.57,1.21C-3.541,1.016 -3.508,0.825 -3.487,0.627C-3.459,0.436 -3.445,0.242 -3.445,0.049L-3.445,0.02L-3.229,0.02L-3.229,0.04C-3.179,0.214 -3.054,0.214 -2.878,0.217L0.692,0.217C0.881,0.217 1.02,0.21 1.032,0.032L1.032,0L1.065,0.006L1.265,0.037L1.259,0.066C1.229,0.25 1.205,0.435 1.184,0.619C1.163,0.803 1.17,0.987 1.17,1.171L1.17,1.192L1.15,1.201L0.908,1.288L0.908,1.248C0.89,0.992 0.863,0.619 0.429,0.619L-0.67,0.619L-0.67,4.236C-0.663,4.752 -0.459,4.788 -0.132,4.794L0.03,4.794L0.03,5.059L0,5.064Z" style="fill:rgb(0,74,152);fill-rule:nonzero;"/>
            </g>
            <g transform="matrix(1,0,0,1,968.359,441.375)">
                <path d="M0,4.372L0.095,4.372C0.344,4.372 0.601,4.337 0.601,3.98L0.601,0.392C0.601,0.034 0.344,0 0.095,0L0,0L0,-0.206C0.266,-0.206 0.678,-0.179 1.012,-0.179C1.346,-0.179 1.768,-0.206 2.09,-0.206L2.09,0L1.995,0C1.746,0 1.485,0.034 1.485,0.392L1.485,3.98C1.485,4.337 1.746,4.372 1.995,4.372L2.09,4.372L2.09,4.578C1.76,4.578 1.35,4.55 1.007,4.55C0.663,4.55 0.266,4.578 -0.001,4.578L0,4.372Z" style="fill:rgb(0,74,152);fill-rule:nonzero;"/>
            </g>
            <g transform="matrix(1,0,0,1,970.449,441.141)">
                <path d="M0,4.841C-0.333,4.841 -0.741,4.814 -1.083,4.814C-1.425,4.814 -1.823,4.841 -2.09,4.841L-2.12,4.841L-2.12,4.576L-1.996,4.576C-1.747,4.576 -1.52,4.551 -1.52,4.215L-1.52,0.627C-1.52,0.292 -1.748,0.269 -1.996,0.264L-2.12,0.264L-2.12,0L-2.09,0C-1.823,0 -1.411,0.025 -1.078,0.025C-0.745,0.025 -0.325,0 0,0L0.028,0L0.028,0.264L-0.095,0.264C-0.346,0.264 -0.572,0.292 -0.574,0.627L-0.574,4.215C-0.574,4.551 -0.346,4.572 -0.095,4.576L0.028,4.576L0.028,4.841L0,4.841ZM-0.031,4.781L-0.031,4.636L-0.094,4.636C-0.34,4.636 -0.632,4.595 -0.632,4.215L-0.632,0.627C-0.632,0.247 -0.34,0.205 -0.094,0.205L-0.031,0.205L-0.031,0.059C-0.346,0.059 -0.743,0.087 -1.078,0.087C-1.413,0.087 -1.795,0.06 -2.062,0.059L-2.062,0.205L-1.996,0.205C-1.75,0.205 -1.458,0.248 -1.458,0.627L-1.458,4.215C-1.458,4.595 -1.75,4.636 -1.996,4.636L-2.062,4.636L-2.062,4.781C-1.796,4.781 -1.409,4.755 -1.083,4.755C-0.757,4.755 -0.354,4.78 -0.031,4.781" style="fill:rgb(0,74,152);fill-rule:nonzero;"/>
            </g>
            <g transform="matrix(1,0,0,1,973.187,446.01)">
                <path d="M0,-4.943C1.319,-5.068 2.49,-4.1 2.615,-2.78C2.621,-2.713 2.625,-2.646 2.626,-2.578C2.688,-1.192 1.614,-0.018 0.228,0.044C0.164,0.047 0.101,0.048 0.036,0.046C-1.299,0.125 -2.445,-0.893 -2.524,-2.229C-2.528,-2.291 -2.529,-2.352 -2.528,-2.414C-2.548,-3.792 -1.447,-4.924 -0.07,-4.943L0,-4.943M0.1,-0.257C1.43,-0.257 1.659,-1.429 1.659,-2.428C1.659,-3.427 1.121,-4.642 -0.018,-4.642C-1.218,-4.642 -1.573,-3.573 -1.573,-2.656C-1.573,-1.429 -1.012,-0.256 0.1,-0.256" style="fill:rgb(0,74,152);fill-rule:nonzero;"/>
            </g>
            <g transform="matrix(1,0,0,1,970.627,443.478)">
                <path d="M0,0.118C-0.018,-1.278 1.1,-2.424 2.495,-2.441C2.517,-2.442 2.537,-2.442 2.559,-2.441L2.559,-2.38C1.198,-2.4 0.078,-1.313 0.059,0.047L0.059,0.12C0.036,1.442 1.09,2.532 2.412,2.554C2.473,2.555 2.533,2.554 2.595,2.55C3.967,2.593 5.114,1.516 5.158,0.144C5.16,0.079 5.159,0.014 5.156,-0.05C5.14,-1.361 4.063,-2.41 2.752,-2.394C2.687,-2.393 2.621,-2.389 2.557,-2.383L2.557,-2.444C3.898,-2.563 5.082,-1.572 5.201,-0.23C5.206,-0.17 5.209,-0.11 5.21,-0.05C5.271,1.355 4.181,2.542 2.775,2.603C2.715,2.605 2.653,2.606 2.592,2.604C1.237,2.681 0.078,1.645 0.002,0.291C-0.001,0.232 -0.003,0.174 -0.002,0.115M0.954,-0.124C0.954,-1.047 1.317,-2.141 2.541,-2.141C3.705,-2.141 4.247,-0.904 4.249,0.104C4.251,1.112 4.013,2.304 2.658,2.304L2.658,2.247C3.958,2.247 4.187,1.104 4.189,0.105C4.191,-0.894 3.654,-2.078 2.541,-2.081C1.366,-2.081 1.019,-1.036 1.016,-0.123C1.016,1.097 1.573,2.244 2.658,2.247L2.658,2.304C1.521,2.304 0.958,1.11 0.958,-0.123" style="fill:rgb(0,74,152);fill-rule:nonzero;"/>
            </g>
            <g transform="matrix(1,0,0,1,980.426,442.618)">
                <path d="M0,1.984L0.016,1.969L0.016,-0.6C0.06,-0.91 -0.156,-1.196 -0.466,-1.24C-0.505,-1.245 -0.545,-1.246 -0.585,-1.244L-0.732,-1.244L-0.732,-1.45C-0.412,-1.45 -0.097,-1.423 0.225,-1.423C0.506,-1.423 0.787,-1.45 1.069,-1.45L1.069,-1.244L0.969,-1.244C0.68,-1.244 0.358,-1.189 0.358,-0.374L0.358,2.745C0.354,2.977 0.368,3.208 0.401,3.437L0.14,3.437L-3.39,-0.497L-3.39,2.326C-3.39,2.926 -3.274,3.126 -2.746,3.126L-2.629,3.126L-2.629,3.332C-2.924,3.332 -3.218,3.304 -3.512,3.304C-3.822,3.304 -4.137,3.332 -4.447,3.332L-4.447,3.126L-4.347,3.126C-3.872,3.126 -3.73,2.803 -3.73,2.255L-3.73,-0.631C-3.729,-0.971 -4.004,-1.246 -4.344,-1.247L-4.445,-1.247L-4.445,-1.453C-4.185,-1.453 -3.916,-1.426 -3.656,-1.426C-3.45,-1.426 -3.256,-1.453 -3.047,-1.453L0,1.984Z" style="fill:rgb(0,74,152);fill-rule:nonzero;"/>
            </g>
            <g transform="matrix(1,0,0,1,980.824,441.139)">
                <path d="M0,4.947L-0.284,4.937L-3.763,1.061L-3.763,3.808C-3.753,4.408 -3.662,4.573 -3.147,4.578L-2.999,4.578L-2.999,4.845L-3.029,4.845C-3.329,4.845 -3.62,4.818 -3.914,4.818C-4.208,4.818 -4.536,4.845 -4.848,4.845L-4.878,4.845L-4.878,4.578L-4.751,4.578C-4.299,4.578 -4.169,4.287 -4.165,3.74L-4.165,0.851C-4.164,0.528 -4.426,0.266 -4.749,0.265L-4.879,0.265L-4.879,0.001L-4.849,0.001C-4.586,0.001 -4.318,0.026 -4.061,0.026C-3.86,0.026 -3.661,0.001 -3.427,0.01L-0.417,3.401L-0.417,0.88C-0.417,0.334 -0.783,0.269 -0.984,0.264L-1.165,0.264L-1.165,0L-1.134,0C-0.812,0 -0.495,0.025 -0.177,0.025C0.104,0.025 0.385,0 0.669,0L0.697,0L0.697,0.264L0.566,0.264C0.283,0.273 -0.009,0.297 -0.014,1.104L-0.014,4.223C-0.019,4.453 -0.005,4.683 0.025,4.91L0.031,4.943L0,4.947ZM-0.261,4.888L-0.036,4.888C-0.062,4.669 -0.074,4.448 -0.071,4.227L-0.071,1.108C-0.071,0.285 0.275,0.208 0.57,0.208L0.643,0.208L0.643,0.062C0.372,0.062 0.102,0.09 -0.172,0.09C-0.484,0.09 -0.79,0.063 -1.099,0.062L-1.099,0.208L-0.98,0.208C-0.649,0.191 -0.367,0.446 -0.351,0.777C-0.349,0.812 -0.35,0.848 -0.354,0.883L-0.361,3.473L-0.374,3.486L-0.397,3.507L-3.447,0.061C-3.647,0.061 -3.847,0.089 -4.058,0.089C-4.31,0.089 -4.566,0.062 -4.816,0.061L-4.816,0.207L-4.754,0.207C-4.396,0.204 -4.105,0.492 -4.103,0.849L-4.103,3.739C-4.103,4.287 -4.256,4.639 -4.748,4.639L-4.816,4.639L-4.816,4.784C-4.517,4.784 -4.216,4.758 -3.916,4.758C-3.616,4.758 -3.346,4.783 -3.063,4.784L-3.063,4.64L-3.15,4.64C-3.688,4.64 -3.822,4.405 -3.822,3.807L-3.822,0.907L-0.261,4.888ZM-0.399,3.466L-0.376,3.446L-0.399,3.466ZM-0.414,3.451L-0.414,3.445L-0.414,3.451Z" style="fill:rgb(0,74,152);fill-rule:nonzero;"/>
            </g>
            <g transform="matrix(1,0,0,1,982.598,441.978)">
                <path d="M0,2.994C-0.066,3.167 -0.117,3.346 -0.149,3.529C-0.149,3.735 0.14,3.77 0.365,3.77L0.441,3.77L0.441,3.976C0.166,3.96 -0.115,3.948 -0.389,3.948C-0.636,3.948 -0.883,3.96 -1.128,3.976L-1.128,3.77L-1.09,3.77C-0.812,3.772 -0.567,3.589 -0.489,3.323L0.61,0.179C0.717,-0.097 0.802,-0.382 0.862,-0.672C1.08,-0.749 1.289,-0.847 1.487,-0.965C1.505,-0.973 1.524,-0.978 1.543,-0.979C1.562,-0.983 1.581,-0.974 1.591,-0.958L1.652,-0.787L2.911,2.797C2.994,3.037 3.077,3.289 3.168,3.497C3.238,3.68 3.424,3.793 3.618,3.771L3.66,3.771L3.66,3.977C3.353,3.961 3.044,3.949 2.715,3.949C2.386,3.949 2.035,3.961 1.687,3.977L1.687,3.771L1.763,3.771C1.919,3.771 2.188,3.743 2.188,3.571C2.162,3.399 2.115,3.231 2.049,3.071L1.783,2.277L0.227,2.277L0,2.994ZM1,-0.042L0.987,-0.042L0.349,1.899L1.633,1.899L1,-0.042Z" style="fill:rgb(0,74,152);fill-rule:nonzero;"/>
            </g>
            <g transform="matrix(1,0,0,1,986.25,440.965)">
                <path d="M0,5.016C-0.309,5.004 -0.618,4.989 -0.945,4.989C-1.272,4.989 -1.621,5.004 -1.971,5.016L-2.001,5.016L-2.001,4.749L-1.896,4.749C-1.737,4.749 -1.501,4.712 -1.501,4.582C-1.528,4.415 -1.574,4.253 -1.638,4.097L-1.898,3.321L-3.412,3.321L-3.622,4.014C-3.688,4.183 -3.738,4.359 -3.771,4.539C-3.771,4.708 -3.515,4.749 -3.287,4.749L-3.187,4.749L-3.187,5.016L-3.218,5.016C-3.491,5.004 -3.771,4.989 -4.046,4.989C-4.292,4.989 -4.536,5.004 -4.784,5.016L-4.814,5.016L-4.814,4.749L-4.746,4.749C-4.484,4.747 -4.253,4.576 -4.177,4.325L-3.076,1.179C-2.97,0.894 -2.88,0.604 -2.806,0.31C-2.588,0.232 -2.379,0.133 -2.181,0.016C-2.16,0.006 -2.139,0 -2.116,0C-2.085,-0.003 -2.056,0.014 -2.041,0.042C-2.021,0.094 -2.001,0.157 -1.979,0.212L-0.718,3.797C-0.637,4.037 -0.554,4.291 -0.466,4.497C-0.4,4.669 -0.226,4.774 -0.042,4.752L0.03,4.752L0.03,5.019L0,5.016ZM-1.944,4.956C-1.604,4.943 -1.271,4.93 -0.944,4.93C-0.617,4.93 -0.326,4.944 -0.027,4.955L-0.027,4.811L-0.038,4.811C-0.245,4.831 -0.44,4.712 -0.517,4.519C-0.608,4.312 -0.687,4.058 -0.771,3.819L-2.033,0.234C-2.052,0.18 -2.075,0.118 -2.09,0.071C-2.096,0.063 -2.096,0.063 -2.1,0.063L-2.113,0.063C-2.127,0.064 -2.14,0.066 -2.152,0.071C-2.343,0.189 -2.548,0.282 -2.763,0.346C-2.826,0.637 -2.911,0.923 -3.018,1.201L-4.118,4.347C-4.2,4.623 -4.455,4.812 -4.744,4.812L-4.754,4.812L-4.754,4.956C-4.518,4.944 -4.282,4.931 -4.044,4.931C-3.779,4.931 -3.507,4.945 -3.244,4.956L-3.244,4.812L-3.288,4.812C-3.511,4.812 -3.823,4.786 -3.834,4.542C-3.8,4.356 -3.748,4.174 -3.68,3.999L-3.651,4.007L-3.68,3.998L-3.453,3.265L-1.854,3.265L-1.579,4.08C-1.513,4.24 -1.467,4.408 -1.441,4.58C-1.452,4.79 -1.741,4.804 -1.895,4.807L-1.942,4.807L-1.944,4.956ZM-3.344,2.939L-2.686,0.939L-2.652,0.939L-2.652,0.969L-2.658,0.969L-2.652,0.969L-2.652,0.939L-2.63,0.939L-1.983,2.939L-3.344,2.939ZM-3.261,2.88L-2.061,2.88L-2.661,1.046L-3.261,2.88ZM-2.679,0.98L-2.666,0.974L-2.679,0.98Z" style="fill:rgb(0,74,152);fill-rule:nonzero;"/>
            </g>
            <g transform="matrix(1,0,0,1,987.972,441.84)">
                <path d="M0,3.441C0,3.716 0.19,3.797 0.41,3.825C0.712,3.848 1.016,3.843 1.316,3.81C1.575,3.779 1.812,3.646 1.974,3.441C2.072,3.29 2.144,3.123 2.186,2.947L2.385,2.947C2.313,3.338 2.215,3.723 2.131,4.113C1.531,4.113 0.926,4.085 0.323,4.085C-0.28,4.085 -0.883,4.113 -1.485,4.113L-1.485,3.907L-1.391,3.907C-1.143,3.907 -0.875,3.872 -0.875,3.447L-0.875,-0.074C-0.875,-0.432 -1.143,-0.466 -1.391,-0.466L-1.485,-0.466L-1.485,-0.672C-1.123,-0.672 -0.766,-0.645 -0.403,-0.645C-0.04,-0.645 0.289,-0.672 0.638,-0.672L0.638,-0.466L0.468,-0.466C0.206,-0.466 0.003,-0.459 0.003,-0.096L0,3.441Z" style="fill:rgb(0,74,152);fill-rule:nonzero;"/>
            </g>
            <g transform="matrix(1,0,0,1,990.106,441.146)">
                <path d="M0,4.841C-0.6,4.841 -1.206,4.814 -1.808,4.814C-2.41,4.814 -3.014,4.841 -3.618,4.841L-3.646,4.841L-3.646,4.576L-3.521,4.576C-3.273,4.571 -3.04,4.554 -3.036,4.148L-3.036,0.626C-3.036,0.292 -3.272,0.269 -3.521,0.264L-3.646,0.264L-3.646,0L-3.618,0C-3.254,0 -2.896,0.025 -2.535,0.025C-2.174,0.025 -1.845,0 -1.494,0L-1.465,0L-1.465,0.264L-1.665,0.264C-1.931,0.272 -2.097,0.264 -2.102,0.605L-2.102,4.141C-2.102,4.396 -1.932,4.465 -1.718,4.494C-1.597,4.502 -1.47,4.508 -1.338,4.508C-1.164,4.508 -0.99,4.499 -0.817,4.482C-0.566,4.45 -0.337,4.321 -0.18,4.123C-0.084,3.975 -0.015,3.812 0.026,3.641L0.032,3.618L0.29,3.618L0.284,3.654C0.206,4.046 0.113,4.429 0.029,4.819L0.023,4.841L0,4.841ZM-0.024,4.776C0.055,4.406 0.145,4.041 0.218,3.676L0.076,3.676C0.034,3.847 -0.037,4.01 -0.135,4.158C-0.301,4.37 -0.546,4.508 -0.813,4.539C-0.993,4.557 -1.169,4.568 -1.339,4.568C-1.471,4.568 -1.6,4.562 -1.723,4.553C-1.947,4.529 -2.163,4.433 -2.162,4.14L-2.162,0.604C-2.162,0.222 -1.922,0.204 -1.662,0.204L-1.522,0.204L-1.522,0.058C-1.858,0.058 -2.191,0.086 -2.533,0.086C-2.876,0.086 -3.233,0.059 -3.587,0.058L-3.587,0.204L-3.521,0.204C-3.276,0.204 -2.978,0.247 -2.978,0.625L-2.978,4.147C-2.978,4.59 -3.277,4.636 -3.521,4.636L-3.587,4.636L-3.587,4.781C-2.994,4.781 -2.402,4.755 -1.808,4.755C-1.213,4.755 -0.617,4.781 -0.022,4.781" style="fill:rgb(0,74,152);fill-rule:nonzero;"/>
            </g>
        </g>
    </g>
</svg>
