<?xml version="1.0" encoding="UTF-8" standalone="no"?>
<!DOCTYPE svg PUBLIC "-//W3C//DTD SVG 1.1//EN" "http://www.w3.org/Graphics/SVG/1.1/DTD/svg11.dtd">
<svg width="100%" height="100%" viewBox="0 0 50 22" version="1.1" xmlns="http://www.w3.org/2000/svg" xmlns:xlink="http://www.w3.org/1999/xlink" xml:space="preserve" xmlns:serif="http://www.serif.com/" style="fill-rule:evenodd;clip-rule:evenodd;stroke-linejoin:round;stroke-miterlimit:2;">
    <g transform="matrix(1,0,0,1,-832,-638.239)">
        <g>
            <g transform="matrix(1,0,0,1,865.794,651.035)">
                <path d="M0,-2.191C0,-0.591 -0.86,0.73 -2.466,0.73C-3.155,0.775 -3.813,0.437 -4.178,-0.149L-4.199,-0.149L-4.199,2.783L-6.065,2.783L-6.065,-4.791L-4.344,-4.791L-4.344,-3.817L-4.323,-3.817C-3.924,-4.545 -3.139,-4.974 -2.311,-4.917C-0.925,-4.809 0.11,-3.598 0.002,-2.213C0.001,-2.206 0.001,-2.198 0,-2.191" style="fill:white;fill-rule:nonzero;"/>
            </g>
            <g transform="matrix(1,0,0,1,872.002,647.529)">
                <path d="M0,2.839C-0.008,3.266 0.026,3.693 0.1,4.113L-1.61,4.113C-1.62,3.824 -1.652,3.543 -1.652,3.264L-1.673,3.264C-2.009,3.89 -2.673,4.268 -3.383,4.238C-4.451,4.238 -5.404,3.709 -5.404,2.538C-5.404,0.891 -3.611,0.694 -2.615,0.694C-2.323,0.695 -2.032,0.719 -1.745,0.766C-1.756,0.03 -2.305,-0.166 -2.979,-0.166C-3.577,-0.181 -4.169,-0.043 -4.7,0.234L-4.732,-1.03C-4.045,-1.299 -3.312,-1.429 -2.575,-1.413C-1.195,-1.413 -0.003,-0.824 -0.003,0.823L0,2.839Z" style="fill:white;fill-rule:nonzero;"/>
            </g>
            <g transform="matrix(1,0,0,1,863.482,653.764)">
                <path d="M0,-7.643C-0.828,-7.7 -1.613,-7.27 -2.012,-6.543L-2.033,-6.543L-2.033,-7.517L-3.754,-7.517L-3.754,0.057L-1.888,0.057L-1.888,-2.875L-1.867,-2.875C-1.501,-2.289 -0.844,-1.951 -0.155,-1.996C1.451,-1.996 2.311,-3.321 2.311,-4.917C2.432,-6.301 1.407,-7.521 0.022,-7.641C0.015,-7.642 0.008,-7.643 0,-7.643M8.52,-3.396L8.52,-5.406C8.52,-7.053 7.329,-7.642 5.948,-7.642C5.211,-7.658 4.478,-7.528 3.791,-7.259L3.823,-5.995C4.354,-6.272 4.946,-6.41 5.544,-6.395C6.218,-6.395 6.767,-6.195 6.778,-5.463C6.491,-5.51 6.2,-5.534 5.908,-5.535C4.908,-5.535 3.119,-5.335 3.119,-3.691C3.119,-2.521 4.072,-1.991 5.14,-1.991C5.85,-1.961 6.514,-2.339 6.85,-2.965L6.871,-2.965C6.871,-2.686 6.903,-2.406 6.913,-2.116L8.62,-2.116C8.545,-2.539 8.512,-2.967 8.52,-3.396" style="fill:rgb(11,54,119);fill-rule:nonzero;"/>
            </g>
            <g transform="matrix(1,0,0,1,877.027,647.531)">
                <path d="M0,3.041L-0.277,3.741C-0.807,5.097 -1.211,6.413 -2.921,6.413C-3.312,6.413 -3.701,6.372 -4.082,6.289L-3.957,4.868C-3.72,4.948 -3.471,4.987 -3.221,4.983C-2.769,4.991 -2.374,4.678 -2.278,4.236L-4.465,-1.285L-2.455,-1.285L-1.294,2.238L-1.273,2.238L-0.165,-1.285L1.702,-1.285L0,3.041ZM-6.631,4.116C-6.641,3.826 -6.673,3.546 -6.673,3.267L-6.694,3.267C-7.03,3.893 -7.695,4.271 -8.404,4.241C-9.472,4.241 -10.425,3.712 -10.425,2.541C-10.425,0.894 -8.632,0.697 -7.636,0.697C-7.345,0.698 -7.054,0.722 -6.766,0.769C-6.777,0.033 -7.326,-0.163 -8,-0.163C-8.599,-0.178 -9.191,-0.041 -9.721,0.237L-9.753,-1.027C-9.066,-1.296 -8.333,-1.426 -7.596,-1.41C-6.216,-1.41 -5.024,-0.821 -5.024,0.826L-5.024,2.836C-5.032,3.263 -4.999,3.689 -4.924,4.11L-6.631,4.116ZM-13.7,4.24C-14.389,4.285 -15.047,3.947 -15.412,3.361L-15.433,3.361L-15.433,6.291L-17.299,6.291L-17.299,-1.283L-15.578,-1.283L-15.578,-0.309L-15.557,-0.309C-15.158,-1.037 -14.373,-1.466 -13.545,-1.409C-12.16,-1.3 -11.125,-0.089 -11.234,1.296C-11.234,1.302 -11.235,1.308 -11.235,1.314C-11.234,2.91 -12.093,4.235 -13.699,4.235L-13.7,4.24ZM-19.069,10.74L-41.296,10.74C-42.475,10.739 -43.43,9.784 -43.432,8.606L-43.432,-5.564C-43.431,-6.743 -42.475,-7.698 -41.296,-7.698L-19.069,-7.698L-19.069,10.74ZM1.245,-9.292L-41.296,-9.292C-43.355,-9.293 -45.026,-7.625 -45.027,-5.565L-45.027,8.606C-45.025,10.665 -43.355,12.333 -41.296,12.334L1.242,12.334C3.301,12.334 4.972,10.666 4.973,8.606L4.973,-5.564C4.973,-7.623 3.304,-9.292 1.245,-9.292Z" style="fill:rgb(11,54,119);fill-rule:nonzero;"/>
            </g>
            <g transform="matrix(1,0,0,1,862.736,649.548)">
                <path d="M0,0.791C-0.696,0.726 -1.207,0.109 -1.142,-0.587C-1.142,-1.396 -0.685,-1.995 0,-1.995C0.659,-1.964 1.168,-1.406 1.137,-0.747C1.136,-0.718 1.133,-0.688 1.13,-0.659C1.13,0.199 0.705,0.791 0.001,0.791L0,0.791ZM0.747,-3.426C-0.081,-3.483 -0.866,-3.054 -1.265,-2.326L-1.286,-2.326L-1.286,-3.3L-3.007,-3.3L-3.007,4.274L-1.141,4.274L-1.141,1.342L-1.12,1.342C-0.755,1.928 -0.097,2.266 0.592,2.221C2.198,2.221 3.058,0.896 3.058,-0.7C3.178,-2.084 2.153,-3.304 0.769,-3.424C0.762,-3.425 0.754,-3.426 0.747,-3.426" style="fill:white;fill-rule:nonzero;"/>
            </g>
            <g transform="matrix(1,0,0,1,869.11,647.387)">
                <path d="M0,3.137C-0.436,3.137 -0.768,2.92 -0.768,2.547C-0.768,2.028 -0.268,1.832 0.363,1.832C0.642,1.832 0.912,1.851 1.15,1.862C1.184,2.531 0.669,3.102 0,3.137M2.893,2.982L2.893,0.972C2.893,-0.675 1.702,-1.264 0.321,-1.264C-0.417,-1.28 -1.149,-1.15 -1.836,-0.881L-1.804,0.383C-1.274,0.105 -0.682,-0.032 -0.083,-0.017C0.591,-0.017 1.14,0.183 1.151,0.915C0.863,0.868 0.572,0.844 0.281,0.843C-0.719,0.843 -2.508,1.043 -2.508,2.687C-2.508,3.857 -1.555,4.387 -0.487,4.387C0.222,4.417 0.887,4.038 1.223,3.413L1.244,3.413C1.244,3.692 1.276,3.972 1.286,4.262L2.996,4.262C2.92,3.84 2.885,3.411 2.893,2.982" style="fill:white;fill-rule:nonzero;"/>
            </g>
            <g transform="matrix(1,0,0,1,878.731,653.936)">
                <path d="M0,-7.692L-1.7,-3.369L-1.977,-2.669C-2.507,-1.313 -2.911,0.003 -4.621,0.003C-5.011,0.003 -5.4,-0.038 -5.782,-0.121L-5.657,-1.542C-5.42,-1.462 -5.171,-1.422 -4.921,-1.427C-4.469,-1.419 -4.074,-1.732 -3.978,-2.174L-6.165,-7.695L-4.155,-7.695L-2.994,-4.172L-2.973,-4.172L-1.865,-7.695L0,-7.692Z" style="fill:white;fill-rule:nonzero;"/>
            </g>
            <g transform="matrix(1,0,0,1,842.223,653.817)">
                <path d="M0,-7.573L-1.69,-7.573L-1.69,-6.599L-1.71,-6.599C-2.077,-7.272 -2.779,-7.693 -3.545,-7.699C-5.224,-7.699 -5.981,-6.499 -5.981,-4.891C-6.14,-3.561 -5.19,-2.353 -3.86,-2.194C-3.766,-2.183 -3.671,-2.177 -3.576,-2.177C-2.853,-2.151 -2.167,-2.5 -1.762,-3.099L-1.741,-3.099L-1.741,-2.808C-1.741,-1.751 -2.321,-1.244 -3.4,-1.244C-4.037,-1.234 -4.665,-1.387 -5.225,-1.689L-5.318,-0.218C-4.654,0.01 -3.957,0.126 -3.255,0.124C-1.078,0.124 0,-0.591 0,-2.808L0,-7.573ZM-4.054,-4.921C-4.054,-5.656 -3.691,-6.268 -2.997,-6.268C-2.345,-6.276 -1.81,-5.754 -1.801,-5.102C-1.801,-5.066 -1.802,-5.03 -1.805,-4.994C-1.733,-4.301 -2.237,-3.681 -2.93,-3.61C-2.952,-3.608 -2.975,-3.606 -2.997,-3.605C-3.557,-3.605 -4.054,-4.082 -4.054,-4.921" style="fill:rgb(226,6,19);fill-rule:nonzero;"/>
            </g>
            <g transform="matrix(1,0,0,1,0,215.638)">
                <path d="M843.51,436.004L845.376,436.004L845.376,430.604L843.51,430.604L843.51,436.004ZM845.375,428.358L843.509,428.358L843.509,429.726L845.375,429.726L845.375,428.358Z" style="fill:rgb(226,6,19);fill-rule:nonzero;"/>
            </g>
            <g transform="matrix(1,0,0,1,850.575,651.572)">
                <path d="M0,-5.391C-0.209,-5.428 -0.42,-5.448 -0.632,-5.452C-1.351,-5.463 -1.996,-5.013 -2.232,-4.334L-2.253,-4.334L-2.253,-5.328L-3.953,-5.328L-3.953,0.072L-2.087,0.072L-2.087,-2.209C-2.087,-3.266 -1.599,-3.898 -0.728,-3.898C-0.516,-3.909 -0.303,-3.888 -0.096,-3.836L0,-5.391Z" style="fill:rgb(226,6,19);fill-rule:nonzero;"/>
            </g>
            <g transform="matrix(1,0,0,1,853.786,645.972)">
                <path d="M0,5.794C1.559,5.627 2.688,4.228 2.521,2.669C2.354,1.11 0.955,-0.018 -0.604,0.148C-2.049,0.303 -3.144,1.523 -3.141,2.976C-3.145,4.539 -1.881,5.808 -0.318,5.811C-0.212,5.812 -0.105,5.806 0,5.794M-0.302,4.489C-1.163,4.489 -1.515,3.775 -1.515,2.977C-1.515,2.179 -1.163,1.454 -0.302,1.454C0.559,1.454 0.911,2.169 0.911,2.977C0.911,3.785 0.558,4.489 -0.302,4.489" style="fill:rgb(226,6,19);fill-rule:nonzero;"/>
            </g>
        </g>
    </g>
</svg>
