<?xml version="1.0" encoding="UTF-8" standalone="no"?>
<!DOCTYPE svg PUBLIC "-//W3C//DTD SVG 1.1//EN" "http://www.w3.org/Graphics/SVG/1.1/DTD/svg11.dtd">
<svg width="100%" height="100%" viewBox="0 0 42 36" version="1.1" xmlns="http://www.w3.org/2000/svg" xmlns:xlink="http://www.w3.org/1999/xlink" xml:space="preserve" xmlns:serif="http://www.serif.com/" style="fill-rule:evenodd;clip-rule:evenodd;stroke-linejoin:round;stroke-miterlimit:2;">
    <g transform="matrix(1,0,0,1,-1042,-631.238)">
        <g>
            <g transform="matrix(1,0,0,1,1083.36,649.196)">
                <path d="M0,-0.075C0,11.882 -7.748,17.883 -20.028,17.883L-41.357,17.883L-41.357,-17.958L-20.026,-17.958C-5.548,-17.958 0,-10.049 0,-0.075" style="fill:white;fill-rule:nonzero;"/>
            </g>
            <g transform="matrix(1,0,0,1,1063.33,633.304)">
                <path d="M0,31.709L-19.266,31.709L-19.266,0.003L0,0.003C11.1,0.003 17.958,5.049 17.958,15.817C17.958,26.29 11.632,31.709 0,31.709M0,-2.066L-21.331,-2.066L-21.331,33.775L0,33.775C12.279,33.775 20.027,27.775 20.027,15.817C20.026,5.843 14.479,-2.066 0,-2.066" style="fill-rule:nonzero;"/>
            </g>
            <g transform="matrix(1,0,0,1,0,233.878)">
                <rect x="1046.65" y="417.573" width="6.167" height="10.976"/>
            </g>
            <g transform="matrix(-1,0,0,1,1049.73,649.755)">
                <path d="M0,-7.666C-2.117,-7.666 -3.833,-5.95 -3.833,-3.833C-3.833,-1.716 -2.117,0 0,0C2.117,0 3.833,-1.716 3.833,-3.833C3.833,-5.95 2.117,-7.666 0,-7.666" style="fill-rule:nonzero;"/>
            </g>
            <g transform="matrix(1,0,0,1,1069.99,654.014)">
                <path d="M0,-9.695L-0.105,-9.695L-0.694,-7.681L0.589,-7.681L0,-9.695ZM0,-9.695L-0.105,-9.695L-0.694,-7.681L0.589,-7.681L0,-9.695ZM-0.105,-9.695L-0.694,-7.681L0.589,-7.681L0,-9.695L-0.105,-9.695ZM1.513,-4.523L1.112,-5.905L-1.212,-5.905L-1.611,-4.523L-3.457,-4.523L-1.31,-11.658L1.22,-11.658L3.367,-4.523L1.513,-4.523ZM-4.236,-4.523L-8.631,-4.523L-8.631,-11.654L-4.378,-11.654L-4.378,-9.875L-6.855,-9.875L-6.855,-9.05L-4.512,-9.05L-4.512,-7.275L-6.855,-7.275L-6.855,-6.297L-4.237,-6.297L-4.236,-4.523ZM4.253,-4.523L4.253,-11.654L6.032,-11.654L6.032,-6.298L8.663,-6.298C7.94,-16.017 0.296,-18.118 -6.655,-18.118L-14.062,-18.118L-14.062,-11.65L-12.962,-11.65C-10.962,-11.65 -9.722,-10.295 -9.722,-8.116C-9.722,-5.866 -10.935,-4.516 -12.962,-4.516L-14.062,-4.516L-14.062,8.423L-6.655,8.423C4.645,8.423 8.573,3.177 8.715,-4.52L4.253,-4.523ZM-12.967,-9.875L-14.066,-9.875L-14.066,-6.298L-12.967,-6.298C-12.209,-6.298 -11.506,-6.518 -11.506,-8.116C-11.506,-9.675 -12.287,-9.875 -12.967,-9.875" style="fill:rgb(213,0,114);fill-rule:nonzero;"/>
            </g>
        </g>
    </g>
</svg>
