<?xml version="1.0" encoding="UTF-8" standalone="no"?>
<!DOCTYPE svg PUBLIC "-//W3C//DTD SVG 1.1//EN" "http://www.w3.org/Graphics/SVG/1.1/DTD/svg11.dtd">
<svg width="100%" height="100%" viewBox="0 0 32 27" version="1.1" xmlns="http://www.w3.org/2000/svg" xmlns:xlink="http://www.w3.org/1999/xlink" xml:space="preserve" xmlns:serif="http://www.serif.com/" style="fill-rule:evenodd;clip-rule:evenodd;stroke-linejoin:round;stroke-miterlimit:2;">
    <g transform="matrix(1,0,0,1,-1150.37,-859.377)">
        <g>
            <g transform="matrix(1,0,0,1,1155.13,871.503)">
                <path d="M0,-12.123C0.619,-11.495 1.232,-10.86 1.858,-10.239C3.617,-8.495 5.38,-6.753 7.146,-5.016C8.071,-4.092 9.3,-3.532 10.604,-3.439C12.35,-3.278 14.071,-3.934 15.268,-5.214C17.515,-7.462 19.78,-9.689 22.039,-11.926C22.101,-11.987 22.152,-12.057 22.21,-12.126L26.841,-12.126C26.692,-11.959 26.555,-11.783 26.396,-11.626C24.684,-9.923 22.968,-8.221 21.251,-6.52C19.914,-5.196 18.596,-3.851 17.229,-2.558C15.954,-1.341 14.334,-0.546 12.591,-0.284C10.883,0.003 9.128,-0.205 7.534,-0.884C6.336,-1.429 5.256,-2.202 4.354,-3.161C1.875,-5.644 -0.626,-8.107 -3.119,-10.577C-3.592,-11.045 -4.067,-11.511 -4.538,-11.977C-4.574,-12.021 -4.605,-12.069 -4.632,-12.12L0,-12.123Z" style="fill-rule:nonzero;"/>
            </g>
            <g transform="matrix(1,0,0,1,1150.37,873.047)">
                <path d="M0,12.624C0.532,12.074 1.052,11.524 1.588,10.984C2.949,9.622 4.315,8.264 5.687,6.91C7.062,5.55 8.427,4.179 9.822,2.841C10.789,1.931 11.957,1.263 13.231,0.892C16.135,-0.01 19.298,0.628 21.623,2.586C22.506,3.357 23.315,4.211 24.149,5.035C26.199,7.059 28.245,9.086 30.287,11.117C30.781,11.609 31.249,12.127 31.72,12.623C31.702,12.623 31.638,12.63 31.572,12.63C30.178,12.63 28.783,12.63 27.39,12.624C27.256,12.618 27.129,12.566 27.03,12.476C25.906,11.376 24.796,10.255 23.676,9.147C22.382,7.865 21.105,6.563 19.775,5.315C18.502,4.063 16.697,3.511 14.941,3.836C13.749,4.026 12.65,4.597 11.809,5.462C9.455,7.799 7.098,10.132 4.735,12.462C4.647,12.552 4.531,12.609 4.406,12.623C2.969,12.634 1.53,12.63 0.093,12.63C0.06,12.631 0.023,12.626 0,12.624" style="fill-rule:nonzero;"/>
            </g>
        </g>
    </g>
</svg>
