<svg xmlns="http://www.w3.org/2000/svg" width="2500" height="403" viewBox="0 0 318.001 51.308"><g fill="#333132"><path d="M33.243 21.53c4.188-1.881 5.927-4.188 5.927-8.014 0-4.266-3.248-8.606-7.732-10.335-3.465-1.303-8.387-1.882-16.041-1.882C1.958 1.298 0 1.648 0 4.482 0 5.63.655 6.288 2.1 6.648c1.662.438 2.024.58 2.46 1.159.504.862.723 3.168.723 8.737v18.064l-.154 4.549c-.144 3.321-.208 4.199-.569 4.909-.296.512-.655.723-2.099 1.16-1.662.511-2.386 1.376-2.386 2.61 0 1.949 1.084 2.528 4.343 2.528h19.29c4.986 0 9.971-.516 13.876-1.52 6.57-1.738 10.551-6.506 10.551-12.653 0-7.575-5.64-13.141-14.892-14.661zM20.811 6.867c3.695 0 5.858 2.449 5.858 6.648 0 3.608-2.164 5.554-6.363 5.554-2.746 0-2.953-.58-2.953-7.009.001-4.331.504-5.193 3.458-5.193zM22.12 44.44c-4.481 0-4.766-.505-4.766-7.731v-7.011c.067-5.129.864-6.069 5.335-6.069 6.069 0 10.49 4.56 10.49 10.912 0 6.355-3.917 9.899-11.059 9.899zM93.824 2.239H83.271c-1.87 0-2.744.723-2.744 2.243 0 1.148.58 1.806 2.175 2.385 2.46.798 2.743 1.584 3.171 8.737L86.735 31c.154 1.584.154 2.952.154 4.187 0 6.726-3.466 9.896-10.912 9.896-3.763 0-6.431-.939-8.235-2.885-1.453-1.588-2.033-3.688-2.033-7.732 0-1.365 0-2.898.14-4.342l.876-16.029c.286-5.927.504-6.43 3.104-7.009 1.588-.298 2.318-1.084 2.318-2.307 0-1.96-.938-2.54-3.902-2.54H53.647c-2.1 0-3.184.865-3.184 2.604 0 1.301.659 2.024 2.374 2.45 1.596.515 2.036 1.015 2.036 2.754 0 .723-.078 1.73-.155 2.593l-1.365 18.218c-.361 4.33-.361 4.986-.361 5.852 0 9.753 6.93 14.454 21.386 14.454 4.922 0 9.252-.654 12.511-1.881 1.52-.654 2.953-1.662 4.255-2.965 2.239-2.306 3.04-5.203 3.04-10.848 0-1.439-.078-2.818-.144-4.108l-1.3-16.841c-.297-3.465-.297-3.828-.297-4.549 0-1.892.515-2.743 2.1-3.104 1.741-.515 2.243-1.02 2.243-2.54 0-1.51-.863-2.089-2.962-2.089zM151.121 45.38l-1.159-.428c-1.159-.512-2.306-1.377-3.465-2.743l-7.085-8.104c7.807-2.088 11.491-6.287 11.491-12.85 0-5.925-3.465-11.284-9.688-14.749-5.479-3.04-11.777-4.268-22.033-4.268h-14.6c-3.179 0-4.263.648-4.263 2.54 0 1.29.734 2.099 2.385 2.588 1.365.516 1.739.659 2.021 1.227.361.579.503 1.521.58 4.843l.142 4.628V34.62l-.142 4.549c-.077 3.323-.144 4.188-.58 4.91-.283.513-.656.722-2.021 1.159-1.651.511-2.385 1.365-2.385 2.6 0 1.96 1.017 2.528 4.342 2.528h14.238c2.524 0 3.748-.723 3.748-2.46 0-1.228-.787-2.157-1.945-2.462l-1.52-.285c-1.235-.282-1.597-1.291-1.597-4.985 0-1.521.088-2.318.23-3.533 1.945.286 2.668.36 4.485.36 1.803 0 2.668-.074 4.768-.36l5.629 5.774c.865.865 1.083 1.303 1.083 1.814 0 .43-.218.647-.723.854l-1.08.361c-1.02.448-1.664 1.378-1.664 2.462 0 1.662 1.084 2.46 3.105 2.46h16.261c2.243 0 3.323-.787 3.323-2.528-.001-1.159-.645-1.945-1.881-2.458zm-27.174-14.236c-5.049 0-6.363-1.445-6.43-7.01l-.075-9.538c0-5.061 1.816-6.788 7.164-6.788 6.648 0 11.841 5.489 11.841 12.499 0 6.656-4.767 10.837-12.5 10.837zM202.462 2.239C201.675.644 201.019 0 199.936 0c-.427 0-.864.152-1.225.361-.076.077-.438.283-1.159.788-1.225.809-2.46 1.09-5.424 1.09h-22.251c-2.231 0-3.029-.217-4.267-1.298-.711-.657-1.377-.94-2.1-.94-.798 0-1.585.568-2.231 1.648l-6.08 10.63c-.568.94-.786 1.729-.786 2.46 0 1.095.722 1.88 1.945 1.88 1.019 0 1.38-.218 3.468-2.382 4.343-4.341 7.086-5.85 11.143-5.85 3.39 0 3.97.644 3.97 4.688v17.717l-.076 3.827-.076 4.549c-.131 3.323-.21 4.188-.582 4.91-.283.513-.708.722-2.1 1.159-1.637.511-2.371 1.365-2.371 2.6 0 1.96 1.084 2.528 4.252 2.528h13.888c3.173 0 4.255-.568 4.255-2.46 0-1.303-.722-2.089-2.385-2.668-1.365-.438-1.727-.646-2.021-1.159-.36-.646-.505-1.664-.571-4.91L187 34.619l-.066-3.895v-16.99c0-4.625.504-5.208 4.255-5.208 4.494 0 7.381 1.52 11.931 6.213 1.301 1.301 2.1 1.88 2.963 1.88 1.159 0 1.946-.862 1.946-2.013 0-.59-.219-1.298-.579-2.1l-4.988-10.267zM237.41 1.224c-15.167 0-27.239 12.292-27.239 27.609 0 14.162 10.049 22.475 26.955 22.475 16.981 0 27.469-8.893 27.469-23.347 0-14.742-12.215-26.737-27.185-26.737zm0 43.653c-7.939 0-12.423-6.224-12.423-17.278 0-12.344 4.91-20.513 12.357-20.513 7.37 0 12.574 8.879 12.574 21.53.001 10.115-4.689 16.261-12.508 16.261zM313.736 2.239h-9.973c-2.231 0-3.105.58-3.105 2.243 0 1.366.503 1.881 2.241 2.46 2.165.723 2.668 1.728 2.668 5.128v8.376c0 1.726-.131 2.099-.722 2.099-.492 0-1.147-.362-2.089-1.292L286.344 4.779c-2.308-2.242-2.887-2.528-5.489-2.528H269.8c-3.183 0-4.266.636-4.266 2.528 0 1.298.723 2.099 2.396 2.601 1.366.503 1.728.646 2.022 1.226.351.567.503 1.509.568 4.843l.143 4.616V34.62l-.143 4.549c-.065 3.323-.142 4.199-.568 4.91-.295.513-.656.722-2.022 1.159-1.673.511-2.396 1.376-2.396 2.61 0 1.949 1.018 2.518 4.266 2.518h9.393c3.182 0 4.265-.568 4.265-2.46 0-1.292-.722-2.089-2.384-2.668-1.378-.43-1.728-.646-2.089-1.159-.371-.646-.448-1.587-.579-4.91l-.076-4.549-.077-3.827v-9.767l.153-2.382c.065-1.599.284-2.099.863-2.099.361 0 1.083.436 1.729 1.234l21.027 22.112c2.745 2.962 3.401 4.482 3.478 7.883l.065 1.367c0 1.083.372 1.226 2.242 1.226h3.762c1.082-.068 1.301-.429 1.301-2.385v-.133c-.076-.654-.076-1.377-.076-2.25V21.823l.076-3.759.065-4.628c.143-3.322.219-4.187.58-4.843.295-.503.656-.722 2.1-1.227 1.662-.5 2.384-1.298 2.384-2.588.01-1.891-1.084-2.539-4.266-2.539z"/></g></svg>