<svg viewBox="0 -.007 1998.5 1248.01" xmlns="http://www.w3.org/2000/svg"><path d="m821.224 1246.504c-31.966-4.519-53.518-15.768-67.368-35.165-11.172-15.646-16.273-35.714-18.571-73.057-1.943-31.578 1.41-69.864 7.804-89.083 10.605-31.88 35.148-50.57 74.435-56.684 23.025-3.583 76.626-3.013 98.004 1.042 35.846 6.8 59.435 26.262 68.863 56.812 12.573 40.745 9.868 121.61-5.05 150.95-11.552 22.72-31.72 36.658-62.841 43.43-10.91 2.375-13.396 2.52-48.5 2.82-27.571.236-39.491-.036-46.776-1.065zm78.276-55.944c18.301-5.849 28.6-17.324 32.456-36.161 3.584-17.51 3.796-49.113.455-67.812-3.823-21.395-15.517-34.286-35.652-39.303-9.93-2.474-56.673-2.452-66.656.032-19.031 4.735-30.976 17.43-35.07 37.27-3.575 17.32-3.589 49.632-.032 68.907 3.563 19.302 14.593 31.797 32.541 36.864 8.41 2.374 9.633 2.443 38.958 2.194 23.032-.196 28.393-.52 33-1.991zm660.5 56.771c-21.023-2.536-34.648-6.278-48-13.184-7.12-3.682-10.886-6.534-18.032-13.654-13.512-13.465-19.49-26.19-23.384-49.774-5.138-31.128-5.328-67.366-.522-99.726 3.047-20.523 8.104-33.976 17.368-46.215 6.85-9.048 15.587-15.95 27.57-21.78 18.714-9.103 33.882-11.853 70-12.693 38.967-.906 62.055 1.526 81.333 8.566 32.335 11.807 48.82 33.733 54.597 72.612 5.432 36.563 3.596 88.942-4.04 115.294-8.377 28.907-28.817 47.758-60.89 56.156-15.39 4.03-28.486 5.07-61.801 4.91-17.16-.082-32.549-.313-34.199-.512zm71.5-56.786c27.534-8.874 35.961-27.478 34.676-76.552-.305-11.647-1.182-23.863-2.03-28.287-3.954-20.63-15.822-33.556-35.249-38.39-9.983-2.484-56.725-2.506-66.656-.032-16.657 4.15-26.922 13.151-32.88 28.833-6.736 17.729-6.61 69.109.216 87.35 5.17 13.82 15.034 22.675 29.953 26.886 8.425 2.378 9.638 2.447 38.97 2.198 23.145-.197 28.371-.515 33-2.006zm-1258.5 54.338c-57.765-4.35-87.374-22.3-94.61-57.36-4.888-23.685-.21-45.51 12.759-59.517 16.234-17.536 41.492-25.932 105.367-35.03 42.29-6.022 51.924-8.242 62.392-14.376 8.636-5.062 11.607-15.062 6.78-22.825-2.936-4.723-11.724-9.17-22.688-11.482-12.86-2.712-55.744-2.401-78 .564-16.206 2.16-42.65 6.47-58.25 9.497l-7.25 1.406v-52.588l9.25-2.14c32.143-7.44 70.26-12.04 99.755-12.04 70.1 0 105.88 17.107 117.9 56.367 3.575 11.677 4.303 26.99 3.823 80.379-.476 52.853-.664 55.106-5.727 68.558-3.353 8.907-11.412 20.167-18.79 26.253-21.187 17.476-54.696 25.677-103.383 25.303-10.08-.078-23.278-.514-29.328-.97zm63.443-54.36c17.496-3.98 29.228-11.797 34.173-22.77 2.18-4.839 2.397-6.802 2.703-24.497l.334-19.237-7.327 3.447c-13.792 6.49-34.035 11.248-74.533 17.52-29.02 4.495-39.297 6.99-45.81 11.12-5.172 3.28-7.483 7.568-7.483 13.887 0 11.711 8.819 18.26 28.99 21.53 12.38 2.007 58.69 1.336 68.953-1zm-348.943 53.387c-22.552-1.715-56.926-7.278-75.5-12.217l-5-1.33-.266-27.685c-.196-20.42.037-27.685.89-27.685.635 0 5.48 1.333 10.765 2.964 32.849 10.13 69.142 15.042 111.022 15.027 51.278-.017 67.099-5.357 67.085-22.642-.01-14.012-9.525-17.62-61.496-23.315-29.741-3.259-53.57-6.82-67.5-10.085-33.096-7.758-52.369-19.652-61.435-37.913-5.301-10.679-6.065-14.839-6.065-33.036 0-14.776.254-17.27 2.427-23.868 8.723-26.492 33.239-42.246 75.573-48.565 44.14-6.588 126.643-2.35 164.75 8.463l3.75 1.064v26.56c0 24.89-.11 26.516-1.75 25.873-.963-.377-7.667-2.209-14.898-4.07-29.884-7.69-55.322-10.467-96.852-10.575-16.635-.043-32.493.41-37.193 1.061-22.195 3.079-31.105 8.303-33.19 19.46-2.079 11.128 3.073 17.581 17.883 22.399 9.554 3.108 19.95 4.753 55 8.707 62.183 7.014 83.01 11.92 100.63 23.707 16.831 11.257 23.659 26.4 23.574 52.284-.074 22.662-4.868 35.263-18.658 49.037-6.55 6.542-9.813 8.904-17.546 12.7-14.826 7.278-31.95 11.44-56.5 13.733-12.567 1.174-63.81 1.14-79.5-.054zm554.107-2.983c-47.969-5.457-75.416-24.27-85.252-58.435l-2.303-8-.315-91.25-.316-91.25h56.015l.292 84.75c.335 97.337-.345 90.31 9.698 100.29 6.12 6.083 12.877 9.685 23.574 12.57 6.001 1.618 10.282 1.867 30 1.74 12.65-.08 28.581-.65 35.403-1.262s12.63-.888 12.907-.61c.534.534 8.149 44.89 8.175 47.62.012 1.319-2.205 1.802-12.735 2.777-17.07 1.58-64.672 2.251-75.143 1.06zm371.893-71.327c0-72.086.374-81.38 4.148-103.106 4.843-27.881 15.422-45.426 35.16-58.311 9.86-6.437 20.973-10.749 36.192-14.042 11.539-2.497 13.269-2.598 45-2.622 28.163-.022 34.466.25 43 1.855 18.718 3.52 32.877 9.2 44.092 17.69 3.583 2.711 6.728 4.93 6.99 4.93s2.807-1.842 5.655-4.094c9.902-7.827 24.764-14.082 42.986-18.093 13.172-2.9 61.49-3.762 79.39-1.416 42.857 5.617 68.826 24.84 79.178 58.612 3.031 9.89 6.073 30.617 7.189 48.99.551 9.076 1.006 44.288 1.011 78.25l.01 61.75h-57.901l-.382-72.25c-.425-80.444-.576-82.476-7.174-96.455-6.038-12.793-16.393-20.461-32.13-23.795-9.271-1.964-40.399-1.997-49.575-.052-14.802 3.137-25.44 10.906-31.335 22.881-7.394 15.023-8.496 29.148-8.5 108.922v60.75h-57v-64.894c0-64.524-.56-78.907-3.592-92.106-4.448-19.368-16.65-31.428-35.908-35.49-9.474-1.997-40.455-2.015-49.834-.027-9.744 2.064-16.843 5.626-23.201 11.64-7.185 6.794-11.135 15.068-13.752 28.807-1.871 9.82-2.044 15.59-2.43 81.32l-.414 70.75h-56.869v-70.394zm731.003.144c0-71.761.484-84.18 4.041-104.489 7.461-42.597 31.77-65.003 78.956-72.772 21.406-3.525 72.881-2.936 94.028 1.075 36.464 6.918 60.21 26.957 69.301 58.485 6.265 21.726 7.671 44.203 7.671 122.611v65.37l-28.75-.265-28.75-.265-.617-73c-.596-70.417-.85-76.154-3.883-87.555-3.052-11.468-11.599-22.175-21.848-27.368-7.993-4.05-16.285-5.533-34.652-6.194-19.556-.705-35.977.583-45.654 3.578-12.525 3.877-22.065 13.065-26.93 25.933-4.943 13.08-5.169 16.827-5.616 93.356l-.42 71.75h-56.88v-70.25zm-1119.503-289.855c-20.402-2.96-39.648-13.672-52.484-29.21-6.245-7.56-13.27-21.45-16.276-32.186l-2.24-8-.296-364c-.21-256.909.023-366.795.788-373.5 4.052-35.494 30.303-64.24 65.216-71.416 6.951-1.429 43.654-1.584 374-1.577 248.452.005 368.351.342 372.693 1.046 30.906 5.015 57.108 28.892 65.783 59.947 1.74 6.227 1.816 22.181 1.816 380v373.5l-3.301 9.5c-4.326 12.45-9.806 21.527-18.563 30.748-11.29 11.889-22.94 18.877-39.136 23.479l-8 2.273-367 .133c-203.857.074-369.667-.254-373-.737zm441.5-128.899c36.42-1.008 65.947-2.27 95-4.06 43.057-2.652 99.583-7.367 107.283-8.948 10.792-2.216 20.643-10.092 25.337-20.255l2.88-6.234v-84.5c0-95.75.255-92.296-8.047-108.88-7.55-15.082-16.326-23.248-37.953-35.314-124.475-69.45-356.85-200.835-359.34-203.171-1.836-1.725-4.534-5.385-5.994-8.135-2.337-4.398-2.657-6.145-2.66-14.5 0-7.6.423-10.425 2.132-14.123 3.05-6.599 8.59-12.3 14.37-14.786 4.99-2.146 5.025-2.147 87.242-1.87l82.25.279 7.511 3.05c4.132 1.678 24.607 12.671 45.5 24.43s41.139 22.817 44.989 24.575c12.94 5.906 13.383 5.945 68 5.945 48.637 0 50.095-.056 53.497-2.054 4.809-2.826 7.753-7.58 8.511-13.747.352-2.86.478-26.35.28-52.2-.313-41.18-.567-47.532-2.046-51.298-3.957-10.078-13.212-18.733-23.268-21.76-9.379-2.822-77.152-8.256-149.974-12.024-41.32-2.138-167.406-3.024-213-1.496-32.94 1.103-80.383 3.357-96 4.561-3.85.297-16.225 1.22-27.5 2.053-38.04 2.808-64.993 5.55-69.225 7.044-10.059 3.549-16.798 9.335-21.456 18.42l-2.819 5.5v175l3.164 9.05c5.375 15.375 13.464 26.97 24.433 35.022 2.751 2.02 88.116 50.423 189.7 107.563 101.583 57.14 186.234 105.341 188.113 107.113 5.757 5.431 8.543 12.828 8.568 22.753.02 7.29-.372 9.303-2.748 14.141-3.657 7.447-10.086 13.293-16.816 15.292-7.727 2.294-156.033 2.334-165.746.044-9.287-2.189-16.754-5.943-57.533-28.918-20.276-11.424-39.34-21.866-42.366-23.204-11.597-5.129-14.09-5.326-67.269-5.324-49.393.002-49.509.007-53.5 2.24-2.641 1.477-4.773 3.764-6.277 6.733l-2.277 4.496.277 51.5.277 51.5 2.353 5.201c2.915 6.446 11.312 14.572 18.394 17.802 6.216 2.834 12.092 3.606 52.753 6.934 101.464 8.303 204.437 11.232 301 8.56z" fill="#1b1b1b"/></svg>