<?xml version="1.0" encoding="utf-8"?>
<!-- Generator: Adobe Illustrator 25.1.0, SVG Export Plug-In . SVG Version: 6.00 Build 0)  -->
<svg version="1.1" id="Layer_1" xmlns="http://www.w3.org/2000/svg" xmlns:xlink="http://www.w3.org/1999/xlink" x="0px" y="0px"
	 viewBox="0 0 2339.2 456.9" style="enable-background:new 0 0 2339.2 456.9;" xml:space="preserve">
<style type="text/css">
	.st0{fill-rule:evenodd;clip-rule:evenodd;fill:#FFFFFF;}
	.st1{fill-rule:evenodd;clip-rule:evenodd;}
</style>
<g>
	<path class="st0" d="M-80.4-1021.6h2500v2500h-2500V-1021.6z"/>
	<path class="st1" d="M2193.1,358.6c-32.7-0.3-121.6-8.2-170.3-8.7c-26.9-0.3-53.7,1.3-80.4,4.7c4,5.3,8.2,10.4,12.6,15.3
		c15.8,0.2,60.2,2,142.8,16.1c68.6,11.6,106.9,13.5,125.4,13.3c18.7-13.3,35.1-29.6,48.4-48.3C2253,354.4,2218.1,358.9,2193.1,358.6
		L2193.1,358.6z M2095.7,391.3c-73.6-13.1-116.9-16.3-136.5-17c38.3,39.9,91.3,62.5,146.6,62.4c39.8,0,76.9-11.4,108.2-31.1
		C2193.5,405,2156.5,402.1,2095.7,391.3L2095.7,391.3z"/>
	<path class="st1" d="M2022.8,345.7c48.7,0,137.7,6.9,170.4,6.9c27.7,0,67.3-6,83.9-9.5c21.1-32.8,32.3-71,32.3-110
		c0-18.2-2.4-35.9-6.9-52.7l-109,27.8l11.7-22.2c25.8-4,58.7-12.3,89.5-29c-2.4-5.8-5-11.6-7.9-17.2c-26.5,13.2-50,19.2-68.7,21.7
		l17-32.2l44-3.1c-3.9-6.2-8-12.2-12.5-18h-50.8l20-31.9c-4.2-3.4-8.4-6.7-12.8-9.8l-40.9,56.9l-11.9-23.6l2-8.3l38.8-32.9
		c-4.2-2.6-8.6-5-13-7.2l-41.1,22l-21.1-41.8c-6.1-0.9-12.3-1.5-18.4-1.9l22.4,57.6l-6.6,5.9l-33.2-63.8c-1.9,0.1-3.9,0.1-5.8,0.3
		l-25.4,53.6l-26.4-43.8c-8.6,2.8-16.9,6.2-24.9,10l-1.2,35.3l-37.6-10.8c-7.8,6.2-15.1,13-21.9,20.3l45.4,55.7l-12.7,0.9
		l-40.8-47.5c-4.9,6-9.5,12.3-13.8,18.8l25.3,30.8l-43,3.1c-9.9,24.3-15,50.4-15,76.7c-0.1,42.5,13.2,83.9,37.9,118.4
		C1949.8,350,1982.2,345.7,2022.8,345.7L2022.8,345.7z"/>
	<path class="st0" d="M2201,131.8l11.1-0.8l-19.3,32.1c-3.7-0.1-7.4-0.3-11.1-0.6L2201,131.8z M2177,189.2l-16.5,27.3l-15.3,3.9
		l19.2-30.6C2167.6,189.8,2171.8,189.6,2177,189.2L2177,189.2z M2157.8,134.1l5.9,15.1l-33.3,46.3l-1.4-41.4L2157.8,134.1z
		 M2126.6,244.6l66.6-16.6l9.4,13.8l17.6-0.9l-4.6-18.5l26-6.5c4.5,6.5,16.3,22.1,28.7,28.6l13.9-6.5c0,0-12.9-15.9-16.7-28.6
		l22.3-5.6c1.5,9.7,2.4,19.6,2.4,29.7c0,37.6-11.2,72.7-30.4,101.9c-43.4-1.1-86.9-6.4-130.4-12.6
		C2122.3,284.1,2126.6,244.6,2126.6,244.6L2126.6,244.6z M2106.7,166.3l0.4,19.5l-9.1-0.5l-3.2-13.6L2106.7,166.3L2106.7,166.3z
		 M1992.4,170.1l29.4-1l10.2,8.7l-28.8,23.2l-27.4-10.4L1992.4,170.1z M1960.1,171.2l-7.8,10.5l-25-9.5L1960.1,171.2L1960.1,171.2z
		 M1930.5,192.2l10.4,5l-14.4,19.4C1927.3,208.3,1928.6,200.1,1930.5,192.2L1930.5,192.2z M1925.7,232.2l9.7,0.4h6.7l20.2-25.1
		l23.4,11.2l-11.1,15.4l26.2,1l49.8-41.5l12.6,14l-50.2,27.9l41.8,1.6l25.9-10l9.6,10.8l-2.5,78.6c-50-7.4-99.9-14.3-149.4-15.8
		c-8.6-21.4-12.9-44.2-12.9-67.2C1925.6,233.2,1925.7,232.7,1925.7,232.2L1925.7,232.2z"/>
	<path class="st1" d="M941.6,337.3c0,19.5-9.3,18.5-18.5,18.5c-7,0-28.1,1.3-42.9-35.1c-0.4-4.4-0.2-15.7,13.2-18.7
		c0,0,64-25,71.4-28.7c7.4-3.7,8.3-16.7,8.3-26.9c0-10.2-15.8-88.1-76-88.1c-60.3,0-83.4,64.9-83.4,135.4
		c0,70.5,33.4,124.3,93.6,124.3c60.3,0,69.5-38,69.5-62.1C976.9,328.1,941.6,321.6,941.6,337.3L941.6,337.3z M317.6,392
		c-9.3-5.6-11.1-12.1-11.1-18.5v-191c0-16.7-7.4-22.3-12-22.3c-11.1,0-63,22.3-75.1,28.7c-12,6.5-2.8,14.8,2.8,17.6
		c5.6,2.8,10.2,5.6,10.2,20.4v146.5c0,6.5-1.9,13-11.1,18.5c-1.7,1-3,2.5-3.6,4.4c-0.8-2-2.6-4.2-5.4-6.2
		c-13.9-10.2-12-14.9-12-26.9V100c0-13.9-0.9-25,6.5-25c18.5,0,28.7,35.2,38.9,59.3c10.2,24.1,43.6,11.1,39.9-5.6
		s-11.1-64-14.9-80.7c-3.7-16.7-10.2-27.8-16.7-27.8c-6.5,0-17.6,10.2-17.6,10.2l-78.5,1.4l-78.5-1.4c0,0-11.1-10.2-17.6-10.2
		S48.7,31.3,45,48c-3.7,16.7-11.1,64-14.8,80.7s29.7,29.7,39.9,5.6c10.2-24.1,20.4-59.3,38.9-59.3c7.4,0,6.5,11.1,6.5,25v263.3
		c0,12,1.9,16.7-12.1,26.9c-13.9,10.2-1.9,21.1,20.4,21.1h67.9c13.8,0,23.6-4.2,25.8-9.8c1.5,5,6.9,9.8,12.9,9.8h77.9
		C318.5,411.3,326.9,397.6,317.6,392z"/>
	<path class="st1" d="M1229.2,392c-9.3-5.6-11.1-12.1-11.1-18.5v-316c0-16.7-7.4-22.3-12-22.3c-11.1,0-63.1,22.3-75.1,28.7
		c-12,6.5-2.8,14.8,2.8,17.6s10.2,5.6,10.2,20.4v70.7c-4.9-6.7-13.1-11-26-11c-43.9,0-36.8,31.7-61.1,38.6v-17.7
		c0-16.7-7.4-22.3-12.1-22.3c-11.1,0-63,22.3-75.1,28.7c-12.1,6.5-2.8,14.8,2.8,17.6c5.6,2.8,10.2,5.6,10.2,20.4v146.5
		c0,6.5-1.9,13-11.1,18.5s-0.9,19.3,9.3,19.3h77.9c10.2,0,18.5-13.7,9.3-19.3c-9.3-5.6-11.1-12.1-11.1-18.5v-95.2
		c5.8-18.8,20-56.4,41.6-56.4c9.3,0,6.5,25,27.8,25c4.9,0,12.5-10.6,17.7-24.4v150.9c0,6.5-1.9,13-11.1,18.5
		c-9.3,5.6-0.9,19.3,9.3,19.3h77.9C1230.1,411.3,1238.4,397.6,1229.2,392L1229.2,392z"/>
	<path class="st1" d="M1624.2,392c-9.3-5.6-11.1-12.1-11.1-18.5c0-13,4-210.5-69.3-210.5c-23.2,0-27.1,15.3-38.8,22v-2.5
		c0-16.7-7.4-22.3-12-22.3c-11.1,0-63,22.3-75.1,28.7c-12.1,6.5-2.8,14.8,2.8,17.6c5.6,2.8,10.2,5.6,10.2,20.4v146.5
		c0,6.2-1.7,12.5-10.1,17.9c-1.2-7.9-7.9-17-14.6-17c-7.4,0-9.3-6.5-9.3-14.9c0-8.4,0-12.1-7.4-103.9c-7.4-91.8-46.4-89-87.2-89
		c-40.8,0-76,19.5-76,51c0,31.5,20.4,34.3,36.1,34.3s27.8-3.7,27.8-24.1c0-20.4-13-26.9-13-26.9s6.5-1.9,21.3-1.9
		c14.8,0,23.2,23.2,23.2,43.6c0,16.7-29.7,17.6-40.8,23.2c-38.6,19.3-57.5,50.1-57.5,88.1c0,38,22.2,57.3,29.7,57.3h64.9
		c14.9,0,21.3-8.2,26-8.2s7.4,8.2,13,8.2h40.8c12.5,0,18.4-1.9,21.1-4.9c2.5,2.8,6.1,4.9,10.1,4.9h77.9c10.2,0,18.5-13.7,9.3-19.3
		c-9.3-5.6-11.1-12.1-11.1-18.5V229.1c0-5.7,7.3-14.2,15.6-14.2c19.5,0,26,138.2,26,158.6c0,6.5-1.9,13-11.1,18.5
		c-9.3,5.6-0.9,19.3,9.3,19.3h70.1C1625.1,411.3,1633.5,397.6,1624.2,392L1624.2,392z M736.7,156.5c-20.3,0-16.8,9-31.5,13V50.8
		c0-16.7-7.4-22.3-12-22.3c-11.1,0-58.2,22.3-70.3,28.7c-12,6.5-2.8,19.5,2.8,22.3c5.6,2.8,5.4,5.6,5.4,20.4v277.2
		c0,7.8,0.5,13.8,1.2,18.5c-0.7-1.5-1.9-2.8-3.4-3.6c-9.3-5.6-11.1-12.1-11.1-18.5c0-13,4-210.5-69.3-210.5
		c-26.6,0-27.9,20.1-44.6,24.3c-7.1-14.9-19.8-27.1-41.6-27.1c-36.1,0-31.6,21.1-50,25.9v-3.7c0-16.7-7.4-22.3-12.1-22.3
		c-11.1,0-63,22.3-75.1,28.7c-12.1,6.5-2.8,14.8,2.8,17.6c5.6,2.8,10.2,5.6,10.2,20.4v146.5c0,6.5-1.9,13-11.1,18.5
		s-0.9,19.3,9.3,19.3h77.9c10.2,0,18.5-13.7,9.3-19.3c-9.3-5.6-11.1-12.1-11.1-18.5V234.9c0-14.4,10.4-23.7,18.5-23.7
		c8.3,0,15,5.6,15,22.3v140c0,6.5-1.9,13-11.1,18.5c-9.3,5.6-0.9,19.3,9.3,19.3h70.1c10.2,0,18.5-13.7,9.3-19.3
		c-9.3-5.6-11.1-12.1-11.1-18.5l0-149.1c0-4.9,7.1-9.5,13.3-9.5c19.5,0,26.1,138.2,26.1,158.6c0,6.5-1.9,13-11.1,18.5
		s-0.9,19.3,9.3,19.3h70.1c7,0,13.2-6.5,13.3-12.3c3.2,13.9,9.8,12.3,13.9,12.3c5.6,0,10.8,3.2,26-22.1c2.8-4.6,9.3-1.9,17.6,7.4
		c8.3,9.3,13,20.4,48.2,20.4c35.2,0,73.3-5.6,73.3-132.6C811.8,184.3,757.1,156.5,736.7,156.5L736.7,156.5z"/>
	<path class="st1" d="M1811.5,392c-9.3-5.6-11.1-12.1-11.1-18.5V65.8c0-16.7-7.4-22.3-12.1-22.3c-7.7,0-32.9,15.2-53,24
		c-8.8,3.9-18.5,2.8-22.1,4.8c-12.1,6.5-2.8,14.8,2.8,17.6c5.6,2.8,10.2,5.6,10.2,20.4v73.2c-5.1-4.7-17.4-14-35.4-14
		c-24.1,0-73.3,45.4-73.3,140.9c0,39.9,12.1,68.6,19.5,86.2c7.4,17.6,15.8,14.6,27.8,14.6h137.3
		C1812.4,411.3,1820.8,397.6,1811.5,392L1811.5,392z"/>
	<path class="st0" d="M2055.2,118.5l-17.5-5.6l1.8,32.5L2055.2,118.5L2055.2,118.5z M2065.8,146.3l-9.4,21.7l14.6,14.4L2065.8,146.3
		z M2091,149.5l17.1-12.5l6-34.3l-15.4-32.4l-17.6,40.6L2091,149.5z M2045.4,93.6l-9.6-16.8l0.8,15.8L2045.4,93.6L2045.4,93.6z
		 M2013.4,105.1l-30.5-9.8l32,31.7L2013.4,105.1L2013.4,105.1z M727.5,195.5c16.7,0,24.1,55.6,24.1,83.4s-7.4,76-26,76
		c-18.5,0-21.3-56.6-21.3-76C704.3,259.5,710.8,195.5,727.5,195.5L727.5,195.5z M883.2,192.7c8.4,0,26.9,26,26.9,51
		c0,25.1-21.3,32.5-31.5,32.5c-4.2,0-9.7-0.5-10.2-4.7C859.1,200.6,874.9,192.7,883.2,192.7L883.2,192.7z M1325.5,286.3v74.2
		c0,8.4-1.9,18.6-13,18.6c-11.1,0-22.3-3.7-22.3-40.8S1306,286.3,1325.5,286.3z M1702,212.2c10.2,0,27.8,29.7,27.8,82.5
		c0,52.8-13,76-21.3,76c-8.3,0-26.9-21.3-26.9-75.1S1695.5,212.2,1702,212.2z"/>
	<path class="st1" d="M1628.1,80.9c0-10.9,8.8-18.9,19.2-18.9c10.3,0,19.1,8,19.1,18.9c0,11-8.8,19-19.1,19
		C1636.9,99.9,1628.1,91.9,1628.1,80.9z"/>
	<path class="st0" d="M1647.3,96.7c8.6,0,15.3-6.7,15.3-15.8c0-9-6.7-15.7-15.3-15.7c-8.7,0-15.4,6.8-15.4,15.7
		C1631.9,90,1638.6,96.7,1647.3,96.7z"/>
	<path class="st1" d="M1643.2,91.9h-3.3V70h8.3c5.2,0,7.7,1.9,7.7,6.2c0,3.9-2.4,5.6-5.7,6l6.2,9.6h-3.7l-5.7-9.5h-3.8L1643.2,91.9
		L1643.2,91.9L1643.2,91.9z"/>
	<path class="st0" d="M1647.2,79.6c2.8,0,5.3-0.2,5.3-3.6c0-2.7-2.5-3.2-4.8-3.2h-4.5v6.8H1647.2z"/>
</g>
</svg>
